<svg xmlns="http://www.w3.org/2000/svg" xmlns:xlink="http://www.w3.org/1999/xlink" width="1030.001" height="737.091" viewBox="0 0 1030.001 737.091">
  <defs>
    <linearGradient id="linear-gradient" x1="0.5" x2="0.5" y2="1" gradientUnits="objectBoundingBox">
      <stop offset="0" stop-color="#47a0e6"/>
      <stop offset="1" stop-color="#0f2771"/>
    </linearGradient>
  </defs>
  <g id="Grupo_949370" data-name="Grupo 949370" transform="translate(-285 -2162)">
    <g id="Grupo_949368" data-name="Grupo 949368" transform="translate(105 1047)">
      <rect id="Rectángulo_5140" data-name="Rectángulo 5140" width="5" height="28" transform="translate(180 1115)" fill="#b3009d"/>
      <text id="Figura_1._Procedimiento_de_definición_de_requerimientos" data-name="Figura 1. Procedimiento de definición de requerimientos" transform="translate(196 1134)" fill="#12263f" font-size="16" font-family="Roboto-Bold, Roboto" font-weight="700"><tspan x="0" y="0">Figura 1.</tspan><tspan y="0" xml:space="preserve" font-family="Roboto-Regular, Roboto" font-weight="400"> Procedimiento de definición de requerimientos</tspan></text>
    </g>
    <g id="Grupo_949369" data-name="Grupo 949369" transform="translate(0 38.883)">
      <text id="Procedimiento_documentación" data-name="Procedimiento documentación" transform="translate(631 2209)" fill="#fff" font-size="18" font-family="Roboto-Black, Roboto" font-weight="800"><tspan x="-124.471" y="17">Procedimiento documentación</tspan></text>
      <g id="Grupo_949347" data-name="Grupo 949347" transform="translate(285 2175.117)">
        <g id="Grupo_949366" data-name="Grupo 949366">
          <g id="Grupo_949367" data-name="Grupo 949367">
            <path id="Trazado_656663" data-name="Trazado 656663" d="M622.131,75.436H212.284a17.529,17.529,0,0,1-17.478-17.478v-6.9a17.529,17.529,0,0,1,17.478-17.478H622.131a17.529,17.529,0,0,1,17.478,17.478v6.9a17.529,17.529,0,0,1-17.478,17.478" transform="translate(88.928 15.328)" fill="url(#linear-gradient)"/>
            <path id="Trazado_656664" data-name="Trazado 656664" d="M531.462,49.084,513.5,38.716a3.827,3.827,0,0,0-5.742,3.314V62.768a3.828,3.828,0,0,0,5.742,3.315l17.96-10.37a3.827,3.827,0,0,0,0-6.629" transform="translate(231.791 17.437)" fill="#f5d0f0"/>
            <path id="Trazado_656665" data-name="Trazado 656665" d="M541.752,49.084l-17.96-10.369a3.827,3.827,0,0,0-5.742,3.314V62.768a3.828,3.828,0,0,0,5.742,3.315l17.96-10.37a3.826,3.826,0,0,0,0-6.629" transform="translate(236.488 17.437)" fill="#f5d0f0"/>
            <path id="Trazado_656666" data-name="Trazado 656666" d="M172.6,55.713l17.96,10.37a3.828,3.828,0,0,0,5.742-3.315V42.029a3.828,3.828,0,0,0-5.742-3.315L172.6,49.085a3.827,3.827,0,0,0,0,6.629" transform="translate(77.917 17.437)" fill="#f5d0f0"/>
            <path id="Trazado_656667" data-name="Trazado 656667" d="M162.308,55.713l17.96,10.37a3.828,3.828,0,0,0,5.742-3.315V42.029a3.828,3.828,0,0,0-5.742-3.315l-17.96,10.37a3.827,3.827,0,0,0,0,6.629" transform="translate(73.219 17.437)" fill="#f5d0f0"/>
            <path id="Trazado_656668" data-name="Trazado 656668" d="M209.511,233.984A101.122,101.122,0,1,1,108.39,132.862,101.122,101.122,0,0,1,209.511,233.984" transform="translate(3.318 60.651)" fill="#e899de"/>
            <path id="Trazado_656669" data-name="Trazado 656669" d="M124.786,296.355a101.117,101.117,0,0,1-93.9-138.647,101.114,101.114,0,1,0,171.4,102.457,100.892,100.892,0,0,1-77.5,36.19" transform="translate(3.317 71.993)" fill="#b3009d"/>
            <path id="Trazado_656670" data-name="Trazado 656670" d="M70.654,265.6A28.193,28.193,0,1,1,42.462,237.41,28.193,28.193,0,0,1,70.654,265.6" transform="translate(6.514 108.377)" fill="#6c005f"/>
            <path id="Trazado_656671" data-name="Trazado 656671" d="M65.256,264.315a24.082,24.082,0,1,1-24.083-24.083A24.083,24.083,0,0,1,65.256,264.315Z" transform="translate(7.802 109.665)" fill="none" stroke="#fff" stroke-miterlimit="10" stroke-width="0.75"/>
            <path id="Trazado_656672" data-name="Trazado 656672" d="M235.691,248.8a5.825,5.825,0,0,1-5.826-5.826A118.17,118.17,0,0,0,10.8,181.469,5.825,5.825,0,0,1,.855,175.4a129.822,129.822,0,0,1,240.661,67.577,5.825,5.825,0,0,1-5.826,5.826" transform="translate(0 51.659)" fill="#5eb2e6"/>
            <path id="Trazado_656673" data-name="Trazado 656673" d="M169.586,219.253l10.37-17.96a3.828,3.828,0,0,0-3.315-5.742H155.9a3.828,3.828,0,0,0-3.315,5.742l10.37,17.96a3.827,3.827,0,0,0,6.629,0" transform="translate(69.419 89.269)" fill="#5eb2e6"/>
            <path id="Trazado_656674" data-name="Trazado 656674" d="M178.3,286.511A101.122,101.122,0,1,0,279.423,185.389,101.122,101.122,0,0,0,178.3,286.511" transform="translate(81.394 84.63)" fill="#76decb"/>
            <path id="Trazado_656675" data-name="Trazado 656675" d="M282.455,384.3A129.016,129.016,0,0,1,171.6,322.068a5.826,5.826,0,0,1,9.943-6.074,118.172,118.172,0,0,0,219.067-61.505,5.826,5.826,0,1,1,11.652,0A129.956,129.956,0,0,1,282.455,384.3" transform="translate(77.946 113.514)" fill="#ebbe54"/>
            <path id="Trazado_656676" data-name="Trazado 656676" d="M340.335,243.728l10.369,17.96a3.827,3.827,0,0,1-3.314,5.741H326.651a3.828,3.828,0,0,1-3.315-5.741l10.37-17.96a3.827,3.827,0,0,1,6.629,0" transform="translate(147.366 110.388)" fill="#ebbe54"/>
            <path id="Trazado_656677" data-name="Trazado 656677" d="M295.82,348.883a101.117,101.117,0,0,1-93.9-138.647,101.114,101.114,0,1,0,171.4,102.457,100.893,100.893,0,0,1-77.5,36.19" transform="translate(81.394 95.973)" fill="#00cca7"/>
            <path id="Trazado_656678" data-name="Trazado 656678" d="M242.617,208.471a28.193,28.193,0,1,1-28.193-28.193,28.194,28.194,0,0,1,28.193,28.193" transform="translate(85.015 82.297)" fill="#00836b"/>
            <path id="Trazado_656679" data-name="Trazado 656679" d="M237.219,207.183A24.082,24.082,0,1,1,213.136,183.1,24.083,24.083,0,0,1,237.219,207.183Z" transform="translate(86.303 83.585)" fill="none" stroke="#fff" stroke-miterlimit="10" stroke-width="0.75"/>
            <path id="Trazado_656680" data-name="Trazado 656680" d="M551.451,233.984A101.122,101.122,0,1,1,450.33,132.862,101.122,101.122,0,0,1,551.451,233.984" transform="translate(159.413 60.651)" fill="#ffeb9f"/>
            <path id="Trazado_656681" data-name="Trazado 656681" d="M577.63,248.8a5.825,5.825,0,0,1-5.826-5.826,118.17,118.17,0,0,0-219.066-61.5A5.825,5.825,0,0,1,342.8,175.4a129.015,129.015,0,0,1,110.853-62.233c71.577,0,129.809,58.235,129.809,129.81a5.825,5.825,0,0,1-5.826,5.826" transform="translate(156.095 51.659)" fill="#5d87c3"/>
            <path id="Trazado_656682" data-name="Trazado 656682" d="M511.526,219.253l10.369-17.96a3.827,3.827,0,0,0-3.314-5.742H497.842a3.828,3.828,0,0,0-3.315,5.742l10.37,17.96a3.827,3.827,0,0,0,6.629,0" transform="translate(225.514 89.269)" fill="#5d87c3"/>
            <path id="Trazado_656683" data-name="Trazado 656683" d="M466.738,296.355a101.117,101.117,0,0,1-93.9-138.647,101.114,101.114,0,1,0,171.4,102.457,100.892,100.892,0,0,1-77.5,36.19" transform="translate(159.417 71.993)" fill="#ffd947"/>
            <path id="Trazado_656684" data-name="Trazado 656684" d="M413.227,265.6a28.193,28.193,0,1,1-28.193-28.193A28.194,28.194,0,0,1,413.227,265.6" transform="translate(162.897 108.377)" fill="#b5992d"/>
            <path id="Trazado_656685" data-name="Trazado 656685" d="M407.829,264.315a24.082,24.082,0,1,1-24.083-24.083A24.083,24.083,0,0,1,407.829,264.315Z" transform="translate(164.186 109.665)" fill="none" stroke="#fff" stroke-miterlimit="10" stroke-width="0.75"/>
            <path id="Trazado_656686" data-name="Trazado 656686" d="M520.242,286.511A101.122,101.122,0,1,0,621.364,185.389,101.122,101.122,0,0,0,520.242,286.511" transform="translate(237.489 84.63)" fill="#c393e2"/>
            <path id="Trazado_656687" data-name="Trazado 656687" d="M624.4,384.3a129.014,129.014,0,0,1-110.851-62.23,5.825,5.825,0,1,1,9.942-6.074,118.172,118.172,0,0,0,219.067-61.505,5.826,5.826,0,1,1,11.652,0A129.956,129.956,0,0,1,624.4,384.3" transform="translate(234.041 113.514)" fill="#d68033"/>
            <path id="Trazado_656688" data-name="Trazado 656688" d="M682.275,243.728l10.369,17.96a3.827,3.827,0,0,1-3.314,5.741H668.591a3.828,3.828,0,0,1-3.315-5.741l10.37-17.96a3.827,3.827,0,0,1,6.629,0" transform="translate(303.46 110.388)" fill="#d68033"/>
            <path id="Trazado_656689" data-name="Trazado 656689" d="M637.76,348.883a101.117,101.117,0,0,1-93.9-138.647,101.114,101.114,0,1,0,171.4,102.457,100.893,100.893,0,0,1-77.5,36.19" transform="translate(237.489 95.973)" fill="#3c0061"/>
            <path id="Trazado_656690" data-name="Trazado 656690" d="M585.19,208.471A28.193,28.193,0,1,1,557,180.278a28.194,28.194,0,0,1,28.193,28.193" transform="translate(241.398 82.297)" fill="#220136"/>
            <path id="Trazado_656691" data-name="Trazado 656691" d="M579.792,207.183A24.082,24.082,0,1,1,555.709,183.1,24.083,24.083,0,0,1,579.792,207.183Z" transform="translate(242.687 83.585)" fill="none" stroke="#fff" stroke-miterlimit="10" stroke-width="0.75"/>
            <line id="Línea_192" data-name="Línea 192" y1="16.365" transform="translate(111.707 449.292)" fill="none" stroke="#c2c2c2" stroke-linecap="round" stroke-linejoin="round" stroke-width="1"/>
            <path id="Trazado_656692" data-name="Trazado 656692" d="M80.576,309.4a2.954,2.954,0,1,1-2.954-2.954,2.954,2.954,0,0,1,2.954,2.954" transform="translate(34.085 139.893)" fill="#c2c2c2"/>
            <line id="Línea_193" data-name="Línea 193" y1="16.365" transform="translate(360.976 525.799)" fill="none" stroke="#c2c2c2" stroke-linecap="round" stroke-linejoin="round" stroke-width="1"/>
            <path id="Trazado_656693" data-name="Trazado 656693" d="M251.719,361.928a2.955,2.955,0,1,1-2.954-2.955,2.954,2.954,0,0,1,2.954,2.955" transform="translate(112.211 163.87)" fill="#c2c2c2"/>
            <line id="Línea_194" data-name="Línea 194" y1="16.365" transform="translate(610.245 449.292)" fill="none" stroke="#c2c2c2" stroke-linecap="round" stroke-linejoin="round" stroke-width="1"/>
            <path id="Trazado_656694" data-name="Trazado 656694" d="M422.861,309.4a2.955,2.955,0,1,1-2.954-2.954,2.954,2.954,0,0,1,2.954,2.954" transform="translate(190.337 139.893)" fill="#c2c2c2"/>
            <line id="Línea_195" data-name="Línea 195" y1="16.365" transform="translate(859.514 525.799)" fill="none" stroke="#c2c2c2" stroke-linecap="round" stroke-linejoin="round" stroke-width="1"/>
            <path id="Trazado_656695" data-name="Trazado 656695" d="M594,361.928a2.955,2.955,0,1,1-2.955-2.955A2.954,2.954,0,0,1,594,361.928" transform="translate(268.464 163.87)" fill="#c2c2c2"/>
            <path id="Trazado_656696" data-name="Trazado 656696" d="M628.729,103.507l30.779,10.23a3.829,3.829,0,0,1,1.334,6.495L636.593,141.77a3.827,3.827,0,0,1-6.291-2.092l-6.529-31.771a3.827,3.827,0,0,1,4.956-4.4" transform="translate(284.713 47.159)" fill="#efefef"/>
            <path id="Trazado_656697" data-name="Trazado 656697" d="M505.763,390.207,540,427.437a3.828,3.828,0,0,1-1.982,6.326L488.661,444.8a3.826,3.826,0,0,1-4.488-4.878l15.12-48.268a3.828,3.828,0,0,1,6.47-1.446" transform="translate(220.942 177.563)" fill="#efefef"/>
            <path id="Trazado_656698" data-name="Trazado 656698" d="M48.179,423.919,45.03,460.051a3.828,3.828,0,0,1-6.007,2.8L9.306,442.061a3.827,3.827,0,0,1,.575-6.6l32.866-15.338a3.827,3.827,0,0,1,5.431,3.8" transform="translate(3.502 191.616)" fill="#efefef"/>
            <path id="Trazado_656699" data-name="Trazado 656699" d="M202.022,120.335l-35.233,8.608a3.827,3.827,0,0,1-4.582-4.79l10.16-34.816a3.828,3.828,0,0,1,6.441-1.573l25.071,26.208a3.827,3.827,0,0,1-1.857,6.363" transform="translate(73.975 39.523)" fill="#efefef"/>
            <path id="Trazado_656700" data-name="Trazado 656700" d="M350.689,334.958l-11.9,12.019a3.828,3.828,0,0,1-6.413-1.684l-4.458-16.314a3.826,3.826,0,0,1,4.664-4.71l16.358,4.3a3.827,3.827,0,0,1,1.748,6.394" transform="translate(149.631 147.969)" fill="#efefef"/>
            <path id="Trazado_656701" data-name="Trazado 656701" d="M384.87,25.26l-27.06,11.1a3.827,3.827,0,0,1-5.245-4.053l3.921-28.984A3.827,3.827,0,0,1,362.62.8l23.139,17.887a3.826,3.826,0,0,1-.888,6.569" transform="translate(160.929)" fill="#efefef"/>
            <path id="Trazado_656702" data-name="Trazado 656702" d="M126.485,15.91,96.823,19.569a3.265,3.265,0,0,0-2.25,2.25L91.3,48.338l-26.52,3.271a3.261,3.261,0,0,0-2.249,2.249l-3.271,26.52-26.52,3.271A3.261,3.261,0,0,0,30.494,85.9L26.835,115.56c-.111.89,1,.753,2-.246l1.851-1.853a9.231,9.231,0,0,0,2.792-4.754l2.176-17.644a3.27,3.27,0,0,1,2.25-2.25l17.644-2.176a9.231,9.231,0,0,0,4.754-2.792l.572-.571,1.28-1.28.571-.572a9.231,9.231,0,0,0,2.792-4.754L67.7,59.023a3.27,3.27,0,0,1,2.25-2.25L87.592,54.6a9.237,9.237,0,0,0,4.754-2.791l.572-.572,1.279-1.28.572-.572a9.235,9.235,0,0,0,2.792-4.754l2.176-17.644a3.267,3.267,0,0,1,2.25-2.25l17.644-2.176a9.237,9.237,0,0,0,4.754-2.791l1.851-1.853c1-1,1.138-2.113.248-2" transform="translate(12.247 7.26)" fill="#efefef"/>
            <path id="Trazado_656703" data-name="Trazado 656703" d="M730.72,292.694l-24.5,1a2.172,2.172,0,0,0-1.723,1.722l-.9,21.906-21.906.9a2.172,2.172,0,0,0-1.723,1.723l-.9,21.906-21.906.9a2.165,2.165,0,0,0-1.721,1.722l-1,24.5c-.031.736.888.7,1.655-.067l1.417-1.419a6.276,6.276,0,0,0,2-3.775l.6-14.574a2.167,2.167,0,0,1,1.722-1.722l14.575-.6a6.276,6.276,0,0,0,3.774-2l.438-.438.98-.979.437-.438a6.275,6.275,0,0,0,2-3.775l.6-14.574a2.172,2.172,0,0,1,1.723-1.723l14.574-.6a6.273,6.273,0,0,0,3.775-2l.437-.438.98-.98.438-.437a6.276,6.276,0,0,0,2-3.775l.6-14.575a2.169,2.169,0,0,1,1.722-1.722l14.574-.6a6.276,6.276,0,0,0,3.775-2l1.417-1.417c.766-.766.8-1.685.068-1.655" transform="translate(298.751 133.613)" fill="#efefef"/>
            <path id="Trazado_656704" data-name="Trazado 656704" d="M328.1,126.474l-23.563.4a1.964,1.964,0,0,0-1.62,1.618l-.36,21.068-21.067.36a1.959,1.959,0,0,0-1.618,1.618l-.36,21.068-21.068.36a1.959,1.959,0,0,0-1.618,1.618l-.4,23.563c-.013.708.871.692,1.591-.026l1.333-1.333a5.722,5.722,0,0,0,1.84-3.589l.239-14.016a1.961,1.961,0,0,1,1.618-1.618l14.017-.24a5.7,5.7,0,0,0,3.587-1.84l.412-.411.921-.92.411-.412a5.711,5.711,0,0,0,1.841-3.587l.239-14.017a1.961,1.961,0,0,1,1.618-1.618l14.016-.239a5.723,5.723,0,0,0,3.589-1.84l.411-.412.922-.92.411-.411a5.715,5.715,0,0,0,1.84-3.589l.239-14.016a1.964,1.964,0,0,1,1.62-1.62l14.016-.239a5.715,5.715,0,0,0,3.589-1.84l1.331-1.333c.72-.718.736-1.6.028-1.59" transform="translate(117.058 57.735)" fill="#efefef"/>
            <path id="Trazado_656705" data-name="Trazado 656705" d="M449.829,421.113l-25.12-1.155a1.778,1.778,0,0,0-1.62,1.618l1.033,22.461L401.663,443a1.774,1.774,0,0,0-1.618,1.618l1.031,22.459-22.459-1.031A1.774,1.774,0,0,0,377,467.669l1.155,25.12c.033.755.977.8,1.7.079l1.333-1.333a5.29,5.29,0,0,0,1.722-3.705l-.686-14.942a1.773,1.773,0,0,1,1.618-1.618l14.942.686a5.294,5.294,0,0,0,3.705-1.722l.412-.412.921-.921.412-.412a5.293,5.293,0,0,0,1.722-3.705l-.686-14.942a1.773,1.773,0,0,1,1.618-1.618l14.942.686a5.287,5.287,0,0,0,3.705-1.722l.412-.412.92-.921.411-.411A5.294,5.294,0,0,0,429,441.739l-.687-14.944a1.775,1.775,0,0,1,1.618-1.618l14.944.687a5.294,5.294,0,0,0,3.705-1.723l1.333-1.331c.718-.72.676-1.662-.079-1.7" transform="translate(172.098 191.709)" fill="#efefef"/>
            <path id="Trazado_656706" data-name="Trazado 656706" d="M643.245,66.851l-34.813,1.535a3.111,3.111,0,0,0-2.454,2.454l-1.372,31.125-31.125,1.372a3.11,3.11,0,0,0-2.454,2.454l-1.372,31.125-31.125,1.372a3.11,3.11,0,0,0-2.454,2.454l-1.535,34.813c-.047,1.044,1.26.988,2.351-.1l2.02-2.02a8.991,8.991,0,0,0,2.861-5.372l.912-20.708a3.108,3.108,0,0,1,2.456-2.454l20.707-.913a8.976,8.976,0,0,0,5.372-2.861l.625-.623,1.4-1.4.623-.623a8.99,8.99,0,0,0,2.861-5.373l.913-20.707a3.1,3.1,0,0,1,2.454-2.454l20.707-.913a8.991,8.991,0,0,0,5.373-2.861l.623-.623,1.4-1.4.623-.623a8.984,8.984,0,0,0,2.86-5.373l.913-20.707A3.1,3.1,0,0,1,615.042,75l20.708-.913a8.992,8.992,0,0,0,5.372-2.861l2.02-2.02c1.091-1.091,1.148-2.4.1-2.351" transform="translate(244.015 30.517)" fill="#efefef"/>
            <path id="Trazado_656707" data-name="Trazado 656707" d="M200.107,384.206l-30.429,1.531a2.761,2.761,0,0,0-2.157,2.159l-1.369,27.2-27.206,1.369a2.761,2.761,0,0,0-2.157,2.159l-1.369,27.206L108.214,447.2a2.764,2.764,0,0,0-2.159,2.159l-1.531,30.429c-.045.913,1.1.855,2.055-.1l1.777-1.777a7.961,7.961,0,0,0,2.527-4.709l.912-18.1a2.757,2.757,0,0,1,2.157-2.157l18.1-.912a7.961,7.961,0,0,0,4.709-2.527l.549-.549,1.228-1.228.549-.549a7.961,7.961,0,0,0,2.527-4.709l.912-18.1a2.759,2.759,0,0,1,2.157-2.157l18.1-.912a7.964,7.964,0,0,0,4.709-2.529l.549-.548,1.228-1.228.549-.549a7.975,7.975,0,0,0,2.529-4.71l.91-18.1a2.759,2.759,0,0,1,2.159-2.157l18.1-.912a7.964,7.964,0,0,0,4.709-2.529L200,386.262c.96-.96,1.017-2.1.1-2.055" transform="translate(47.714 175.389)" fill="#efefef"/>
            <rect id="Rectángulo_350365" data-name="Rectángulo 350365" width="1030" height="685.091" fill="none"/>
          </g>
        </g>
      </g>
      <text id="Procedimiento_para_definición_de_requerimientos" data-name="Procedimiento para definición de requerimientos" transform="translate(590 2230)" fill="#fff" font-size="18" font-family="Roboto-Black, Roboto" font-weight="800"><tspan x="-198.795" y="17">Procedimiento para definición de requerimientos</tspan></text>
      <text id="Elaborar_la_lista_de_métricas" data-name="Elaborar la lista de métricas" transform="translate(291 2651)" fill="#12263f" font-size="18" font-family="Roboto-Medium, Roboto" font-weight="500"><tspan x="-74.417" y="17">Elaborar la lista de </tspan><tspan x="-35.341" y="42">métricas</tspan></text>
      <text id="_01" data-name="01" transform="translate(316 2537)" fill="#fff" font-size="20" font-family="Roboto-Black, Roboto" font-weight="800"><tspan x="-11.582" y="19">01</tspan></text>
      <text id="_02" data-name="02" transform="translate(567 2452)" fill="#fff" font-size="20" font-family="Roboto-Black, Roboto" font-weight="800"><tspan x="-11.582" y="19">02</tspan></text>
      <text id="_03" data-name="03" transform="translate(814 2535)" fill="#fff" font-size="20" font-family="Roboto-Black, Roboto" font-weight="800"><tspan x="-11.582" y="19">03</tspan></text>
      <text id="_04" data-name="04" transform="translate(1065 2452)" fill="#fff" font-size="20" font-family="Roboto-Black, Roboto" font-weight="800"><tspan x="-11.582" y="19">04</tspan></text>
      <text id="Recabar_información_de_comparaciones_con_la_competencia" data-name="Recabar información de comparaciones con la competencia" transform="translate(551 2729)" fill="#12263f" font-size="18" font-family="Roboto-Medium, Roboto" font-weight="500"><tspan x="-83.988" y="17">Recabar información </tspan><tspan x="-91.349" y="42">de comparaciones con </tspan><tspan x="-61.677" y="67">la competencia</tspan></text>
      <text id="Establecer_valores_meta_ideales_y_marginalmente_aceptables" data-name="Establecer valores meta ideales y marginalmente aceptables" transform="translate(790 2652)" fill="#12263f" font-size="18" font-family="Roboto-Medium, Roboto" font-weight="500"><tspan x="-96.732" y="17">Establecer valores meta </tspan><tspan x="-98.556" y="42">ideales y marginalmente </tspan><tspan x="-44.178" y="67">aceptables</tspan></text>
      <text id="Reflexionar_en_los_resultados_y_el_proceso" data-name="Reflexionar en los resultados y el proceso" transform="translate(1049 2728)" fill="#12263f" font-size="18" font-family="Roboto-Medium, Roboto" font-weight="500"><tspan x="-71.974" y="17">Reflexionar en los </tspan><tspan x="-93.305" y="42">resultados y el proceso</tspan></text>
      <g id="archivos" transform="translate(295.338 2405)">
        <g id="Grupo_949349" data-name="Grupo 949349" transform="translate(64)">
          <g id="Grupo_949348" data-name="Grupo 949348" transform="translate(0)">
            <path id="Trazado_656708" data-name="Trazado 656708" d="M139.308,18.831a1.712,1.712,0,0,0-.486-1.21L121.7.5a1.69,1.69,0,0,0-1.21-.486V0H69.136A5.136,5.136,0,0,0,64,5.136V97.578a5.136,5.136,0,0,0,5.136,5.136h65.052a5.136,5.136,0,0,0,5.136-5.136V18.831ZM122.2,5.844l11.275,11.275h-9.563a1.712,1.712,0,0,1-1.712-1.712Zm13.7,91.734a1.712,1.712,0,0,1-1.712,1.712H69.136a1.712,1.712,0,0,1-1.712-1.712V5.136a1.712,1.712,0,0,1,1.712-1.712h49.645V15.407a5.136,5.136,0,0,0,5.136,5.136H135.9Z" transform="translate(-64)"/>
          </g>
        </g>
        <g id="Grupo_949351" data-name="Grupo 949351" transform="translate(75.983 46.221)">
          <g id="Grupo_949350" data-name="Grupo 949350" transform="translate(0)">
            <path id="Trazado_656709" data-name="Trazado 656709" d="M125.136,216a5.136,5.136,0,1,0,5.136,5.136A5.136,5.136,0,0,0,125.136,216Zm0,6.848a1.712,1.712,0,1,1,1.712-1.712A1.712,1.712,0,0,1,125.136,222.848Z" transform="translate(-120 -216)"/>
          </g>
        </g>
        <g id="Grupo_949353" data-name="Grupo 949353" transform="translate(93.102 49.645)">
          <g id="Grupo_949352" data-name="Grupo 949352">
            <rect id="Rectángulo_350366" data-name="Rectángulo 350366" width="34" height="3" transform="translate(-0.102 0.354)"/>
          </g>
        </g>
        <g id="Grupo_949355" data-name="Grupo 949355" transform="translate(75.983 29.102)">
          <g id="Grupo_949354" data-name="Grupo 949354" transform="translate(0)">
            <path id="Trazado_656710" data-name="Trazado 656710" d="M125.136,136a5.136,5.136,0,1,0,5.136,5.136A5.136,5.136,0,0,0,125.136,136Zm0,6.848a1.712,1.712,0,1,1,1.712-1.712A1.712,1.712,0,0,1,125.136,142.848Z" transform="translate(-120 -136)"/>
          </g>
        </g>
        <g id="Grupo_949357" data-name="Grupo 949357" transform="translate(93.102 32.526)">
          <g id="Grupo_949356" data-name="Grupo 949356">
            <rect id="Rectángulo_350367" data-name="Rectángulo 350367" width="34" height="3" transform="translate(-0.102 0.474)"/>
          </g>
        </g>
        <g id="Grupo_949359" data-name="Grupo 949359" transform="translate(75.983 63.34)">
          <g id="Grupo_949358" data-name="Grupo 949358" transform="translate(0)">
            <path id="Trazado_656711" data-name="Trazado 656711" d="M125.136,296a5.136,5.136,0,1,0,5.136,5.136A5.136,5.136,0,0,0,125.136,296Zm0,6.848a1.712,1.712,0,1,1,1.712-1.712A1.712,1.712,0,0,1,125.136,302.848Z" transform="translate(-120 -296)"/>
          </g>
        </g>
        <g id="Grupo_949361" data-name="Grupo 949361" transform="translate(93.102 66.764)">
          <g id="Grupo_949360" data-name="Grupo 949360">
            <rect id="Rectángulo_350368" data-name="Rectángulo 350368" width="34" height="3" transform="translate(-0.102 0.236)"/>
          </g>
        </g>
        <g id="Grupo_949363" data-name="Grupo 949363" transform="translate(75.983 80.459)">
          <g id="Grupo_949362" data-name="Grupo 949362" transform="translate(0)">
            <path id="Trazado_656712" data-name="Trazado 656712" d="M125.136,376a5.136,5.136,0,1,0,5.136,5.136A5.136,5.136,0,0,0,125.136,376Zm0,6.848a1.712,1.712,0,1,1,1.712-1.712A1.712,1.712,0,0,1,125.136,382.848Z" transform="translate(-120 -376)"/>
          </g>
        </g>
        <g id="Grupo_949365" data-name="Grupo 949365" transform="translate(93.102 83.883)">
          <g id="Grupo_949364" data-name="Grupo 949364">
            <rect id="Rectángulo_350369" data-name="Rectángulo 350369" width="34" height="3" transform="translate(-0.102 0.117)"/>
          </g>
        </g>
      </g>
      <g id="archivo" transform="translate(1112.5 2486.77)">
        <path id="Trazado_656713" data-name="Trazado 656713" d="M239.083,222a16.579,16.579,0,1,0,16.579,16.579A16.6,16.6,0,0,0,239.083,222Zm0,29.39a12.811,12.811,0,1,1,12.811-12.811A12.825,12.825,0,0,1,239.083,251.39Zm0,0" transform="translate(-180.179 -180.176)"/>
        <path id="Trazado_656714" data-name="Trazado 656714" d="M95.088,85.554,80.137,70.6A24.451,24.451,0,0,0,76.608,41.5V20.345h0a1.88,1.88,0,0,0-.547-1.332L57.6.552A1.879,1.879,0,0,0,56.263.005a.013.013,0,0,1,0-.005H6.152A5.658,5.658,0,0,0,.5,5.652V90.808A5.658,5.658,0,0,0,6.152,96.46h64.8a5.659,5.659,0,0,0,5.652-5.652V85.143l9.446,9.446a6.388,6.388,0,1,0,9.034-9.035ZM58.9,79.127A20.724,20.724,0,1,1,79.628,58.4,20.748,20.748,0,0,1,58.9,79.127ZM58.148,6.433,70.176,18.462H60.032a1.886,1.886,0,0,1-1.884-1.884ZM72.841,90.808a1.886,1.886,0,0,1-1.884,1.884H6.152a1.886,1.886,0,0,1-1.884-1.884V5.652A1.886,1.886,0,0,1,6.152,3.768H54.38V16.577a5.658,5.658,0,0,0,5.652,5.652H72.84V38.275A24.486,24.486,0,0,0,35.608,65.964H12.586a1.884,1.884,0,1,0,0,3.768H36.644a1.868,1.868,0,0,0,.512-.073A24.475,24.475,0,0,0,71.1,79.636l1.739,1.739Zm19.584,1.116a2.622,2.622,0,0,1-3.705,0L74.262,77.467a24.7,24.7,0,0,0,3.705-3.705L92.424,88.218A2.623,2.623,0,0,1,92.424,91.924Zm0,0"/>
        <path id="Trazado_656715" data-name="Trazado 656715" d="M302.388,265a1.884,1.884,0,0,0,0,3.768,4.715,4.715,0,0,1,4.709,4.709,1.884,1.884,0,0,0,3.768,0A8.486,8.486,0,0,0,302.388,265Zm0,0" transform="translate(-243.484 -215.078)"/>
        <path id="Trazado_656716" data-name="Trazado 656716" d="M73.491,280.793H56.536a1.884,1.884,0,0,0,0,3.768H73.491a1.884,1.884,0,1,0,0-3.768Zm0,0" transform="translate(-43.95 -227.892)"/>
        <path id="Trazado_656717" data-name="Trazado 656717" d="M74.608,211.461H56.536a1.884,1.884,0,1,0,0,3.768H74.608a1.884,1.884,0,1,0,0-3.768Zm0,0" transform="translate(-43.95 -171.622)"/>
        <path id="Trazado_656718" data-name="Trazado 656718" d="M182.384,419.461a1.882,1.882,0,1,0,1.334.552A1.895,1.895,0,0,0,182.384,419.461Zm0,0" transform="translate(-146.088 -340.435)"/>
        <path id="Trazado_656719" data-name="Trazado 656719" d="M72.508,419.461H56.536a1.884,1.884,0,0,0,0,3.768H72.508a1.884,1.884,0,0,0,0-3.768Zm0,0" transform="translate(-43.95 -340.435)"/>
        <path id="Trazado_656720" data-name="Trazado 656720" d="M56.532,145.9a1.884,1.884,0,1,0-1.332-.552A1.9,1.9,0,0,0,56.532,145.9Zm0,0" transform="translate(-43.947 -115.352)"/>
        <path id="Trazado_656721" data-name="Trazado 656721" d="M127.081,142.129H98.923a1.884,1.884,0,1,0,0,3.768h28.158a1.884,1.884,0,1,0,0-3.768Zm0,0" transform="translate(-78.351 -115.352)"/>
        <path id="Trazado_656722" data-name="Trazado 656722" d="M56.536,76.561H92.68a1.884,1.884,0,0,0,0-3.768H56.536a1.884,1.884,0,1,0,0,3.768Zm0,0" transform="translate(-43.95 -59.079)"/>
      </g>
      <g id="comparar" transform="translate(599 2483)">
        <path id="Trazado_656727" data-name="Trazado 656727" d="M35.458,8.274,26.366,1V4.637H10V11.91H26.366v3.637Z" transform="translate(4.91)"/>
        <path id="Trazado_656728" data-name="Trazado 656728" d="M40,21.274l9.092,7.274V24.91H65.458V17.637H49.092V14Z" transform="translate(29.463 10.639)"/>
        <path id="Trazado_656729" data-name="Trazado 656729" d="M82.734,26H42.729a1.818,1.818,0,0,0-1.291.527l-10.91,10.91A1.818,1.818,0,0,0,30,38.729V91.463a1.818,1.818,0,0,0,1.818,1.818H82.734a1.818,1.818,0,0,0,1.818-1.818V27.818A1.818,1.818,0,0,0,82.734,26ZM80.916,89.644H33.637v-49.1h9.092a1.818,1.818,0,0,0,1.818-1.818V29.637H80.916Z" transform="translate(21.279 20.46)"/>
        <path id="Trazado_656730" data-name="Trazado 656730" d="M38,36H63.458V50.547H38Z" transform="translate(27.826 28.644)"/>
        <path id="Trazado_656731" data-name="Trazado 656731" d="M43,49H61.184v3.637H43Z" transform="translate(31.918 39.284)"/>
        <path id="Trazado_656732" data-name="Trazado 656732" d="M37,49h7.274v3.637H37Z" transform="translate(27.008 39.284)"/>
        <path id="Trazado_656733" data-name="Trazado 656733" d="M37,54H66.095v3.637H37Z" transform="translate(27.008 43.376)"/>
        <path id="Trazado_656734" data-name="Trazado 656734" d="M12,23H35.639V37.547H12Z" transform="translate(6.547 18.005)"/>
        <path id="Trazado_656735" data-name="Trazado 656735" d="M17,36H33.366v3.637H17Z" transform="translate(10.639 28.644)"/>
        <path id="Trazado_656736" data-name="Trazado 656736" d="M11,36h7.274v3.637H11Z" transform="translate(5.729 28.644)"/>
        <path id="Trazado_656737" data-name="Trazado 656737" d="M11,41H38.276v3.637H11Z" transform="translate(5.729 32.736)"/>
        <path id="Trazado_656738" data-name="Trazado 656738" d="M7.637,27.547h9.092a1.818,1.818,0,0,0,1.818-1.818V16.637H54.916v20h3.637V14.818A1.818,1.818,0,0,0,56.734,13H16.729a1.818,1.818,0,0,0-1.291.527L4.527,24.438A1.818,1.818,0,0,0,4,25.729V78.463a1.818,1.818,0,0,0,1.818,1.818H47.642V76.644H7.637Z" transform="translate(0 9.821)"/>
      </g>
      <path id="objetivo" d="M117.614,15.26a1.839,1.839,0,0,0-1.3-1.3l-7.883-2.114,1.762-1.762a1.839,1.839,0,1,0-2.6-2.6l-1.76,1.76-2.108-7.88a1.839,1.839,0,0,0-3.077-.825l-15.18,15.18a1.839,1.839,0,0,0-.476,1.776l2.662,9.928L49.062,66.015a1.839,1.839,0,0,0,2.6,2.6l3.524-3.524a5.309,5.309,0,1,1-5.328-3.066,1.839,1.839,0,1,0-.348-3.661,8.985,8.985,0,1,0,8.378,4.025l7.222-7.223a19.081,19.081,0,1,1-5.271-4.446,1.839,1.839,0,0,0,1.827-3.192,22.794,22.794,0,1,0,6.055,5.027l7.166-7.165a32.836,32.836,0,1,1-5.25-4.737,1.839,1.839,0,0,0,2.155-2.98,36.6,36.6,0,1,0,5.7,5.112l7.157-7.157a46.7,46.7,0,1,1-5.241-4.863A1.839,1.839,0,1,0,81.7,27.887,50.365,50.365,0,0,0,14.752,31.7a50.364,50.364,0,1,0,85.979,35.613,50.008,50.008,0,0,0-13.48-34.289l3-3,9.931,2.664a1.839,1.839,0,0,0,1.777-.476l15.18-15.18a1.839,1.839,0,0,0,.476-1.776ZM88.819,17.568,101,5.392l1.834,6.855L90.657,24.42Zm11.29,11.3-6.856-1.84,12.177-12.177,6.857,1.839Z" transform="translate(839.323 2399.985)"/>
    </g>
  </g>
</svg>
