<svg xmlns="http://www.w3.org/2000/svg" xmlns:xlink="http://www.w3.org/1999/xlink" width="88" height="88" viewBox="0 0 88 88">
  <defs>
    <filter id="Elipse_7907" x="0" y="0" width="88" height="88" filterUnits="userSpaceOnUse">
      <feOffset dy="3" input="SourceAlpha"/>
      <feGaussianBlur stdDeviation="3" result="blur"/>
      <feFlood flood-opacity="0.161"/>
      <feComposite operator="in" in2="blur"/>
      <feComposite in="SourceGraphic"/>
    </filter>
  </defs>
  <g id="Grupo_952667" data-name="Grupo 952667" transform="translate(-1165.715 -2811.1)">
    <g transform="matrix(1, 0, 0, 1, 1165.71, 2811.1)" filter="url(#Elipse_7907)">
      <circle id="Elipse_7907-2" data-name="Elipse 7907" cx="35" cy="35" r="35" transform="translate(9 6)" fill="#00cca7"/>
    </g>
    <g id="temperatura" transform="translate(1151.179 2817.1)">
      <g id="Grupo_950264" data-name="Grupo 950264" transform="translate(52.464)">
        <g id="Grupo_950263" data-name="Grupo 950263" transform="translate(0)">
          <g id="Grupo_950262" data-name="Grupo 950262">
            <g id="Grupo_950258" data-name="Grupo 950258" transform="translate(29.25 8.357)">
              <path id="Trazado_657372" data-name="Trazado 657372" d="M432.268,64.179h-4.179a2.089,2.089,0,1,1,0-4.179h4.179a2.089,2.089,0,1,1,0,4.179Z" transform="translate(-426 -60)" fill="#453d81"/>
              <path id="Trazado_657373" data-name="Trazado 657373" d="M430.179,124.179h-2.089a2.089,2.089,0,1,1,0-4.179h2.089a2.089,2.089,0,1,1,0,4.179Z" transform="translate(-426 -111.643)" fill="#453d81"/>
              <path id="Trazado_657374" data-name="Trazado 657374" d="M432.268,184.179h-4.179a2.089,2.089,0,1,1,0-4.179h4.179a2.089,2.089,0,1,1,0,4.179Z" transform="translate(-426 -163.286)" fill="#453d81"/>
              <path id="Trazado_657375" data-name="Trazado 657375" d="M430.179,244.179h-2.089a2.089,2.089,0,1,1,0-4.179h2.089a2.089,2.089,0,1,1,0,4.179Z" transform="translate(-426 -214.929)" fill="#453d81"/>
              <path id="Trazado_657376" data-name="Trazado 657376" d="M432.268,304.179h-4.179a2.089,2.089,0,0,1,0-4.179h4.179a2.089,2.089,0,0,1,0,4.179Z" transform="translate(-426 -266.571)" fill="#453d81"/>
            </g>
            <g id="Grupo_950261" data-name="Grupo 950261">
              <path id="Trazado_657377" data-name="Trazado 657377" d="M216,56.689A14.625,14.625,0,1,0,239.679,45.2V9.054a9.054,9.054,0,1,0-18.107,0V45.2A14.6,14.6,0,0,0,216,56.689Z" transform="translate(-216)" fill="#e2dff4"/>
              <path id="Trazado_657378" data-name="Trazado 657378" d="M335.625,56.689A14.6,14.6,0,0,0,330.054,45.2V9.054A9.054,9.054,0,0,0,321,0V71.314A14.625,14.625,0,0,0,335.625,56.689Z" transform="translate(-306.375)" fill="#bebcdd"/>
              <path id="Trazado_657379" data-name="Trazado 657379" d="M256.446,92.957A10.447,10.447,0,0,1,249.982,74.3l1.59-1.255V34.875a4.875,4.875,0,1,1,9.75,0V73.05l1.59,1.255a10.447,10.447,0,0,1-6.465,18.653Z" transform="translate(-241.821 -25.821)" fill="#f9f9f9"/>
              <path id="Trazado_657380" data-name="Trazado 657380" d="M321,92.957A10.447,10.447,0,0,0,327.465,74.3l-1.59-1.255V34.875A4.881,4.881,0,0,0,321,30Z" transform="translate(-306.375 -25.821)" fill="#e2dff4"/>
              <g id="Grupo_950260" data-name="Grupo 950260" transform="translate(8.357 25.071)">
                <path id="Trazado_657381" data-name="Trazado 657381" d="M284.357,205.709v-23.62a2.089,2.089,0,0,0-4.179,0v23.62a6.268,6.268,0,1,0,4.179,0Z" transform="translate(-276 -180)" fill="#ff7d47"/>
                <g id="Grupo_950259" data-name="Grupo 950259" transform="translate(6.268)">
                  <path id="Trazado_657382" data-name="Trazado 657382" d="M323.089,205.709v-23.62A2.089,2.089,0,0,0,321,180v37.886a6.267,6.267,0,0,0,2.089-12.176Z" transform="translate(-321 -180)" fill="#ff405c"/>
                </g>
              </g>
            </g>
          </g>
        </g>
      </g>
      <g id="Grupo_950265" data-name="Grupo 950265" transform="translate(26 8.357)">
        <path id="Trazado_657383" data-name="Trazado 657383" d="M35.75,87.16V67.133l2,2a2.089,2.089,0,1,0,2.955-2.955l-5.571-5.571a2.089,2.089,0,0,0-2.955,0l-5.571,5.571a2.089,2.089,0,0,0,2.955,2.955l2-2V87.16a2.089,2.089,0,1,0,4.179,0Z" transform="translate(-26 -60)" fill="#ff7d47"/>
        <path id="Trazado_657384" data-name="Trazado 657384" d="M100.71,200.112a2.089,2.089,0,0,0-2.955,0l-2,2V182.089a2.089,2.089,0,0,0-4.179,0v20.028l-2-2a2.089,2.089,0,0,0-2.955,2.955l5.571,5.571a2.089,2.089,0,0,0,2.955,0l5.571-5.571A2.09,2.09,0,0,0,100.71,200.112Z" transform="translate(-77.643 -163.286)" fill="#8bb9ff"/>
      </g>
      <path id="Trazado_657385" data-name="Trazado 657385" d="M88.049,66.183l-5.571-5.571A2.082,2.082,0,0,0,81,60V89.25a2.089,2.089,0,0,0,2.089-2.089V67.133l2,2a2.089,2.089,0,0,0,2.955-2.955Z" transform="translate(-47.34 -51.643)" fill="#ff405c"/>
      <path id="Trazado_657386" data-name="Trazado 657386" d="M148.049,203.067l-5.571,5.571a2.082,2.082,0,0,1-1.477.612V180a2.089,2.089,0,0,1,2.089,2.089v20.028l2-2a2.089,2.089,0,0,1,2.955,2.955Z" transform="translate(-98.983 -154.929)" fill="#7d81e7"/>
    </g>
  </g>
</svg>
