<svg xmlns="http://www.w3.org/2000/svg" xmlns:xlink="http://www.w3.org/1999/xlink" width="88" height="88" viewBox="0 0 88 88">
  <defs>
    <filter id="Elipse_7908" x="0" y="0" width="88" height="88" filterUnits="userSpaceOnUse">
      <feOffset dy="3" input="SourceAlpha"/>
      <feGaussianBlur stdDeviation="3" result="blur"/>
      <feFlood flood-opacity="0.161"/>
      <feComposite operator="in" in2="blur"/>
      <feComposite in="SourceGraphic"/>
    </filter>
  </defs>
  <g id="Grupo_952668" data-name="Grupo 952668" transform="translate(-2337 8984.994)">
    <g transform="matrix(1, 0, 0, 1, 2337, -8984.99)" filter="url(#Elipse_7908)">
      <circle id="Elipse_7908-2" data-name="Elipse 7908" cx="35" cy="35" r="35" transform="translate(9 6)" fill="#00cca7"/>
    </g>
    <g id="_01_High_Voltage" data-name="01 High Voltage" transform="translate(2347.11 -8974.473)">
      <path id="Trazado_657387" data-name="Trazado 657387" d="M52.66,39.131a1.077,1.077,0,0,0-.957-.582H40.619l8.792-15.631a1.077,1.077,0,0,0-.939-1.605H39.489L48.347,4.581A1.077,1.077,0,0,0,47.394,3H22.618a1.077,1.077,0,0,0-1.034.776L14.043,29.629a1.077,1.077,0,0,0,1.034,1.379H28.694l-4.95,15.835a1.077,1.077,0,0,0,1.029,1.4h12.45L34.8,54.708H32.313a1.077,1.077,0,0,0-1.069,1.211l1.077,8.618a1.077,1.077,0,0,0,1.6.8l7.541-4.309a1.077,1.077,0,0,0,.227-1.7l-1.508-1.508,12.4-17.576A1.077,1.077,0,0,0,52.66,39.131Z" transform="translate(0)" fill="#ffdb2d"/>
      <path id="Trazado_657388" data-name="Trazado 657388" d="M52.66,39.131a1.077,1.077,0,0,0-.957-.582H40.619l8.792-15.631a1.077,1.077,0,0,0-.939-1.605H39.489L48.347,4.581A1.077,1.077,0,0,0,47.394,3H22.618a1.077,1.077,0,0,0-1.034.776L14.043,29.629a1.077,1.077,0,0,0,1.034,1.379H28.694l-4.95,15.835a1.077,1.077,0,0,0,1.029,1.4h12.45L34.8,54.708H32.313a1.077,1.077,0,0,0-1.069,1.211l1.077,8.618a1.077,1.077,0,0,0,1.6.8l7.541-4.309a1.077,1.077,0,0,0,.227-1.7l-1.508-1.508,12.4-17.576A1.077,1.077,0,0,0,52.66,39.131ZM37.9,57.318A1.077,1.077,0,0,0,38.02,58.7l1.157,1.157-4.913,2.808-.73-5.8h2.011a1.077,1.077,0,0,0,1.009-.7l3.232-8.618a1.077,1.077,0,0,0-1.009-1.455H26.237l4.95-15.835a1.077,1.077,0,0,0-1.029-1.4H16.513l6.913-23.7H45.605L36.747,21.886a1.077,1.077,0,0,0,.952,1.581h8.93L37.837,39.1a1.077,1.077,0,0,0,.939,1.605H49.624Z" transform="translate(0)"/>
    </g>
  </g>
</svg>
