<svg xmlns="http://www.w3.org/2000/svg" xmlns:xlink="http://www.w3.org/1999/xlink" width="88" height="88" viewBox="0 0 88 88">
  <defs>
    <filter id="Elipse_7917" x="0" y="0" width="88" height="88" filterUnits="userSpaceOnUse">
      <feOffset dy="3" input="SourceAlpha"/>
      <feGaussianBlur stdDeviation="3" result="blur"/>
      <feFlood flood-opacity="0.161"/>
      <feComposite operator="in" in2="blur"/>
      <feComposite in="SourceGraphic"/>
    </filter>
  </defs>
  <g id="Grupo_952671" data-name="Grupo 952671" transform="translate(-2293 8543.152)">
    <g transform="matrix(1, 0, 0, 1, 2293, -8543.15)" filter="url(#Elipse_7917)">
      <circle id="Elipse_7917-2" data-name="Elipse 7917" cx="35" cy="35" r="35" transform="translate(9 6)" fill="#00cca7"/>
    </g>
    <g id="cable" transform="translate(2302 -8527.162)">
      <path id="Trazado_657431" data-name="Trazado 657431" d="M247.04,33.742l4.785,8.288a2.051,2.051,0,0,1-.751,2.8l-13.024,7.52a2.051,2.051,0,0,1-2.8-.751l-4.785-8.288a2.051,2.051,0,0,1,.751-2.8l13.024-7.52A2.051,2.051,0,0,1,247.04,33.742Zm19.627,25.143H251.627a2.051,2.051,0,0,0-2.051,2.051v9.57a2.051,2.051,0,0,0,2.051,2.051h15.039a2.051,2.051,0,0,0,2.051-2.051v-9.57A2.051,2.051,0,0,0,266.666,58.885Zm0,0" transform="translate(-198.717 -29.394)" fill="#f48c03" stroke="#000" stroke-width="1"/>
      <path id="Trazado_657432" data-name="Trazado 657432" d="M264.023,67.259,251,74.779a2.051,2.051,0,0,1-2.8-.751l-2.734-4.736a2.051,2.051,0,0,1,.751-2.8l13.024-7.52a2.051,2.051,0,0,1,2.8.751l2.734,4.736A2.051,2.051,0,0,1,264.023,67.259Zm15.592,18.155H264.576a2.051,2.051,0,0,0-2.051,2.051v5.469a2.051,2.051,0,0,0,2.051,2.051h15.039a2.051,2.051,0,0,0,2.051-2.051V87.465A2.051,2.051,0,0,0,279.615,85.414Zm0,0" transform="translate(-211.666 -51.821)" fill="#fa0" stroke="#000" stroke-width="1"/>
      <path id="Trazado_657433" data-name="Trazado 657433" d="M31.367,225.836A1.367,1.367,0,0,1,30,224.469v-4.1a1.367,1.367,0,0,1,2.734,0v4.1A1.367,1.367,0,0,1,31.367,225.836Zm14.556,2.417,2.9-2.9a1.367,1.367,0,1,0-1.933-1.933l-2.9,2.9a1.367,1.367,0,0,0,1.934,1.934Zm4.585,11.255h4.1a1.367,1.367,0,0,0,0-2.734h-4.1a1.367,1.367,0,1,0,0,2.734Zm-3.7,9.17,2.9,2.9a1.367,1.367,0,0,0,1.934-1.934l-2.9-2.9a1.367,1.367,0,0,0-1.933,1.933Zm0,0" transform="translate(-25.898 -190.209)" fill="#c0fbff" stroke="#000" stroke-width="1"/>
      <path id="Trazado_657434" data-name="Trazado 657434" d="M61.744,156.554a2.051,2.051,0,0,1-.751,2.8A40.273,40.273,0,0,0,41.323,188.1a33.527,33.527,0,0,1-3.174-5c.028-.106.053-.213.081-.318A44.145,44.145,0,0,1,58.942,155.8,2.051,2.051,0,0,1,61.744,156.554Zm0,0" transform="translate(-32.933 -135.414)" fill="#ff393a" stroke="#000" stroke-width="1"/>
      <path id="Trazado_657435" data-name="Trazado 657435" d="M180.314,58.54l-11.84,6.836a2.051,2.051,0,0,1-2.8-.751l-.342-.592-5.92,3.418a2.051,2.051,0,0,1-2.8-.751l-3.418-5.92a2.05,2.05,0,0,1,.75-2.8l5.92-3.418-.342-.592a2.051,2.051,0,0,1,.751-2.8l11.84-6.836a2.051,2.051,0,0,1,2.8.75l6.152,10.656A2.051,2.051,0,0,1,180.314,58.54Zm0,0" transform="translate(-132.01 -39.184)" fill="#ff6466" stroke="#000" stroke-width="1"/>
      <path id="Trazado_657436" data-name="Trazado 657436" d="M193.264,80.968,181.424,87.8a2.051,2.051,0,0,1-2.8-.751l-.342-.592-5.92,3.418a2.051,2.051,0,0,1-2.8-.751l-1.367-2.368a2.051,2.051,0,0,1,.75-2.8l2.368-1.367a1.368,1.368,0,0,1,1.868.5l1.344,2.328a1.4,1.4,0,0,0,1.811.584,1.367,1.367,0,0,0,.581-1.91l-2.393-4.144a2.05,2.05,0,0,1,.751-2.8l11.84-6.836a2.05,2.05,0,0,1,2.8.75l4.1,7.1A2.051,2.051,0,0,1,193.264,80.968Zm0,0" transform="translate(-144.959 -61.612)" fill="#ff895a" stroke="#000" stroke-width="1"/>
      <path id="Trazado_657437" data-name="Trazado 657437" d="M163.653,82.006a1.367,1.367,0,0,1-1.868-.5l-1.367-2.369,2.368-1.367,1.367,2.369A1.366,1.366,0,0,1,163.653,82.006Zm3.235,2.869a1.367,1.367,0,0,0-2.368,1.367l1.367,2.368,2.368-1.367Zm.818-6.787-1.367-2.369-2.368,1.367,1.367,2.369a1.367,1.367,0,0,0,2.368-1.367Zm2.734,4.736a1.367,1.367,0,1,0-2.368,1.367l1.367,2.368,2.369-1.367Zm2-7.47-2.734-4.737-2.368,1.367,2.734,4.737a1.367,1.367,0,0,0,2.368-1.367Zm2.734,4.736a1.367,1.367,0,1,0-2.368,1.367l2.734,4.736,2.369-1.367Zm.818-6.787-2.734-4.737-2.368,1.367,2.734,4.737a1.367,1.367,0,0,0,2.368-1.367Zm2.734,4.736a1.367,1.367,0,0,0-2.368,1.367l2.734,4.736,2.368-1.367Zm0,0" transform="translate(-138.486 -60.342)" fill="#ff2e28" stroke="#000" stroke-width="1"/>
      <path id="Trazado_657438" data-name="Trazado 657438" d="M92.157,261.172a2.051,2.051,0,0,1-2.051,2.051,40.3,40.3,0,0,0-32.482,16.454,33.7,33.7,0,0,1-2.659-3.339,45.054,45.054,0,0,1,3.715-4.209,44.148,44.148,0,0,1,31.427-13.008A2.051,2.051,0,0,1,92.157,261.172Zm0,0" transform="translate(-47.45 -224.845)" fill="#0069a3" stroke="#000" stroke-width="1"/>
      <path id="Trazado_657439" data-name="Trazado 657439" d="M303.66,216.172v12.3a2.051,2.051,0,0,1-2.051,2.051H287.938a2.051,2.051,0,0,1-2.051-2.051v-.684h-6.836A2.051,2.051,0,0,1,277,225.742v-6.836a2.051,2.051,0,0,1,2.051-2.051h6.836v-.684a2.051,2.051,0,0,1,2.051-2.051h13.672A2.051,2.051,0,0,1,303.66,216.172Zm0,0" transform="translate(-239.129 -185.997)" fill="#006cbc" stroke="#000" stroke-width="1"/>
      <path id="Trazado_657440" data-name="Trazado 657440" d="M303.66,246.172v8.2a2.051,2.051,0,0,1-2.051,2.051H287.938a2.051,2.051,0,0,1-2.051-2.051v-.684h-6.836A2.051,2.051,0,0,1,277,251.641v-2.734a2.051,2.051,0,0,1,2.051-2.051h2.734a1.367,1.367,0,0,1,1.367,1.367v2.734a1.368,1.368,0,0,0,1.458,1.365,1.4,1.4,0,0,0,1.276-1.412v-4.738a2.051,2.051,0,0,1,2.051-2.051h13.672A2.051,2.051,0,0,1,303.66,246.172Zm0,0" transform="translate(-239.129 -211.895)" fill="#08c" stroke="#000" stroke-width="1"/>
      <path id="Trazado_657441" data-name="Trazado 657441" d="M296.1,216.855h2.734v2.734a1.367,1.367,0,0,1-2.734,0Zm1.367,6.836a1.367,1.367,0,0,0-1.367,1.367v2.734h2.734v-2.734A1.367,1.367,0,0,0,297.469,223.691ZM292,219.59a1.367,1.367,0,0,0,2.734,0v-2.734H292Zm1.367,4.1A1.367,1.367,0,0,0,292,225.059v2.734h2.734v-2.734A1.367,1.367,0,0,0,293.367,223.691Zm8.2-4.1a1.367,1.367,0,0,0,2.734,0v-5.469H301.57Zm4.1-5.469v5.469a1.367,1.367,0,0,0,2.734,0v-5.469Zm1.367,9.57a1.367,1.367,0,0,0-1.367,1.367v5.469h2.734v-5.469A1.367,1.367,0,0,0,307.039,223.691Zm-4.1,0a1.367,1.367,0,0,0-1.367,1.367v5.469H304.3v-5.469A1.367,1.367,0,0,0,302.938,223.691Zm0,0" transform="translate(-252.078 -185.997)" fill="#024c67" stroke="#000" stroke-width="1"/>
      <path id="Trazado_657442" data-name="Trazado 657442" d="M21.875,289.938A10.938,10.938,0,1,1,10.938,279,10.937,10.937,0,0,1,21.875,289.938Zm0,0" transform="translate(0 -242.006)" fill="#ffe49f" stroke="#000" stroke-width="1"/>
      <path id="Trazado_657443" data-name="Trazado 657443" d="M47.773,289.938a10.879,10.879,0,0,1-1.431,5.405,10.935,10.935,0,0,1-14.912-14.912,10.935,10.935,0,0,1,16.343,9.507Zm0,0" transform="translate(-25.898 -242.006)" fill="#fff5f5" stroke="#000" stroke-width="1"/>
      <path id="Trazado_657444" data-name="Trazado 657444" d="M50.518,326.618a2.051,2.051,0,1,1-2.9,2.9l-1.934-1.933-1.933,1.933a2.051,2.051,0,0,1-2.9-2.9l1.933-1.933-1.933-1.933a2.051,2.051,0,0,1,2.9-2.9l1.933,1.933,1.933-1.933a2.051,2.051,0,0,1,2.9,2.9l-1.933,1.933Zm0,0" transform="translate(-34.747 -276.753)" fill="#ff895a" stroke="#000" stroke-width="1"/>
      <path id="Trazado_657445" data-name="Trazado 657445" d="M41.425,332.278a4.709,4.709,0,0,0-.476.558c-.033-.029-.067-.058-.1-.09a2.051,2.051,0,0,1,0-2.9l1.933-1.933-1.933-1.933a2.051,2.051,0,0,1,0-2.9c.032-.032.066-.06.1-.09a4.618,4.618,0,0,0,.476.558l3.4,3.4a1.367,1.367,0,0,1,0,1.933Zm0,0" transform="translate(-34.747 -279.98)" fill="#ff6466" stroke="#000" stroke-width="1"/>
    </g>
  </g>
</svg>
