<svg xmlns="http://www.w3.org/2000/svg" width="85" height="113" viewBox="0 0 85 113">
  <g id="Grupo_946818" data-name="Grupo 946818" transform="translate(-705 -1415.985)">
    <rect id="Rectángulo_348630" data-name="Rectángulo 348630" width="85" height="113" rx="9" transform="translate(705 1415.985)" fill="#e8e8e8"/>
    <g id="prototipo" transform="translate(716 1446)">
      <g id="Grupo_950251" data-name="Grupo 950251" transform="translate(1.031 1.031)">
        <g id="Grupo_950235" data-name="Grupo 950235" transform="translate(14.223)">
          <path id="Trazado_657287" data-name="Trazado 657287" d="M14.8,1H50.049V7.184H14.8Z" transform="translate(-14.8 -1)" fill="#ff826e"/>
        </g>
        <g id="Grupo_950236" data-name="Grupo 950236" transform="translate(14.223 6.184)">
          <path id="Trazado_657288" data-name="Trazado 657288" d="M14.8,7H50.049v6.184H14.8Z" transform="translate(-14.8 -7)" fill="#b4dd7f"/>
        </g>
        <g id="Grupo_950237" data-name="Grupo 950237" transform="translate(49.472)">
          <path id="Trazado_657289" data-name="Trazado 657289" d="M60.42,5.762a1.541,1.541,0,0,1,0,2.845L49,13.368V1Z" transform="translate(-49 -1)" fill="#ccd1d9"/>
        </g>
        <g id="Grupo_950238" data-name="Grupo 950238">
          <path id="Trazado_657290" data-name="Trazado 657290" d="M11.307,1V13.368H5.123A4.122,4.122,0,0,1,1,9.245V5.123A4.122,4.122,0,0,1,5.123,1Z" transform="translate(-1 -1)" fill="#ccd1d9"/>
        </g>
        <g id="Grupo_950239" data-name="Grupo 950239" transform="translate(10.307)">
          <path id="Trazado_657291" data-name="Trazado 657291" d="M14.917,7.184v6.184H11V1h3.917Z" transform="translate(-11 -1)" fill="#ffeaa7"/>
        </g>
        <g id="Grupo_950241" data-name="Grupo 950241" transform="translate(4.123 16.491)">
          <g id="Grupo_950240" data-name="Grupo 950240">
            <path id="Trazado_657292" data-name="Trazado 657292" d="M61.687,17H6.031A1.034,1.034,0,0,0,5,18.031V40.736l.959-.959a3.443,3.443,0,0,0,5.226-2.164h4.123a3.442,3.442,0,0,0,2.5,2.6,3.583,3.583,0,0,0,.876.113,3.451,3.451,0,0,0,1.845-.546l1.556,1.556,1.36,1.36A3.451,3.451,0,0,0,22.9,44.54,3.5,3.5,0,0,0,24.026,47.1a3.552,3.552,0,0,0,1.587.825v4.123a3.443,3.443,0,0,0-2.164,5.226l-.938.948.01.01H61.687A1.034,1.034,0,0,0,62.718,57.2V18.031A1.034,1.034,0,0,0,61.687,17Z" transform="translate(-5 -17)" fill="#f0d0b4"/>
          </g>
        </g>
        <g id="Grupo_950242" data-name="Grupo 950242" transform="translate(0 37.104)">
          <path id="Trazado_657293" data-name="Trazado 657293" d="M23.025,54.81a3.451,3.451,0,0,0,.546,1.845l-.938.948-1.979,1.969a3.443,3.443,0,0,0-5.226,2.164H11.307a3.451,3.451,0,0,0-5.226-2.164L3.164,56.655a3.451,3.451,0,0,0,.546-1.845A3.463,3.463,0,0,0,1,51.429V47.307a3.463,3.463,0,0,0,2.711-3.381,3.451,3.451,0,0,0-.546-1.845l1.958-1.958.959-.959A3.443,3.443,0,0,0,11.307,37h4.123a3.442,3.442,0,0,0,2.5,2.6,3.583,3.583,0,0,0,.876.113,3.451,3.451,0,0,0,1.845-.546l1.556,1.556,1.36,1.36a3.451,3.451,0,0,0-.546,1.845,3.5,3.5,0,0,0,1.123,2.556,3.552,3.552,0,0,0,1.587.825v4.123a3.463,3.463,0,0,0-2.711,3.381Zm-3.473-5.442a6.184,6.184,0,1,0-6.184,6.184A6.189,6.189,0,0,0,19.552,49.368Z" transform="translate(-1 -37)" fill="#ffc729"/>
        </g>
        <g id="Grupo_950243" data-name="Grupo 950243" transform="translate(49.472 22.675)">
          <path id="Trazado_657294" data-name="Trazado 657294" d="M57.245,25.061v7.215a1.034,1.034,0,0,1-1.031,1.031H50.031A1.034,1.034,0,0,1,49,32.276V25.061A2.067,2.067,0,0,1,51.061,23h4.123A2.067,2.067,0,0,1,57.245,25.061Z" transform="translate(-49 -23)" fill="#aab2bd"/>
        </g>
        <g id="Grupo_950244" data-name="Grupo 950244" transform="translate(51.534 32.981)">
          <path id="Trazado_657295" data-name="Trazado 657295" d="M55.123,33v3.092a1.034,1.034,0,0,1-1.031,1.031H52.031A1.034,1.034,0,0,1,51,36.092V33Z" transform="translate(-51 -33)" fill="#ccd1d9"/>
        </g>
        <g id="Grupo_950245" data-name="Grupo 950245" transform="translate(43.288 24.736)">
          <path id="Trazado_657296" data-name="Trazado 657296" d="M43,25h6.184v4.123H43Z" transform="translate(-43 -25)" fill="#ccd1d9"/>
        </g>
        <g id="Grupo_950246" data-name="Grupo 950246" transform="translate(32.652 21.912)">
          <path id="Trazado_657297" data-name="Trazado 657297" d="M43.317,29.207v1.1a1.042,1.042,0,0,1-.959,1.031l-9.678.691a6.186,6.186,0,0,0,0-9.771l9.678.691a1.042,1.042,0,0,1,.959,1.031v5.226Z" transform="translate(-32.68 -22.26)" fill="#aab2bd"/>
        </g>
        <g id="Grupo_950247" data-name="Grupo 950247" transform="translate(21.211 32.724)">
          <path id="Trazado_657298" data-name="Trazado 657298" d="M30.753,32.822l-7.235,13.79a3.5,3.5,0,0,1-1.123-2.556,3.451,3.451,0,0,1,.546-1.845l-1.36-1.36v-.01l5.885-8.091a6.229,6.229,0,0,0,1.762.258,5.732,5.732,0,0,0,1.525-.2Z" transform="translate(-21.58 -32.75)" fill="#aab2bd"/>
        </g>
        <g id="Grupo_950248" data-name="Grupo 950248" transform="translate(13.976 27.199)">
          <path id="Trazado_657299" data-name="Trazado 657299" d="M15.013,37.295H14.56v-.031l8.709-9.874h.01a6,6,0,0,0,1.072,3.1l-6.833,9.4A3.442,3.442,0,0,1,15.013,37.295Z" transform="translate(-14.56 -27.39)" fill="#aab2bd"/>
        </g>
        <g id="Grupo_950249" data-name="Grupo 950249" transform="translate(22.675 20.613)">
          <path id="Trazado_657300" data-name="Trazado 657300" d="M32.977,22.3a6.186,6.186,0,0,1,0,9.771,6.041,6.041,0,0,1-2.267,1.1,5.732,5.732,0,0,1-1.525.2,6.229,6.229,0,0,1-1.762-.258,6.151,6.151,0,0,1-3.329-2.422,6,6,0,0,1-1.072-3.1,2.627,2.627,0,0,1-.021-.4A6.185,6.185,0,0,1,32.977,22.3Zm-1.732,4.885a2.061,2.061,0,1,0-2.061,2.061A2.067,2.067,0,0,0,31.245,27.184Z" transform="translate(-23 -21)" fill="#fcd770"/>
        </g>
        <g id="Grupo_950250" data-name="Grupo 950250" transform="translate(6.184 43.288)">
          <path id="Trazado_657301" data-name="Trazado 657301" d="M13.184,43A6.184,6.184,0,1,1,7,49.184,6.189,6.189,0,0,1,13.184,43Zm2.061,6.184a2.061,2.061,0,1,0-2.061,2.061A2.067,2.067,0,0,0,15.245,49.184Z" transform="translate(-7 -43)" fill="#fcd770"/>
        </g>
      </g>
      <g id="Grupo_950252" data-name="Grupo 950252" transform="translate(0 0)">
        <path id="Trazado_657302" data-name="Trazado 657302" d="M13.215,42a7.215,7.215,0,1,0,7.215,7.215A7.224,7.224,0,0,0,13.215,42Zm0,12.368a5.153,5.153,0,1,1,5.153-5.153A5.159,5.159,0,0,1,13.215,54.368Z" transform="translate(0.184 1.288)"/>
        <path id="Trazado_657303" data-name="Trazado 657303" d="M13.092,46a3.092,3.092,0,1,0,3.092,3.092A3.1,3.1,0,0,0,13.092,46Zm0,4.123a1.031,1.031,0,1,1,1.031-1.031A1.031,1.031,0,0,1,13.092,50.123Z" transform="translate(0.307 1.411)"/>
        <path id="Trazado_657304" data-name="Trazado 657304" d="M29.092,24a3.092,3.092,0,1,0,3.092,3.092A3.1,3.1,0,0,0,29.092,24Zm0,4.123a1.031,1.031,0,1,1,1.031-1.031A1.031,1.031,0,0,1,29.092,28.123Z" transform="translate(0.797 0.736)"/>
        <path id="Trazado_657305" data-name="Trazado 657305" d="M5.153,14.429H50.709L62.317,9.593a2.578,2.578,0,0,0,0-4.758L50.709,0H5.153A5.159,5.159,0,0,0,0,5.153V9.276A5.159,5.159,0,0,0,5.153,14.429ZM16.285,8.245H49.472v4.123H16.285ZM51.534,2.577l6.184,2.577V9.276l-6.184,2.577ZM49.472,6.184H16.285V2.061H49.472ZM14.223,12.368H12.368V2.061h1.855ZM61.84,7.215a.515.515,0,0,1-.317.476l-1.744.727V6.012l1.744.727a.516.516,0,0,1,.317.476ZM2.061,5.153A3.1,3.1,0,0,1,5.153,2.061h5.153V12.368H5.153A3.1,3.1,0,0,1,2.061,9.276Z" transform="translate(0 0)"/>
        <path id="Trazado_657306" data-name="Trazado 657306" d="M61.84,16H6.184a2.063,2.063,0,0,0-2.061,2.061V40.339L1.882,42.58l.444.7a2.392,2.392,0,0,1,.194,2.229A2.393,2.393,0,0,1,.807,46.945L0,47.123V52.9l.807.179A2.393,2.393,0,0,1,2.52,54.517a2.4,2.4,0,0,1-.194,2.229l-.444.7,4.085,4.085.7-.444A2.424,2.424,0,0,1,10.331,62.6l.178.807h5.777l.179-.807a2.424,2.424,0,0,1,3.667-1.519l.7.444,2.241-2.241H61.84A2.063,2.063,0,0,0,63.9,57.227V18.061A2.063,2.063,0,0,0,61.84,16ZM22.347,57.1,20.485,58.96a4.484,4.484,0,0,0-5.77,2.389H12.082a4.484,4.484,0,0,0-5.77-2.389L4.449,57.1a4.5,4.5,0,0,0-.026-3.37,4.5,4.5,0,0,0-2.362-2.4V48.695a4.5,4.5,0,0,0,2.363-2.4,4.487,4.487,0,0,0,.026-3.37l1.862-1.862a4.484,4.484,0,0,0,5.77-2.389h2.633a4.484,4.484,0,0,0,5.77,2.389l1.862,1.862a4.484,4.484,0,0,0,2.389,5.77v2.633a4.486,4.486,0,0,0-2.39,5.77Zm12.7-29.761a5.153,5.153,0,1,1-5.153-5.153A5.159,5.159,0,0,1,35.043,27.337Zm1.042-3.678,7.2.515V30.5l-7.2.514a7.147,7.147,0,0,0,0-7.357ZM24.862,32.5a7.223,7.223,0,0,0,1.661,1.212l-4.411,6.063L20.83,38.5l-.611.389ZM24.135,45a2.381,2.381,0,0,1,.336-1.726l.444-.7-1.328-1.328,4.968-6.829a7.181,7.181,0,0,0,1.061.114Zm-.577-14.213L17.61,38.969a2.369,2.369,0,0,1-1.12-1.483l6.673-7.562a7.1,7.1,0,0,0,.4.868ZM61.84,57.227H24.777l-.305-.48a2.424,2.424,0,0,1,1.519-3.667L26.8,52.9V47.124l-.807-.179a2.46,2.46,0,0,1-.461-.161l6.594-12.59a7.168,7.168,0,0,0,1.918-.967l9.393-.671A2.068,2.068,0,0,0,45.35,30.5v-.071h4.123v2.061a2.063,2.063,0,0,0,2.061,2.061v2.061a2.063,2.063,0,0,0,2.061,2.061h2.061a2.063,2.063,0,0,0,2.061-2.061V34.552a2.063,2.063,0,0,0,2.061-2.061V25.276a3.1,3.1,0,0,0-3.092-3.092H52.564a3.088,3.088,0,0,0-2.9,2.061H45.35v-.071a2.066,2.066,0,0,0-1.914-2.055l-9.394-.671a7.2,7.2,0,0,0-11.367,5.889c0,.007,0,.013,0,.021L14.51,36.613h-4l-.179.807A2.424,2.424,0,0,1,6.664,38.94l-.48-.306V18.061H61.84ZM45.35,26.307h4.123v2.061H45.35Zm12.37,6.184H51.534V30.429h6.185Zm-4.125,2.061h2.061v2.061H53.595Zm-2.061-6.184V25.276a1.031,1.031,0,0,1,1.031-1.031h4.123a1.031,1.031,0,0,1,1.031,1.031v3.092Z" transform="translate(0 0.491)"/>
        <path id="Trazado_657307" data-name="Trazado 657307" d="M8,20h2.061v2.061H8Z" transform="translate(0.245 0.613)"/>
        <path id="Trazado_657308" data-name="Trazado 657308" d="M12,20h6.184v2.061H12Z" transform="translate(0.368 0.613)"/>
        <path id="Trazado_657309" data-name="Trazado 657309" d="M8,24h2.061v2.061H8Z" transform="translate(0.245 0.736)"/>
        <path id="Trazado_657310" data-name="Trazado 657310" d="M12,24h6.184v2.061H12Z" transform="translate(0.368 0.736)"/>
        <path id="Trazado_657311" data-name="Trazado 657311" d="M8,28h2.061v2.061H8Z" transform="translate(0.245 0.859)"/>
        <path id="Trazado_657312" data-name="Trazado 657312" d="M12,28h6.184v2.061H12Z" transform="translate(0.368 0.859)"/>
        <path id="Trazado_657313" data-name="Trazado 657313" d="M54.736,44.123H52.675v8.245H50.613V46.184H48.552v6.184H46.491V40H44.429V52.368H42.368V46.184H40.307v6.184H38.245V40H36.184V52.368H34.123V44.123H32.061v8.245H30v2.061H56.8V52.368H54.736Z" transform="translate(0.92 1.227)"/>
      </g>
    </g>
  </g>
</svg>
