<svg xmlns="http://www.w3.org/2000/svg" width="299.449" height="429.669" viewBox="0 0 299.449 429.669">
  <g id="Grupo_973555" data-name="Grupo 973555" transform="translate(-291.481 -2888.414)">
    <g id="Grupo_946629" data-name="Grupo 946629" transform="translate(302.385 2888.414)">
      <g id="Grupo_167836" data-name="Grupo 167836" transform="translate(8.473 0)">
        <path id="Trazado_156803" data-name="Trazado 156803" d="M352.579,169.252c-2.683,41.515-34.528,81.154-77.656,83.613-49.536,3.795-95-23.37-144.347-23.658C105.414,227.05,81.817,236.684,57.3,239.8c-55.381,2.033-63.819-63.048-53.49-105C47.366-62.964,355.595-36.057,352.579,169.252Z" transform="translate(280.017 0) rotate(90)" fill="#ffd947"/>
        <path id="Trazado_156804" data-name="Trazado 156804" d="M336.922,183.769c-2.023,31.31-26.04,61.2-58.566,63.058C241,249.69,206.707,229.2,169.494,228.986c-18.976-1.627-36.772,5.639-55.264,7.985C72.464,238.5,66.1,189.422,73.89,157.785,106.74,8.638,339.2,28.93,336.922,183.769Z" transform="translate(-71.019 -26.382)" fill="#fdf2c8"/>
      </g>
      <g id="Character" transform="translate(-10.385 59.819)">
        <g id="Grupo_55004" data-name="Grupo 55004">
          <path id="Trazado_104115" data-name="Trazado 104115" d="M262.167,254.377h-9.819c-17.032,0-21.9,87.9-24.474,154.115" transform="translate(-227.874 -136.472)" fill="none" stroke="#263238" stroke-linecap="round" stroke-linejoin="round" stroke-width="1"/>
          <g id="Grupo_54993" data-name="Grupo 54993" transform="translate(162.956 100.515)">
            <path id="Trazado_104116" data-name="Trazado 104116" d="M91.936,258.687h-6.68l-18.6,109.15h6.68Z" transform="translate(29.271 -234.617)" fill="#407bff"/>
            <path id="Trazado_104117" data-name="Trazado 104117" d="M107.936,258.687h-6.68l-18.6,109.15h6.68Z" transform="translate(-11.528 -234.617)" fill="#407bff"/>
            <path id="Trazado_104118" data-name="Trazado 104118" d="M123.936,258.687h-6.68l-18.6,109.15h6.68Z" transform="translate(-52.326 -234.617)" fill="#407bff"/>
            <path id="Trazado_104119" data-name="Trazado 104119" d="M91.936,258.687h-6.68l-18.6,109.15h6.68Z" transform="translate(29.271 -234.617)" fill="#06ad8f" style="isolation: isolate"/>
            <path id="Trazado_104120" data-name="Trazado 104120" d="M107.936,258.687h-6.68l-18.6,109.15h6.68Z" transform="translate(-11.528 -234.617)" fill="#06ad8f" style="isolation: isolate"/>
            <path id="Trazado_104121" data-name="Trazado 104121" d="M123.936,258.687h-6.68l-18.6,109.15h6.68Z" transform="translate(-52.326 -234.617)" fill="#fff" opacity="0.4" style="isolation: isolate"/>
            <path id="Trazado_104122" data-name="Trazado 104122" d="M118.06,330.933l-.558,24.132L114.96,464.224h-8.385l-2.526-109.159-.558-24.132Z" transform="translate(-53.942 -194.89)" fill="#407bff"/>
            <path id="Trazado_104123" data-name="Trazado 104123" d="M118.06,330.933l-.558,24.132L114.96,464.224h-8.385l-2.526-109.159-.558-24.132Z" transform="translate(-53.942 -194.89)" fill="#1e866f" style="isolation: isolate"/>
            <path id="Trazado_104124" data-name="Trazado 104124" d="M118.06,330.933l-.558,24.8H104.049l-.558-24.8Z" transform="translate(-53.942 -194.89)" opacity="0.2" style="isolation: isolate"/>
            <g id="Grupo_54991" data-name="Grupo 54991" transform="translate(4.008 137.593)">
              <g id="Grupo_54989" data-name="Grupo 54989" transform="translate(85.235)">
                <path id="Trazado_104125" data-name="Trazado 104125" d="M94.521,463.231l-7.746-131.2H74.113l10.844,131.2Z" transform="translate(-74.113 -331.878)" fill="#06ad8f"/>
                <path id="Trazado_104126" data-name="Trazado 104126" d="M84.939,463.287h9.572l-7.029-119.42-.7-11.934H74.122l.977,11.934Z" transform="translate(-74.117 -331.933)" fill="#06ad8f" opacity="0.4" style="isolation: isolate"/>
                <path id="Trazado_104127" data-name="Trazado 104127" d="M78.657,331.933l.977,12.4H92.017l-.7-12.4Z" transform="translate(-78.652 -331.933)" fill="#06ad8f" opacity="0.2" style="isolation: isolate"/>
              </g>
              <g id="Grupo_54990" data-name="Grupo 54990" transform="translate(0)">
                <path id="Trazado_104128" data-name="Trazado 104128" d="M138.67,463.231l10.845-131.2H136.853l-7.746,131.2Z" transform="translate(-129.107 -331.878)" fill="#06ad8f"/>
                <path id="Trazado_104129" data-name="Trazado 104129" d="M138.683,463.287l9.84-119.42.977-11.934H136.837l-.7,11.934-7.029,119.42Z" transform="translate(-129.096 -331.933)" fill="#06ad8f" opacity="0.4" style="isolation: isolate"/>
                <path id="Trazado_104130" data-name="Trazado 104130" d="M142.47,331.933l-.977,12.4H129.11l.7-12.4Z" transform="translate(-122.067 -331.933)" fill="#06ad8f" opacity="0.2" style="isolation: isolate"/>
              </g>
            </g>
            <path id="Rectángulo_7480" data-name="Rectángulo 7480" d="M5,0H98.72a5,5,0,0,1,5,5V18.117a0,0,0,0,1,0,0H0a0,0,0,0,1,0,0V5A5,5,0,0,1,5,0Z" transform="translate(4.969 124.161)" fill="#31024e"/>
            <g id="Grupo_54992" data-name="Grupo 54992" transform="translate(0 133.219)">
              <rect id="Rectángulo_7481" data-name="Rectángulo 7481" width="113.659" height="9.059" rx="2.011" transform="translate(0 0)" fill="#06ad8f"/>
              <rect id="Rectángulo_7482" data-name="Rectángulo 7482" width="113.659" height="9.059" rx="2.011" transform="translate(0 0)" fill="#06ad8f" opacity="0.6" style="isolation: isolate"/>
            </g>
            <path id="Trazado_104131" data-name="Trazado 104131" d="M118.4,279.831c-10.753-6.508-25.682-6.508-39.95,0-7.212,3.162-15.744,4.059-19.521-.5h0c-6.432-6.7,4.856-26.557,26.522-32.844,15.505-4.445,30.854-4.445,43.958,0,18.27,6.286,18.831,26.142,8.78,32.844h0C131.945,283.89,123.909,282.992,118.4,279.831Z" transform="translate(-8.736 -243.157)" fill="#1e866f"/>
          </g>
          <g id="_Group_" data-name="&lt;Group&gt;" transform="translate(25.224)">
            <path id="Trazado_104132" data-name="Trazado 104132" d="M209.584,255.916l-12.5-2.844s-3.066-2.215-5.364-2.215-11.8,2.147-13.03,4.14a6.992,6.992,0,0,0-.614,4.643h14.409l12.57,3.352Z" transform="translate(-123.101 -138.407)" fill="#b97964"/>
            <path id="Trazado_104133" data-name="Trazado 104133" d="M194.475,226.33c-5.476,5.057-13.943,36.771-16.3,40.229s-20.445-1.917-20.445-1.917l-3.679,11.524s22.8,10.367,33.013,3.665,16.488-33.689,16.488-33.689Z" transform="translate(-80.065 -151.895)" fill="#407bff"/>
            <path id="Trazado_104134" data-name="Trazado 104134" d="M194.475,226.33c-5.476,5.057-13.943,36.771-16.3,40.229s-20.445-1.917-20.445-1.917l-3.679,11.524s22.8,10.367,33.013,3.665,16.488-33.689,16.488-33.689Z" transform="translate(-80.065 -151.895)" fill="#e5c23b" style="isolation: isolate"/>
            <path id="Trazado_104135" data-name="Trazado 104135" d="M157.209,212.552l-35.56,9.4,17.78,25.6H166.8Z" transform="translate(6.909 -159.471)" fill="#c4a424"/>
            <path id="Trazado_104136" data-name="Trazado 104136" d="M221.529,419l-12.017-3.3,2.152-29.32,12,3.31Z" transform="translate(-186.133 -63.884)" fill="#b97964"/>
            <path id="Trazado_104137" data-name="Trazado 104137" d="M230.292,404.27l13.943.967a.886.886,0,0,1,.862.905l0,.014-.085,11.09a2.2,2.2,0,0,1-2.322,2.044c-4.86-.417-7.159-.857-13.292-1.331-3.765-.271-11.231-.451-16.319-1.632s-3.785-6.178-1.527-6.127c5.358.1,12.861-2.857,16.553-5.363A3.494,3.494,0,0,1,230.292,404.27Z" transform="translate(-207.642 -54.052)" fill="#27013e"/>
            <path id="Trazado_104138" data-name="Trazado 104138" d="M222.4,406.585a15.234,15.234,0,0,0,3.348-.217.262.262,0,0,0,.236-.2.322.322,0,0,0-.091-.305c-.378-.305-3.732-2.946-5.3-2.466a1.1,1.1,0,0,0-.725.778,1.547,1.547,0,0,0,.243,1.64A3.33,3.33,0,0,0,222.4,406.585ZM220.761,404c.834-.262,2.829.922,4.208,1.939-2.252.284-3.879.1-4.426-.511a1.067,1.067,0,0,1-.135-1.046.526.526,0,0,1,.353-.381Z" transform="translate(-204.303 -54.559)" fill="#407bff"/>
            <path id="Trazado_104139" data-name="Trazado 104139" d="M222.35,407.312a.176.176,0,0,0,.121.026.329.329,0,0,0,.175-.217c.008-.108.544-3.7-.615-5.006a1.55,1.55,0,0,0-1.209-.487,1.114,1.114,0,0,0-1.113.8c-.372,1.33,1.3,4.061,2.483,4.876A.188.188,0,0,0,222.35,407.312Zm-1.364-5.06a.839.839,0,0,1,.6.305c.7.774.649,2.824.536,3.99-1.006-.983-2.05-3.021-1.855-3.914.037-.167.16-.361.577-.381Z" transform="translate(-200.97 -55.5)" fill="#407bff"/>
            <path id="Trazado_104140" data-name="Trazado 104140" d="M222.741,389.684l-12-3.295-1.227,16.76,12.066,2.686Z" transform="translate(-185.212 -63.879)" opacity="0.2" style="isolation: isolate"/>
            <path id="Trazado_104141" data-name="Trazado 104141" d="M189.068,417.294l11.342,5.172,2.892-12.184,3.874-16.4-11.311-5.187-3.889,16.384Z" transform="translate(-137.962 -62.611)" fill="#b97964"/>
            <path id="Trazado_104142" data-name="Trazado 104142" d="M189.068,405.079l11.326,5.2,3.874-16.4-11.311-5.187Z" transform="translate(-135.054 -62.611)" opacity="0.2" style="isolation: isolate"/>
            <path id="Trazado_104143" data-name="Trazado 104143" d="M213.664,406.092l13.61,3.176a.883.883,0,0,1,.707,1.031l0,.014-1.854,10.933a2.2,2.2,0,0,1-2.618,1.649c-4.73-1.186-6.93-1.987-12.907-3.433-3.673-.866-11.017-2.233-15.851-4.211s-2.753-6.7-.532-6.291c5.274.95,13.152-.772,17.2-2.656A3.486,3.486,0,0,1,213.664,406.092Z" transform="translate(-163.025 -53.097)" fill="#27013e"/>
            <path id="Trazado_104144" data-name="Trazado 104144" d="M204.166,407.964a15.3,15.3,0,0,0,3.34.321.264.264,0,0,0,.264-.163.321.321,0,0,0-.04-.316c-.324-.361-3.216-3.5-4.839-3.278a1.1,1.1,0,0,0-.84.651,1.552,1.552,0,0,0-.022,1.658A3.329,3.329,0,0,0,204.166,407.964Zm-1.206-2.808c.865-.126,2.644,1.361,3.844,2.585-2.267-.079-3.844-.519-4.287-1.21a1.069,1.069,0,0,1,.033-1.054.525.525,0,0,1,.411-.321Z" transform="translate(-158.312 -53.911)" fill="#407bff"/>
            <path id="Trazado_104145" data-name="Trazado 104145" d="M203.432,409.027a.168.168,0,0,0,.116.045.321.321,0,0,0,.206-.184c.025-.107,1.127-3.571.191-5.04a1.548,1.548,0,0,0-1.116-.674,1.117,1.117,0,0,0-1.228.615c-.578,1.254.635,4.216,1.675,5.211A.184.184,0,0,0,203.432,409.027Zm-.541-5.212a.842.842,0,0,1,.544.4c.57.876.191,2.892-.107,4.025-.837-1.132-1.542-3.309-1.207-4.16.064-.158.215-.332.629-.285Z" transform="translate(-154.302 -54.662)" fill="#407bff"/>
            <g id="Grupo_54994" data-name="Grupo 54994" transform="translate(53.308 147.662)">
              <path id="Trazado_104146" data-name="Trazado 104146" d="M179.6,314.093l3.661-40.517,67.651,1.59s8.01,56.455,2.188,66.825c-10.392,18.514-78.59,8-94.537,9.578-6.51,3.472-41.367,118.976-41.367,118.976L97.687,462.67s20.987-97.485,25.767-115.845C130.1,321.291,157.193,321.736,179.6,314.093Z" transform="translate(-97.687 -273.576)" fill="#263238"/>
              <path id="Trazado_104147" data-name="Trazado 104147" d="M179.6,314.093l3.661-40.517,67.651,1.59s8.01,56.455,2.188,66.825c-10.392,18.514-78.59,8-94.537,9.578-6.51,3.472-41.367,118.976-41.367,118.976L97.687,462.67s20.987-97.485,25.767-115.845C130.1,321.291,157.193,321.736,179.6,314.093Z" transform="translate(-97.687 -273.576)" fill="#650a5a" style="isolation: isolate"/>
            </g>
            <g id="Grupo_54995" data-name="Grupo 54995" transform="translate(23.112 173.877)">
              <path id="Trazado_104148" data-name="Trazado 104148" d="M111.29,451.377,128.5,452.97s21.108-107.488,22.743-107.943c2.943-.837,11.5-1.8,16.091-3,31.94-8.311,110.6-23.594,110.6-23.594l-29-27.946S117.42,306.277,114.494,337.14C113.094,351.982,111.29,451.377,111.29,451.377Z" transform="translate(-111.29 -290.49)" fill="#263238"/>
              <path id="Trazado_104149" data-name="Trazado 104149" d="M111.29,451.377,128.5,452.97s21.108-107.488,22.743-107.943c2.943-.837,11.5-1.8,16.091-3,31.94-8.311,110.6-23.594,110.6-23.594l-29-27.946S117.42,306.277,114.494,337.14C113.094,351.982,111.29,451.377,111.29,451.377Z" transform="translate(-111.29 -290.49)" fill="#650a5a" style="isolation: isolate"/>
            </g>
            <path id="Trazado_104150" data-name="Trazado 104150" d="M126.857,341.124c2.943-.837,6.851-1.875,11.443-3.072-1.271.668,2.427-16.068,6.108-20.4,7.314-8.627,36.7-13.287,47.238-14.98,8.811-1.409,38.382-4.021,38.382-4.021s-52.2-4.509-91.54,6.288C119.041,310.292,122.5,329.274,126.857,341.124Z" transform="translate(-59.142 -112.636)" fill="#27013e" opacity="0.32" style="isolation: isolate"/>
            <path id="Trazado_104151" data-name="Trazado 104151" d="M121.967,312.751c-3.965-22.692-10.617-53.078-22.935-81.5a144.147,144.147,0,0,1,19.955-6.773,267.608,267.608,0,0,1,30.207-6.339,135.661,135.661,0,0,1,21.2-.586s15.253,28.484,22.985,95.2Z" transform="translate(15.379 -156.816)" fill="#27013e"/>
            <g id="Grupo_54996" data-name="Grupo 54996" transform="translate(138.031 35.858)">
              <path id="Trazado_104152" data-name="Trazado 104152" d="M136.314,201.44c2.7,9.749,9.109,26.883,18.284,29.7,0,0-6.758,11.057-16.871,11.984-6.437.59-10-6.677-10-6.677,6.565-1.224,4.056-6.034-1.121-12.071Z" transform="translate(-126.607 -201.44)" fill="#b97964"/>
              <path id="Trazado_104153" data-name="Trazado 104153" d="M141.936,207.475,136.2,221.054a32.579,32.579,0,0,1,3.3,4.472c6.449.485,11.08-9.74,9.5-13.9C148.432,209.913,143.087,208.867,141.936,207.475Z" transform="translate(-136.181 -198.121)" opacity="0.2" style="isolation: isolate"/>
            </g>
            <g id="Grupo_54998" data-name="Grupo 54998" transform="translate(106.999)">
              <path id="Trazado_104154" data-name="Trazado 104154" d="M163.253,192.276c6.152,2.545,4.977,9.258-5.22,21.488-6.285-5.4-9.688-17.715-6.4-21.669S157.893,190.079,163.253,192.276Z" transform="translate(-144.799 -171.975)" fill="#263238"/>
              <path id="Trazado_104155" data-name="Trazado 104155" d="M172.022,200.35c2.14,13.307,4.059,20.978-1.043,29.2-7.692,12.367-25.243,10-31.32-2.4-5.443-11.144-8.044-31.038,3.628-39.136a18.382,18.382,0,0,1,28.735,12.333Z" transform="translate(-128.288 -174.796)" fill="#b97964"/>
              <path id="Trazado_104156" data-name="Trazado 104156" d="M151.142,200.547c.239,1.068-.136,2.063-.834,2.216s-1.446-.576-1.686-1.644.122-2.057.815-2.223S150.834,199.511,151.142,200.547Z" transform="translate(-126.199 -166.993)" fill="#263238"/>
              <path id="Trazado_104157" data-name="Trazado 104157" d="M159,202.317c.239,1.068-.136,2.063-.835,2.215s-1.46-.569-1.7-1.652.136-2.061.834-2.215S158.757,201.249,159,202.317Z" transform="translate(-146.191 -166.019)" fill="#263238"/>
              <path id="Trazado_104158" data-name="Trazado 104158" d="M155.388,201.474a39.1,39.1,0,0,1-3.055,10.285c2.326,1.33,5.325-.2,5.325-.2Z" transform="translate(-138.508 -165.563)" fill="#a24e3f"/>
              <path id="Trazado_104159" data-name="Trazado 104159" d="M152.505,197.959a.632.632,0,0,0,.38-.175.651.651,0,0,0-.064-.911,6.351,6.351,0,0,0-5.691-1.441.62.62,0,0,0-.446.755l.014.043a.667.667,0,0,0,.8.432h0a5.066,5.066,0,0,1,4.479,1.186A.666.666,0,0,0,152.505,197.959Z" transform="translate(-125.105 -168.979)" fill="#263238"/>
              <path id="Trazado_104160" data-name="Trazado 104160" d="M158.9,201.789a.667.667,0,0,0,.493-.485,5.116,5.116,0,0,1,2.894-3.631.646.646,0,0,0-.428-1.22,6.417,6.417,0,0,0-3.712,4.558.634.634,0,0,0,.467.767l.011,0A.749.749,0,0,0,158.9,201.789Z" transform="translate(-152.546 -168.342)" fill="#263238"/>
              <path id="Trazado_104161" data-name="Trazado 104161" d="M135.679,189.351c-5.663,3.481-3.425,9.926,8.591,20.361,5.344-6.341,6.744-19.053,2.847-22.405S140.628,186.319,135.679,189.351Z" transform="translate(-99.785 -174.253)" fill="#27013e"/>
              <path id="Trazado_104162" data-name="Trazado 104162" d="M181.1,190.621s1.193-5.211-8.179-10.161-24.53-.766-34.384,6.369,2.134,16.1,6.923,16.292l-1.338-1.657s8.342.546,15.031-2.559L156.1,197.9S175.175,194.414,181.1,190.621Z" transform="translate(-134.757 -178.304)" fill="#27013e"/>
              <g id="Grupo_54997" data-name="Grupo 54997" transform="translate(4.586 26.256)">
                <path id="Trazado_104163" data-name="Trazado 104163" d="M134.5,201.887l1.751,8.431s3.5,2.5,5.192,1.472c1.7-1.007,2.34-3.844,4.96-4.262,2.619-.434,3.5,2.216,8.524,2.216s7.92-7.3,7.92-7.3l11.206-4.03,1.8,4,.852-1.55s-2.185-6.045-4.7-5.6l-10.322,1.813Z" transform="translate(-134.5 -195.245)" fill="#fff" opacity="0.4" style="isolation: isolate"/>
                <path id="Trazado_104164" data-name="Trazado 104164" d="M134.5,197.082l1.147,5.316a.057.057,0,0,0,.015.046l11.206-4.03,1.8,4,.852-1.55s-2.185-6.045-4.7-5.6Z" transform="translate(-107.315 -195.245)" fill="#66fdde"/>
              </g>
              <path id="Trazado_104165" data-name="Trazado 104165" d="M143.013,202.966a12.822,12.822,0,0,1-4.267,8.814c-3.38,2.951-6.995.391-7.675-3.8-.611-3.783.422-9.882,4.586-11.217S143.239,198.812,143.013,202.966Z" transform="translate(-90.669 -168.318)" fill="#b97964"/>
              <path id="Trazado_104166" data-name="Trazado 104166" d="M152.839,206.55a8.039,8.039,0,0,1-5.807,7.357" transform="translate(-125.473 -162.772)" fill="none" stroke="#263238" stroke-linecap="round" stroke-linejoin="round" stroke-width="0.5"/>
            </g>
            <path id="Trazado_104167" data-name="Trazado 104167" d="M162.032,223.8c-4.583,9.992,7.68,97.978,7.68,97.978l-13.676-1.84s-5.724-61.621-13.958-89.365l14.147-6.773v-5.183Z" transform="translate(-27.666 -156.137)" fill="#407bff"/>
            <path id="Trazado_104168" data-name="Trazado 104168" d="M103.074,212.552,96.78,226.478l8.2,5.33,15.877,91.464,30.352-5.212s-10.95-78.9-26.475-97.851l-17.672-1.671Z" transform="translate(61.045 -159.471)" fill="#407bff"/>
            <path id="Trazado_104169" data-name="Trazado 104169" d="M162.032,223.8c-4.583,9.992,7.68,97.978,7.68,97.978l-13.676-1.84s-5.724-61.621-13.958-89.365l14.147-6.773v-5.183Z" transform="translate(-27.666 -156.137)" fill="#ffd947" style="isolation: isolate"/>
            <path id="Trazado_104170" data-name="Trazado 104170" d="M103.074,212.552,96.78,226.478l8.2,5.33,15.877,91.464,30.352-5.212s-10.95-78.9-26.475-97.851l-17.672-1.671Z" transform="translate(61.045 -159.471)" fill="#ffd947" opacity="0.998" style="isolation: isolate"/>
            <path id="Trazado_104171" data-name="Trazado 104171" d="M123.088,226.478l13.652,3.572V219.2l-7.358-6.644Z" transform="translate(34.737 -159.471)" fill="#407bff"/>
            <path id="Trazado_104172" data-name="Trazado 104172" d="M155.248,223.8l-4.744,7.475-3.472-7.475,2.41-5.183Z" transform="translate(-20.883 -156.136)" fill="#407bff"/>
            <path id="Trazado_104173" data-name="Trazado 104173" d="M123.088,226.478l13.652,3.572V219.2l-7.358-6.644Z" transform="translate(34.737 -159.471)" fill="#c4a424" style="isolation: isolate"/>
            <path id="Trazado_104174" data-name="Trazado 104174" d="M155.248,223.8l-4.744,7.475-3.472-7.475,2.41-5.183Z" transform="translate(-20.883 -156.136)" fill="#e5c23b" style="isolation: isolate"/>
            <rect id="Rectángulo_7483" data-name="Rectángulo 7483" width="2.285" height="2.98" transform="translate(100.045 119.127)" fill="#263238"/>
            <rect id="Rectángulo_7484" data-name="Rectángulo 7484" width="2.285" height="2.98" transform="translate(67.632 119.127)" fill="#263238"/>
            <path id="Trazado_104200" data-name="Trazado 104200" d="M44.146,0H0V23.941H44.146Z" transform="translate(0 97.805)" fill="#5b088e"/>
            <rect id="Rectángulo_7486" data-name="Rectángulo 7486" width="27.387" height="23.941" transform="translate(16.759 97.805)" fill="#fff" opacity="0.2" style="isolation: isolate"/>
            <path id="Trazado_104175" data-name="Trazado 104175" d="M209.409,250.144a6.451,6.451,0,0,1,12.9,0Z" transform="translate(-184.618 -142.241)" fill="#fff"/>
            <line id="Línea_179" data-name="Línea 179" x1="1.91" y1="3.577" transform="translate(29.329 103.508)" fill="none" stroke="#407bff" stroke-linecap="round" stroke-linejoin="round" stroke-width="1"/>
            <path id="Trazado_104176" data-name="Trazado 104176" d="M207.336,252.514h4.654a1.035,1.035,0,0,1,1.035,1.034V255.5a1.035,1.035,0,0,1-1.035,1.035h-4.654A1.035,1.035,0,0,1,206.3,255.5v-1.954A1.035,1.035,0,0,1,207.336,252.514Z" transform="translate(-170.522 -137.496)" fill="#263238"/>
            <rect id="Rectángulo_7487" data-name="Rectángulo 7487" width="5.173" height="4.024" rx="0.668" transform="translate(37.33 115.017)" fill="#fff" opacity="0.1" style="isolation: isolate"/>
            <path id="Trazado_104177" data-name="Trazado 104177" d="M212.247,252.514H216.9a1.034,1.034,0,0,1,1.034,1.034V255.5a1.034,1.034,0,0,1-1.034,1.035h-4.654a1.034,1.034,0,0,1-1.034-1.035v-1.954A1.034,1.034,0,0,1,212.247,252.514Z" transform="translate(-183.043 -137.496)" fill="#263238"/>
            <g id="Grupo_54999" data-name="Grupo 54999" transform="translate(29.95 116.225)">
              <rect id="Rectángulo_7488" data-name="Rectángulo 7488" width="0.728" height="1.609" transform="translate(2.433)" opacity="0.5" style="isolation: isolate"/>
              <rect id="Rectángulo_7489" data-name="Rectángulo 7489" width="0.728" height="1.609" transform="translate(0)" opacity="0.5" style="isolation: isolate"/>
            </g>
            <g id="Grupo_55000" data-name="Grupo 55000" transform="translate(17.922 114.97)">
              <path id="Trazado_104178" data-name="Trazado 104178" d="M217.977,252.483a1.649,1.649,0,0,1,1.246.6c.011,0,.022-.008.034-.008a1.536,1.536,0,0,1,0,3.029c-.012,0-.023-.008-.034-.008a1.654,1.654,0,0,1-1.246.6,2.138,2.138,0,0,1,0-4.216Z" transform="translate(-211.291 -252.483)" fill="#263238"/>
              <path id="Trazado_104179" data-name="Trazado 104179" d="M221.143,252.483a1.646,1.646,0,0,1,1.245.6c.012,0,.022-.008.036-.008a1.536,1.536,0,0,1,0,3.029c-.014,0-.023-.008-.036-.008a1.653,1.653,0,0,1-1.245.6,2.138,2.138,0,0,1,0-4.216Z" transform="translate(-219.361 -252.483)" fill="#263238"/>
            </g>
            <ellipse id="Elipse_4236" data-name="Elipse 4236" cx="1.28" cy="1.514" rx="1.28" ry="1.514" transform="translate(24.609 115.563)" fill="#fff" opacity="0.1" style="isolation: isolate"/>
            <g id="Grupo_55001" data-name="Grupo 55001" transform="translate(19.704 115.563)" opacity="0.1" style="isolation: isolate">
              <ellipse id="Elipse_4237" data-name="Elipse 4237" cx="1.28" cy="1.514" rx="1.28" ry="1.514" transform="translate(0)" fill="#fff"/>
            </g>
            <path id="Trazado_104180" data-name="Trazado 104180" d="M219.311,240.659l6.04-6.042s12.923-5.742,13.559,8.72-22.052,54.22-43.819,60.554-29.507-16.048-30.235-33.675c-.141-3.411-5.6-5.231-8.047-5.231h-5.825" transform="translate(-110.681 -147.956)" fill="none" stroke="#263238" stroke-linecap="round" stroke-linejoin="round" stroke-width="1"/>
            <g id="Grupo_55002" data-name="Grupo 55002" transform="translate(84.544 90.177)">
              <path id="Trazado_104181" data-name="Trazado 104181" d="M184.924,240.067l2.026,1.825-14.1,15.656-1.544.7-5.254,5.835-1.013-.912,5.254-5.835.53-1.608Z" transform="translate(-165.041 -234.518)" fill="#263238"/>
              <path id="Trazado_104182" data-name="Trazado 104182" d="M184.924,240.067l2.026,1.825-14.1,15.656-1.544.7-5.254,5.835-1.013-.912,5.254-5.835.53-1.608Z" transform="translate(-165.041 -234.518)" fill="#fff" opacity="0.4" style="isolation: isolate"/>
              <path id="Trazado_104183" data-name="Trazado 104183" d="M164.309,250.43l12.12-13.459a1.461,1.461,0,0,1,2.064-.108l1.169,1.052a1.463,1.463,0,0,1,.108,2.064l-12.12,13.459.339,2.392-.118.132-6.1-5.49.119-.13Z" transform="translate(-153.176 -236.487)" fill="#17efc8"/>
            </g>
            <path id="Trazado_104184" data-name="Trazado 104184" d="M186.116,253.22l-17.128-7.734s-5.56-3.988-7.6-5.352-18.8,2.52-19.416,2.725,2.453,10.832,3.066,11.854,15.533-.966,16.35-1.3a5.618,5.618,0,0,0,1.723-1.561l16.7,7.277Z" transform="translate(-43.778 -144.463)" fill="#b97964"/>
            <g id="Grupo_55003" data-name="Grupo 55003" transform="translate(122.518 60.737)">
              <path id="Trazado_104185" data-name="Trazado 104185" d="M170.623,217.492s-9.654,45.17-14.89,50.051-42.658-10.273-42.658-10.273l-5.71,14.879s32.45,16.311,48.368,13.965,24.436-29.281,24.9-41.282C181.55,221.437,170.623,217.492,170.623,217.492Z" transform="translate(-107.366 -217.492)" fill="#e5c23b"/>
              <path id="Trazado_104186" data-name="Trazado 104186" d="M170.623,217.492s-9.654,45.17-14.89,50.051-42.658-10.273-42.658-10.273l-5.71,14.879s32.45,16.311,48.368,13.965,24.436-29.281,24.9-41.282C181.55,221.437,170.623,217.492,170.623,217.492Z" transform="translate(-107.366 -217.492)" fill="#e5c23b" opacity="0.7" style="isolation: isolate"/>
            </g>
            <rect id="Rectángulo_7490" data-name="Rectángulo 7490" width="40.774" height="1.22" transform="translate(64.023 118.517)" fill="#407bff"/>
          </g>
        </g>
        <g id="Grupo_55010" data-name="Grupo 55010" transform="translate(9.118 121.233)">
          <g id="Grupo_55005" data-name="Grupo 55005" transform="translate(104.519 11.1)">
            <path id="Trazado_104187" data-name="Trazado 104187" d="M179.6,501.2H170.1l-1.551-237.517h12.6Z" transform="translate(-168.554 -263.686)" fill="#407bff"/>
            <path id="Trazado_104188" data-name="Trazado 104188" d="M181.15,263.933l-.248,38.321-1.3,198.813h-9.5l-1.3-198.813-.248-38.321Z" transform="translate(-168.547 -263.55)" fill="#1e866f" style="isolation: isolate"/>
            <path id="Trazado_104189" data-name="Trazado 104189" d="M181.15,263.933,180.9,302.68H168.8l-.248-38.747Z" transform="translate(-168.547 -263.55)" opacity="0.2" style="isolation: isolate"/>
          </g>
          <g id="Grupo_55006" data-name="Grupo 55006" transform="translate(189.812 11.1)">
            <path id="Trazado_104190" data-name="Trazado 104190" d="M131.068,501.2h-9.495l-17.06-237.517h12.6Z" transform="translate(-104.509 -263.686)" fill="#407bff"/>
            <path id="Trazado_104191" data-name="Trazado 104191" d="M131.075,501.067h-9.5L105.346,275.348l-.837-11.415h12.6l.682,11.415Z" transform="translate(-104.51 -263.55)" fill="#1e866f" style="isolation: isolate"/>
            <path id="Trazado_104192" data-name="Trazado 104192" d="M126.362,274.782H113.916l-.837-10.849h12.6Z" transform="translate(-113.079 -263.55)" opacity="0.2" style="isolation: isolate"/>
          </g>
          <g id="Grupo_55007" data-name="Grupo 55007" transform="translate(5.263 11.1)">
            <path id="Trazado_104193" data-name="Trazado 104193" d="M233.083,501.2h-9.495l13.958-237.517h12.6Z" transform="translate(-223.588 -263.686)" fill="#407bff"/>
            <path id="Trazado_104194" data-name="Trazado 104194" d="M250.139,263.933l-.837,11.415L233.075,501.067h-9.485l13.267-225.719.682-11.415Z" transform="translate(-223.587 -263.55)" fill="#1e866f" style="isolation: isolate"/>
            <path id="Trazado_104195" data-name="Trazado 104195" d="M224.271,263.933h12.6l-.837,10.849H223.589Z" transform="translate(-210.319 -263.55)" opacity="0.2" style="isolation: isolate"/>
          </g>
          <g id="Grupo_55008" data-name="Grupo 55008" transform="translate(9.236 5.152)">
            <path id="Rectángulo_7491" data-name="Rectángulo 7491" d="M0,0H203.162a0,0,0,0,1,0,0V9.734A2.162,2.162,0,0,1,201,11.9H2.162A2.162,2.162,0,0,1,0,9.734V0A0,0,0,0,1,0,0Z" transform="translate(0 0)" fill="#407bff"/>
            <path id="Trazado_104199" data-name="Trazado 104199" d="M2.809,11.9H200.354a2.809,2.809,0,0,0,2.809-2.809V0H0V9.088A2.809,2.809,0,0,0,2.809,11.9Z" transform="translate(0 0)" fill="#1e866f"/>
          </g>
          <rect id="Rectángulo_7493" data-name="Rectángulo 7493" width="203.162" height="5.948" transform="translate(9.236 5.152)" opacity="0.2" style="isolation: isolate"/>
          <g id="Grupo_55009" data-name="Grupo 55009">
            <path id="Trazado_104196" data-name="Trazado 104196" d="M319.4,263.227H104.468a3.351,3.351,0,0,1-3.351-3.351h0a3.352,3.352,0,0,1,3.351-3.352H319.4a3.352,3.352,0,0,1,3.351,3.352h0A3.351,3.351,0,0,1,319.4,263.227Z" transform="translate(-101.117 -256.524)" fill="#1e866f"/>
            <path id="Trazado_104197" data-name="Trazado 104197" d="M319.4,263.227H104.468a3.351,3.351,0,0,1-3.351-3.351h0a3.352,3.352,0,0,1,3.351-3.352H319.4a3.352,3.352,0,0,1,3.351,3.352h0A3.351,3.351,0,0,1,319.4,263.227Z" transform="translate(-101.117 -256.524)" fill="#1e866f" opacity="0.2" style="isolation: isolate"/>
          </g>
        </g>
      </g>
    </g>
  </g>
</svg>
