<svg xmlns="http://www.w3.org/2000/svg" xmlns:xlink="http://www.w3.org/1999/xlink" width="88" height="88" viewBox="0 0 88 88">
  <defs>
    <filter id="Elipse_7199" x="0" y="0" width="88" height="88" filterUnits="userSpaceOnUse">
      <feOffset dy="3" input="SourceAlpha"/>
      <feGaussianBlur stdDeviation="3" result="blur"/>
      <feFlood flood-opacity="0.161"/>
      <feComposite operator="in" in2="blur"/>
      <feComposite in="SourceGraphic"/>
    </filter>
  </defs>
  <g id="Grupo_952666" data-name="Grupo 952666" transform="translate(-951 -2870)">
    <g transform="matrix(1, 0, 0, 1, 951, 2870)" filter="url(#Elipse_7199)">
      <circle id="Elipse_7199-2" data-name="Elipse 7199" cx="35" cy="35" r="35" transform="translate(9 6)" fill="#00cca7"/>
    </g>
    <g id="motor-del-coche" transform="translate(949.011 2841.207)">
      <path id="Trazado_657329" data-name="Trazado 657329" d="M176.954,328.16v0l.791,2.978L200.677,331,203,328.16Z" transform="translate(-142.257 -241.724)" fill="#6d7486"/>
      <path id="Trazado_657330" data-name="Trazado 657330" d="M205.533,348.87h-22.8l.792,2.838h19.684Z" transform="translate(-147.21 -259.476)" fill="#4a5160"/>
      <path id="Trazado_657331" data-name="Trazado 657331" d="M207.962,368.74H188.278l.826,2.958h17.767l.688-2.466Z" transform="translate(-151.963 -276.507)" fill="#6d7486"/>
      <path id="Trazado_657332" data-name="Trazado 657332" d="M194.537,391.171a.853.853,0,0,0,.823.626q.156.258.332.5h12.468l.412-.5h1.947a.855.855,0,0,0,.824-.626l.48-1.721H194.057Z" transform="translate(-156.917 -294.259)" fill="#4a5160"/>
      <path id="Trazado_657333" data-name="Trazado 657333" d="M170.47,165.438h24.506l-3.077-2.261a3.581,3.581,0,0,0-2.123-.7H175.67a3.584,3.584,0,0,0-2.123.7Z" transform="translate(-136.699 -99.711)" fill="#6d7486"/>
      <path id="Trazado_657334" data-name="Trazado 657334" d="M177.827,184.677,175.8,183.19H151.295l-2.023,1.487a3.583,3.583,0,0,0-1.169,1.464l0,.007H179A3.59,3.59,0,0,0,177.827,184.677Z" transform="translate(-117.525 -117.463)" fill="#4a5160"/>
      <path id="Trazado_657335" data-name="Trazado 657335" d="M177.385,206.3a3.6,3.6,0,0,0-.163-2.4h-30.9a3.607,3.607,0,0,0-.163,2.4l.156.559H177.23Z" transform="translate(-115.75 -135.215)" fill="#6d7486"/>
      <path id="Trazado_657336" data-name="Trazado 657336" d="M178.961,224.61H148.05l.825,2.958h29.261Z" transform="translate(-117.482 -152.966)" fill="#4a5160"/>
      <path id="Trazado_657337" data-name="Trazado 657337" d="M182.6,247.063h0l.486-1.741h-29.26l.826,2.957h29.481Z" transform="translate(-122.434 -170.718)" fill="#6d7486"/>
      <path id="Trazado_657338" data-name="Trazado 657338" d="M189.971,266.729l-.027-.021-.853-.677H159.61l.826,2.958h30.909A3.633,3.633,0,0,0,189.971,266.729Z" transform="translate(-127.39 -188.469)" fill="#4a5160"/>
      <path id="Trazado_657339" data-name="Trazado 657339" d="M196.354,287.37a3.664,3.664,0,0,0-.055-.63H165.39l.826,2.958h29.293A3.618,3.618,0,0,0,196.354,287.37Z" transform="translate(-132.345 -206.221)" fill="#6d7486"/>
      <path id="Trazado_657340" data-name="Trazado 657340" d="M200.419,307.506c.016-.018.029-.037.044-.056H171.17l.826,2.958h26.046Z" transform="translate(-137.299 -223.972)" fill="#4a5160"/>
      <path id="Trazado_657341" data-name="Trazado 657341" d="M119.306,95.622,105.557,85.081a4.278,4.278,0,0,0-2.6-.881H84.065a4.278,4.278,0,0,0-2.6.881L67.717,95.622a3.289,3.289,0,0,0-1.156,3.523l.273.943,10.317,35.6a3.006,3.006,0,0,0,2.886,2.173h26.95a3.006,3.006,0,0,0,2.886-2.173l10.589-36.547a3.289,3.289,0,0,0-1.156-3.523Zm-8.664,20.525-7.524,9.192-1.169,4.187a.855.855,0,0,1-.824.626H99.178l-.559.683h0a7.665,7.665,0,0,1-12.652-.683.853.853,0,0,1-.823-.626l-7.053-25.269-.156-.559a3.6,3.6,0,0,1,1.334-3.871l5.1-3.748a3.584,3.584,0,0,1,2.123-.7H100.6a3.581,3.581,0,0,1,2.123.7l5.1,3.748a3.6,3.6,0,0,1,1.334,3.871l-.156.559-1.311,4.7h0l2.386,1.893.027.021a3.638,3.638,0,0,1,.539,5.274Z" transform="translate(-47.522 -32.614)" fill="#b3d1e7"/>
      <path id="Trazado_657342" data-name="Trazado 657342" d="M239.671,430.114H235.9A7.612,7.612,0,0,0,239.671,430.114Z" transform="translate(-192.782 -329.114)" fill="#b3d1e7"/>
      <path id="Trazado_657343" data-name="Trazado 657343" d="M218.309,410.231h0l.058-.071h-12.3a7.632,7.632,0,0,0,4.261,2.85H214.1A7.686,7.686,0,0,0,218.309,410.231Z" transform="translate(-167.213 -312.01)" fill="#6d7486"/>
      <path id="Trazado_657344" data-name="Trazado 657344" d="M205.585,409.512h12.3l.088-.108H205.505C205.531,409.44,205.558,409.476,205.585,409.512Z" transform="translate(-166.729 -311.362)" fill="#6d7486"/>
      <rect id="Rectángulo_350812" data-name="Rectángulo 350812" width="26.046" transform="translate(34.697 86.436)" fill="#4a5160"/>
      <path id="Trazado_657345" data-name="Trazado 657345" d="M364.591,86.058,362.279,89.1,350.74,80.257l2.291-3.017Z" transform="translate(-291.217 -26.648)" fill="#6d7486"/>
      <path id="Trazado_657346" data-name="Trazado 657346" d="M371.658,61.607,359.7,52.483a1.721,1.721,0,0,0-2.337.233l-1.583,1.8,14.7,11.215,1.424-1.623a1.721,1.721,0,0,0-.249-2.5Z" transform="translate(-295.537 -5.125)" fill="#b0b5ca"/>
      <path id="Trazado_657347" data-name="Trazado 657347" d="M409,62.482a1.348,1.348,0,0,1,.254,1.887l-.781.891-.009.01L401.56,60l.009-.011.781-.891a1.343,1.343,0,0,1,1.883-.256Z" transform="translate(-334.778 -10.643)" fill="#6d7486"/>
      <path id="Trazado_657348" data-name="Trazado 657348" d="M75.859,77.24l2.291,3.017L66.611,89.1,64.3,86.058Z" transform="translate(-45.695 -26.648)" fill="#6d7486"/>
      <path id="Trazado_657349" data-name="Trazado 657349" d="M55.3,52.716a1.721,1.721,0,0,0-2.337-.233L41.008,61.607a1.721,1.721,0,0,0-.249,2.5l1.424,1.623,14.7-11.215Z" transform="translate(-25.15 -5.125)" fill="#b0b5ca"/>
      <path id="Trazado_657350" data-name="Trazado 657350" d="M62.589,59.989,62.6,60l-6.908,5.27-.009-.01-.781-.891a1.348,1.348,0,0,1,.254-1.887l4.771-3.64a1.343,1.343,0,0,1,1.883.256Z" transform="translate(-37.402 -10.643)" fill="#6d7486"/>
      <path id="Trazado_657351" data-name="Trazado 657351" d="M216.627,198.409l-15.2-12.059-10.685,5.044h0l.657,22.32,13.772,4.678h0L217.193,203.7Z" transform="translate(-154.073 -120.172)" fill="#d4e1f4"/>
      <path id="Trazado_657352" data-name="Trazado 657352" d="M196.539,336.083a7.665,7.665,0,1,1,3.917,3.228A7.665,7.665,0,0,1,196.539,336.083Z" transform="translate(-158.095 -238.545)" fill="#efcb7b"/>
      <path id="Trazado_657353" data-name="Trazado 657353" d="M338.631,269.353a3.626,3.626,0,1,1-1.456-2.911l.027.021A3.629,3.629,0,0,1,338.631,269.353Z" transform="translate(-274.622 -188.204)" fill="#4689d3"/>
      <path id="Trazado_657354" data-name="Trazado 657354" d="M201.383,176.347a6.394,6.394,0,1,1-10.3,2.533l.009-.023a6.387,6.387,0,0,1,9.752-2.953A5.99,5.99,0,0,1,201.383,176.347Z" transform="translate(-154.03 -110.169)" fill="#5fcda4"/>
      <path id="Trazado_657355" data-name="Trazado 657355" d="M220.38,342.633a5.089,5.089,0,1,1-6.508,3.028A5.089,5.089,0,0,1,220.38,342.633Z" transform="translate(-173.632 -253.87)" fill="#d8a43d"/>
      <path id="Trazado_657356" data-name="Trazado 657356" d="M237.905,364.175a1.981,1.981,0,1,1-2.536,1.179A1.981,1.981,0,0,1,237.905,364.175Z" transform="translate(-192.223 -272.492)" fill="#efcb7b"/>
      <path id="Trazado_657357" data-name="Trazado 657357" d="M222.413,204.273a2.272,2.272,0,1,1-2.908,1.353A2.272,2.272,0,0,1,222.413,204.273Z" transform="translate(-178.61 -135.417)" fill="#49c160"/>
      <path id="Trazado_657358" data-name="Trazado 657358" d="M404.99,176.13a1.152,1.152,0,1,1-1.15,1.153A1.152,1.152,0,0,1,404.99,176.13Z" transform="translate(-336.732 -111.412)" fill="#8aafc4"/>
      <ellipse id="Elipse_7905" data-name="Elipse 7905" cx="1.15" cy="1.153" rx="1.15" ry="1.153" transform="translate(57.118 98.934)" fill="#8aafc4"/>
      <path id="Trazado_657359" data-name="Trazado 657359" d="M391.481,198.911a5.9,5.9,0,0,1,2.273,6.568l-5.23,17.271a6.624,6.624,0,0,1-6.031,4.694l-5.313.3,1.326-4.576L382.3,223a2.178,2.178,0,0,0,1.983-1.544l5.23-17.271a1.461,1.461,0,0,0-.563-1.626l-3.717-2.594,1.319-4.547Z" transform="translate(-313.88 -127.946)" fill="#628db2"/>
      <path id="Trazado_657360" data-name="Trazado 657360" d="M32.5,223.17l1.326,4.576-5.313-.3a6.624,6.624,0,0,1-6.031-4.694l-5.23-17.271a5.9,5.9,0,0,1,2.273-6.568l4.934-3.491,1.319,4.547-3.717,2.594a1.461,1.461,0,0,0-.563,1.626l5.23,17.271A2.178,2.178,0,0,0,28.711,223Z" transform="translate(-5.148 -127.946)" fill="#628db2"/>
      <path id="Trazado_657361" data-name="Trazado 657361" d="M72,95.622l.721-.553,11.539-8.847,1.488-1.141a4.278,4.278,0,0,1,2.6-.881H84.065a4.278,4.278,0,0,0-2.6.881L67.717,95.622a3.289,3.289,0,0,0-1.156,3.523l.273.943,10.317,35.6a3.006,3.006,0,0,0,2.886,2.173h4.286a3.006,3.006,0,0,1-2.886-2.173l-10.317-35.6-.273-.943A3.289,3.289,0,0,1,72,95.622Z" transform="translate(-47.522 -32.614)" fill="#a3c1d3"/>
      <path id="Trazado_657362" data-name="Trazado 657362" d="M93.21,176.13a1.151,1.151,0,1,1-.814.338,1.152,1.152,0,0,1,.814-.338Z" transform="translate(-69.49 -111.412)" fill="#8aafc4"/>
      <ellipse id="Elipse_7906" data-name="Elipse 7906" cx="1.15" cy="1.153" rx="1.15" ry="1.153" transform="translate(32.56 98.934)" fill="#8aafc4"/>
      <g id="Grupo_950257" data-name="Grupo 950257" transform="translate(10.989 46.151)">
        <path id="Trazado_657363" data-name="Trazado 657363" d="M157.965,409.654a2.01,2.01,0,1,0,2.007,2.01,2.01,2.01,0,0,0-2.007-2.01Zm0,2.305a.3.3,0,1,1,.293-.3A.3.3,0,0,1,157.965,411.959Z" transform="translate(-135.245 -357.727)" fill="#284268"/>
        <path id="Trazado_657364" data-name="Trazado 657364" d="M329.884,409.654a2.01,2.01,0,1,0,2.007,2.01,2.01,2.01,0,0,0-2.007-2.01Zm0,2.305a.3.3,0,1,1,.293-.3A.3.3,0,0,1,329.884,411.959Z" transform="translate(-282.605 -357.727)" fill="#284268"/>
        <path id="Trazado_657365" data-name="Trazado 657365" d="M88.038,170.127a2.01,2.01,0,1,0,2.007,2.01A2.01,2.01,0,0,0,88.038,170.127Zm0,2.305a.3.3,0,1,1,.293-.3.3.3,0,0,1-.293.3Z" transform="translate(-75.307 -152.417)" fill="#284268"/>
        <path id="Trazado_657366" data-name="Trazado 657366" d="M399.842,174.147a2.01,2.01,0,1,0-2.007-2.009,2.01,2.01,0,0,0,2.007,2.009Zm0-2.305a.3.3,0,1,1-.293.3A.3.3,0,0,1,399.842,171.841Z" transform="translate(-342.574 -152.417)" fill="#284268"/>
        <path id="Trazado_657367" data-name="Trazado 657367" d="M78.1,70.266l-4.438-3.139.1-.357A4.118,4.118,0,0,0,72.3,62.329l-.045-.034,1.277-1.681.888.677a.857.857,0,0,0,1.164-.116l1.425-1.623A2.579,2.579,0,0,0,76.64,55.8l-1.7-1.3.186-.212q.02-.023.038-.047a2.209,2.209,0,0,0-.418-3.088l-4.77-3.639a2.2,2.2,0,0,0-3.065.392l-.245.28-1.983-1.513a2.586,2.586,0,0,0-3.5.349l-1.582,1.8a.857.857,0,0,0,.124,1.247l.891.68L59.36,52.4l-.805-.617a5.157,5.157,0,0,0-3.12-1.058H36.543a5.156,5.156,0,0,0-3.12,1.059l-.8.617-1.254-1.651.891-.68a.857.857,0,0,0,.124-1.247l-1.582-1.8a2.586,2.586,0,0,0-3.5-.349L25.313,48.19l-.245-.28A2.2,2.2,0,0,0,22,47.518l-4.77,3.639a2.209,2.209,0,0,0-.418,3.087c.012.016.025.032.038.047l.186.212-1.7,1.3a2.579,2.579,0,0,0-.374,3.752l1.426,1.623a.857.857,0,0,0,1.164.116l.888-.677,1.277,1.681-.045.034a4.118,4.118,0,0,0-1.457,4.441l.1.357-4.434,3.136a6.757,6.757,0,0,0-2.6,7.519l5.231,17.271a7.478,7.478,0,0,0,6.8,5.3l4.707.268.781,2.7a3.881,3.881,0,0,0,3.708,2.79H59.464a3.882,3.882,0,0,0,3.709-2.79l.781-2.7,4.7-.267a7.482,7.482,0,0,0,6.813-5.3l5.231-17.271a6.756,6.756,0,0,0-2.6-7.515Zm-3.521,5.052a.606.606,0,0,1,.233.675L69.577,93.263a1.319,1.319,0,0,1-1.2.935l-2.6.116,6.057-20.907Zm-6.358-26.3c.013-.015.026-.031.038-.047a.485.485,0,0,1,.681-.093l4.77,3.64a.492.492,0,0,1,.106.669l-.238.271-5.543-4.228Zm-5.748-.864a.867.867,0,0,1,1.174-.117L75.6,57.163a.865.865,0,0,1,.125,1.258l-.9,1.022L61.492,49.268Zm-.492,3.637,10.2,7.779L70.9,61.251l-10.178-7.8ZM31.257,53.448l-10.179,7.8L19.8,59.573,30,51.794Zm-12.985-.927,4.77-3.64a.484.484,0,0,1,.68.093c.012.016.025.032.038.047l.186.212L18.4,53.461l-.238-.271a.492.492,0,0,1,.106-.669ZM17.15,59.443l-.9-1.022a.865.865,0,0,1,.125-1.258L28.335,48.04a.867.867,0,0,1,1.174.117l.976,1.112Zm2.99,13.966L26.2,94.316,23.6,94.2a1.319,1.319,0,0,1-1.2-.935L17.171,75.992a.606.606,0,0,1,.233-.675ZM23.4,98.642a5.765,5.765,0,0,1-5.249-4.086L12.925,77.285a5.049,5.049,0,0,1,1.948-5.619l3.953-2.8.811,2.8-3.214,2.243a2.316,2.316,0,0,0-.892,2.577L20.76,93.76a3.036,3.036,0,0,0,2.765,2.151l3.175.142.818,2.822Zm38.122,4.2a2.159,2.159,0,0,1-2.062,1.553H32.513a2.159,2.159,0,0,1-2.062-1.553L27.49,92.616l1.3-.419a.857.857,0,1,0-.525-1.632l-1.253.4-.665-2.3,1.293-.416a.857.857,0,1,0-.525-1.632l-1.245.4-.666-2.3,1.286-.414a.857.857,0,1,0-.525-1.632l-1.238.4-.666-2.3,1.278-.411a.857.857,0,1,0-.525-1.632l-1.23.4-.665-2.3,1.27-.409a.857.857,0,1,0-.525-1.632l-1.223.393-2.579-8.9a2.445,2.445,0,0,1,.854-2.6L34.466,53.148a3.432,3.432,0,0,1,2.077-.7h.4v2.1a.857.857,0,0,0,1.714,0v-2.1h2.382v2.1a.857.857,0,1,0,1.714,0v-2.1h2.382v2.1a.857.857,0,1,0,1.714,0v-2.1h2.382v2.1a.857.857,0,0,0,1.714,0v-2.1h2.382v2.1a.857.857,0,1,0,1.714,0v-2.1h.4a3.432,3.432,0,0,1,2.077.7L71.262,63.689a2.445,2.445,0,0,1,.854,2.6l-2.58,8.9L68.311,74.8a.857.857,0,1,0-.525,1.632l1.272.409-.665,2.3-1.232-.4a.857.857,0,0,0-.525,1.632l1.28.412-.665,2.3-1.24-.4a.857.857,0,1,0-.525,1.632l1.287.414-.665,2.3-1.247-.4a.857.857,0,1,0-.525,1.632l1.295.417-.665,2.3-1.255-.4a.857.857,0,1,0-.525,1.632l1.3.419ZM79.053,77.285,73.823,94.556a5.768,5.768,0,0,1-5.259,4.087l-4.1.233.818-2.822,3.176-.142a3.036,3.036,0,0,0,2.764-2.151L76.448,76.49a2.316,2.316,0,0,0-.893-2.577L72.341,71.67l.811-2.8,3.957,2.8A5.048,5.048,0,0,1,79.053,77.285Z" transform="translate(-10.989 -46.151)" fill="#284268"/>
        <path id="Trazado_657368" data-name="Trazado 657368" d="M215.534,336.641a5.953,5.953,0,1,0,3.527,7.631A5.924,5.924,0,0,0,215.534,336.641Zm1.916,7.043a4.225,4.225,0,1,1-2.508-5.434A4.21,4.21,0,0,1,217.45,343.684Z" transform="translate(-179.48 -294.833)" fill="#284268"/>
        <path id="Trazado_657369" data-name="Trazado 657369" d="M233.059,358.221a2.834,2.834,0,1,0,1.687,3.636A2.833,2.833,0,0,0,233.059,358.221Zm.075,3.052a1.122,1.122,0,1,1-.666-1.443A1.119,1.119,0,0,1,233.134,361.273Z" transform="translate(-198.071 -313.493)" fill="#284268"/>
        <path id="Trazado_657370" data-name="Trazado 657370" d="M215.417,204.194a3.131,3.131,0,1,0-1.859-4.014A3.123,3.123,0,0,0,215.417,204.194Zm-.248-3.426a1.4,1.4,0,1,1,.039,1.084,1.412,1.412,0,0,1-.039-1.084Z" transform="translate(-184.457 -176.417)" fill="#284268"/>
        <path id="Trazado_657371" data-name="Trazado 657371" d="M174.406,178.646a4.486,4.486,0,0,0-.67-6.485l0,0-1.967-1.561,1.314-4.711a4.481,4.481,0,0,0-1.653-4.792l-5.1-3.748a4.413,4.413,0,0,0-2.63-.863H149.6a4.412,4.412,0,0,0-2.63.863l-5.1,3.748a4.482,4.482,0,0,0-1.653,4.792l7.208,25.827a1.719,1.719,0,0,0,1.131,1.171,8.526,8.526,0,0,0,13.874.4l.261-.319h1.541a1.719,1.719,0,0,0,1.649-1.253L167,187.7l7.41-9.053Zm-2.935-14.532a2.736,2.736,0,0,1-.02,1.244h-6.284l-1.568-1.244Zm-.5,2.958-.661,2.37-2.987-2.37Zm-2.353-5.917,1.693,1.244h-8.876l-1.568-1.244Zm-20.642-2.428a2.71,2.71,0,0,1,1.615-.53H163.7a2.71,2.71,0,0,1,1.615.53l.971.714h-8.6a7.229,7.229,0,0,0-7.057-.545,7.333,7.333,0,0,0-.973.545h-2.651Zm-6.154,5.387h4.734a7.229,7.229,0,0,0-.129,1.244h-4.585A2.736,2.736,0,0,1,141.826,164.114Zm.5,2.958h4.149l.037,1.244h-3.838Zm.826,2.958h3.411l.037,1.244h-3.1Zm.826,2.958h2.672l.037,1.244h-2.362Zm.826,2.958h1.934l.037,1.244h-1.623Zm.826,2.958h1.2l.037,1.244h-.885Zm.826,2.958h.457l.054,1.83Zm.666-19.464h-4.135l1.693-1.244h3.18A7.252,7.252,0,0,0,147.117,162.4Zm1.364,1.178a5.505,5.505,0,1,1,.157,4.248,5.537,5.537,0,0,1-.157-4.248Zm13.547,26.89a6.864,6.864,0,0,1-.958,1.769l-.011.013a6.853,6.853,0,1,1,.969-1.782Zm2.2.786h-.138l.21-.257Zm-.078-2.781a8.531,8.531,0,0,0-15.49-5.3l-.378-12.84a7.247,7.247,0,0,0,12.5-6.268l9.188,7.29a4.49,4.49,0,0,0,.947,8.853Zm6.86-9.976a2.776,2.776,0,1,1,2.768-2.776,2.776,2.776,0,0,1-2.768,2.776Z" transform="translate(-121.614 -140.722)" fill="#284268"/>
      </g>
    </g>
  </g>
</svg>
