<svg xmlns="http://www.w3.org/2000/svg" xmlns:xlink="http://www.w3.org/1999/xlink" width="259.492" height="322.768" viewBox="0 0 259.492 322.768">
  <defs>
    <clipPath id="clip-path">
      <rect id="Rectángulo_352099" data-name="Rectángulo 352099" width="259.492" height="322.768" fill="none"/>
    </clipPath>
    <clipPath id="clip-path-3">
      <rect id="Rectángulo_352097" data-name="Rectángulo 352097" width="236.829" height="145.63" fill="none"/>
    </clipPath>
  </defs>
  <g id="Grupo_952638" data-name="Grupo 952638" transform="translate(0 0)">
    <g id="Grupo_952637" data-name="Grupo 952637" transform="translate(0 0)" clip-path="url(#clip-path)">
      <g id="Grupo_952636" data-name="Grupo 952636">
        <g id="Grupo_952635" data-name="Grupo 952635" clip-path="url(#clip-path)">
          <path id="Trazado_659772" data-name="Trazado 659772" d="M303.068,152.169c-2.537,5.005-12.809,38.773-17,52.7.245,4.5.682,9.078,1.386,13.683,2.873,18.9,5.885,40.6,7.761,54.37h-66.79c-.022-.933-.048-1.8-.086-2.6-.011-.229-.022-.442-.037-.656a3,3,0,0,0-.016-.314c-.011-.208-.022-.405-.037-.592-.005-.1-.011-.186-.016-.277a11.6,11.6,0,0,0-.341-2.447c-.922-2.575-4.585-12.329-20.085-27.552-14.659-14.4-17.5-34.312-22.473-42.963-.128-.56-17.75-45.538-18.278-47.968l-7.687-21.769c-.016-.24-.266-2.985-6.945-12.355-2.809-3.945-3.6-6.871-3.15-9.089.671-3.31,4.126-5.032,7.809-6.135,6.146-1.85,11.513.831,19.77,8.747a74.032,74.032,0,0,1,9.525,12.1,23.338,23.338,0,0,1,1.786,3.246c2.681,5.917,11.727,25.938,12.164,27.345,2.249,2.516,4.7,5.24,4.7,5.24,23.5,15.415,35.8,7.686,35.8,7.686l1.647-.719a5.384,5.384,0,0,0,2.511-7.644c-7.164-12.34-18.544-31.924-20.389-35.021-2.574-4.334-4.9-10.826-6.013-13.166a5.658,5.658,0,0,0-.352-.661,2.656,2.656,0,0,0-.336-.394c-1.311-1.279-4.856-2.857-7.649-4.344-3.1-1.637-6.967-2.894-24.632-16.684s-16.455-19.771-13.075-24.919a4.676,4.676,0,0,1,3.358-2c4.206-.682,10.783,1.929,16.508,3.886q1.543.535,2.985.97c8.07,2.42,12.521,5.815,14.52,6.69.688.3,4.344,2.085,9.067,4.456.89.192,1.807.394,2.755.613,15.746,3.614,28.982,9.238,38.337,17.846s21.684,29.13,34.066,37.435,12.137,16.934,8.928,23.256" transform="translate(-64.662 -24.67)" fill="#ecb98c"/>
          <path id="Trazado_659773" data-name="Trazado 659773" d="M260.924,160.38c-7.179-12.365-18.112-31.181-19.913-34.209-2.578-4.334-4.9-10.83-6.014-13.165a5.3,5.3,0,0,0-.354-.662,2.613,2.613,0,0,0-.337-.395c-1.309-1.283-4.854-2.858-7.65-4.344-3.095-1.638-6.963-2.894-24.631-16.683-10.606-8.277-14.406-13.744-15.018-17.9A149.627,149.627,0,0,0,203.681,88.8c15.325,11.962,20.134,14.367,23,15.8.438.219.841.421,1.231.629.688.363,1.448.745,2.182,1.115,2.477,1.25,4.821,2.431,6.078,3.667a5.2,5.2,0,0,1,.718.855,8.093,8.093,0,0,1,.534.983c.37.776.817,1.866,1.386,3.247a80.07,80.07,0,0,0,4.51,9.7c1.884,3.159,7.342,15.434,14.152,27.168.177.308,1.7,4.047,3.447,8.419" transform="translate(-81.071 -31.656)" fill="#d4a477"/>
          <path id="Trazado_659774" data-name="Trazado 659774" d="M159.368,161.215c-.01-.239-.266-2.988-6.942-12.357-2.808-3.942-3.6-6.871-3.153-9.088a9.922,9.922,0,0,1,7.9-.56c5.876,2.12,9.783,6.417,9.357,11.659s-3.175,8.638-3.805,8.95a10.337,10.337,0,0,1-3.354,1.395" transform="translate(-64.662 -60.101)" fill="#f6e2ca"/>
          <path id="Trazado_659775" data-name="Trazado 659775" d="M344.532,147.854c-1.35-1.6-.6-1.233-12.613-12.141-12.613-11.449-28.97-32.825-34.048-36.579-3.341-2.476-16.417-9.228-25.523-13.795.891.194,1.811.4,2.76.616q1.077.246,2.138.507c8.728,4.421,19.387,10,22.36,12.2,5.075,3.756,21.087,25.524,34.048,36.58,2.366,2.018,8.712,8.608,10.879,12.613" transform="translate(-118.068 -36.996)" fill="#d4a477"/>
          <path id="Trazado_659776" data-name="Trazado 659776" d="M206.369,63.46c-1.514.1-7.914-2.265-9.037-3.912a7.313,7.313,0,0,1-.965-2.533c4.21-.681,10.784,1.932,16.506,3.889a17.93,17.93,0,0,1-6.5,2.556" transform="translate(-85.129 -24.669)" fill="#f6e2ca"/>
          <path id="Trazado_659777" data-name="Trazado 659777" d="M235.207,359.038l5.213,25.683,97.056-19.7-5.2-25.595Z" transform="translate(-101.967 -147.147)" fill="#fff"/>
          <path id="Trazado_659778" data-name="Trazado 659778" d="M318.594,349.494l5.2,25.64,49.828-10.115-5.2-25.595Z" transform="translate(-138.116 -147.147)" fill="#e6e6e6"/>
          <path id="Trazado_659779" data-name="Trazado 659779" d="M400.167,482.18H346.091L324.5,378.248l51.856-10.531Z" transform="translate(-140.676 -159.412)" fill="#263e53"/>
          <path id="Trazado_659780" data-name="Trazado 659780" d="M308.293,490.239H256.845l-19.538-93.905,49.091-9.97.3-.057Z" transform="translate(-102.877 -167.472)" fill="#32526e"/>
          <path id="Trazado_659781" data-name="Trazado 659781" d="M395.666,226.807l-24.1-15.573L364.5,223.058,389.639,236.9a2.6,2.6,0,0,0,3.493-.946l3.356-5.619a2.6,2.6,0,0,0-.822-3.524" transform="translate(-158.019 -91.574)" fill="#4b6579"/>
          <path id="Trazado_659782" data-name="Trazado 659782" d="M365.585,206.455l-5.981-5.819-9.151,15.32,7.959,2.507Z" transform="translate(-151.928 -86.98)" fill="#1e3e57"/>
          <path id="Trazado_659783" data-name="Trazado 659783" d="M76.578,36.635l-42.6-25.447a1.822,1.822,0,0,0-2.5.63l-4.15,6.947a1.823,1.823,0,0,0,.63,2.5l42.6,25.447Z" transform="translate(-11.735 -4.738)" fill="#4b6579"/>
          <path id="Trazado_659784" data-name="Trazado 659784" d="M104.6,69.119,113.093,54.9l-3.082-.483-7.3,12.215Z" transform="translate(-44.529 -23.592)" fill="#1e3e57"/>
          <rect id="Rectángulo_352082" data-name="Rectángulo 352082" width="16.559" height="7.18" transform="matrix(0.513, -0.859, 0.859, 0.513, 60.073, 45.527)" fill="#4b6579"/>
          <rect id="Rectángulo_352083" data-name="Rectángulo 352083" width="13.558" height="10.075" transform="translate(67.007 47.922) rotate(-59.151)" fill="#1e3e57"/>
          <path id="Trazado_659785" data-name="Trazado 659785" d="M138.2,96.879a11.807,11.807,0,0,0,9.9,1.06,6.466,6.466,0,0,1,5.494.589l91.51,55.756a8.366,8.366,0,0,0,11.536-2.854l4.782-8a8.367,8.367,0,0,0-2.955-11.511L166,77.772a6.469,6.469,0,0,1-3.124-4.559A11.8,11.8,0,0,0,157.247,65l-9.87-5.9a4.77,4.77,0,0,0-6.541,1.649L126.683,84.443a4.769,4.769,0,0,0,1.649,6.54Z" transform="translate(-54.627 -25.328)" fill="#e77e23"/>
          <path id="Trazado_659786" data-name="Trazado 659786" d="M151.3,61.226l-6.1-3.641a2.868,2.868,0,0,0-3.932.991l-16.1,26.961a2.867,2.867,0,0,0,.991,3.931l6.1,3.641Z" transform="translate(-54.086 -24.788)" fill="#333"/>
          <path id="Trazado_659787" data-name="Trazado 659787" d="M15.612,13.992,0,0,19.722,7.113Z" transform="translate(0 0)" fill="#1e3e57"/>
          <rect id="Rectángulo_352084" data-name="Rectángulo 352084" width="13.559" height="0.924" transform="matrix(0.513, -0.858, 0.858, 0.513, 73.54, 51.824)" fill="#4b6579"/>
          <rect id="Rectángulo_352085" data-name="Rectángulo 352085" width="13.559" height="0.924" transform="matrix(0.513, -0.858, 0.858, 0.513, 72.113, 50.972)" fill="#4b6579"/>
          <rect id="Rectángulo_352086" data-name="Rectángulo 352086" width="13.558" height="0.924" transform="matrix(0.513, -0.858, 0.858, 0.513, 70.687, 50.12)" fill="#4b6579"/>
          <rect id="Rectángulo_352087" data-name="Rectángulo 352087" width="13.559" height="0.924" transform="matrix(0.513, -0.858, 0.858, 0.513, 69.261, 49.268)" fill="#4b6579"/>
          <rect id="Rectángulo_352088" data-name="Rectángulo 352088" width="13.559" height="0.924" transform="matrix(0.513, -0.858, 0.858, 0.513, 67.835, 48.416)" fill="#4b6579"/>
          <rect id="Rectángulo_352089" data-name="Rectángulo 352089" width="1.072" height="7.18" transform="translate(60.629 44.595) rotate(-59.147)" fill="#1e3e57"/>
          <rect id="Rectángulo_352090" data-name="Rectángulo 352090" width="1.072" height="7.18" transform="translate(61.605 42.962) rotate(-59.147)" fill="#1e3e57"/>
          <rect id="Rectángulo_352091" data-name="Rectángulo 352091" width="1.072" height="7.18" transform="translate(62.58 41.329) rotate(-59.147)" fill="#1e3e57"/>
          <rect id="Rectángulo_352092" data-name="Rectángulo 352092" width="1.072" height="7.18" transform="translate(63.556 39.695) rotate(-59.147)" fill="#1e3e57"/>
          <rect id="Rectángulo_352093" data-name="Rectángulo 352093" width="1.072" height="7.18" transform="translate(64.532 38.062) rotate(-59.147)" fill="#1e3e57"/>
          <rect id="Rectángulo_352094" data-name="Rectángulo 352094" width="1.072" height="7.18" transform="translate(65.507 36.429) rotate(-59.147)" fill="#1e3e57"/>
          <rect id="Rectángulo_352095" data-name="Rectángulo 352095" width="1.072" height="7.18" transform="translate(66.483 34.796) rotate(-59.147)" fill="#1e3e57"/>
          <rect id="Rectángulo_352096" data-name="Rectángulo 352096" width="1.072" height="7.18" transform="translate(67.458 33.162) rotate(-59.147)" fill="#1e3e57"/>
          <path id="Trazado_659788" data-name="Trazado 659788" d="M370.135,223.291a1.308,1.308,0,0,0-1.794.452l-2.849,4.77,2.294,1.263,2.8-4.69a1.308,1.308,0,0,0-.452-1.794" transform="translate(-158.448 -96.721)" fill="#1e3e57"/>
          <path id="Trazado_659789" data-name="Trazado 659789" d="M378.561,221.694a1.308,1.308,0,0,0,1.794-.452l2.738-4.583-2.2-1.421-2.785,4.663a1.308,1.308,0,0,0,.452,1.794" transform="translate(-163.837 -93.309)" fill="#1e3e57"/>
          <path id="Trazado_659790" data-name="Trazado 659790" d="M380.953,229.7a1.308,1.308,0,0,0-1.794.452l-2.721,4.556,2.294,1.263,2.674-4.476a1.308,1.308,0,0,0-.452-1.794" transform="translate(-163.193 -99.497)" fill="#1e3e57"/>
          <path id="Trazado_659791" data-name="Trazado 659791" d="M389.281,228.261a1.307,1.307,0,0,0,1.794-.451l2.61-4.37-2.2-1.421-2.657,4.449a1.308,1.308,0,0,0,.452,1.794" transform="translate(-168.485 -96.249)" fill="#1e3e57"/>
          <path id="Trazado_659792" data-name="Trazado 659792" d="M391.771,236.1a1.308,1.308,0,0,0-1.794.452l-2.593,4.342,2.294,1.262,2.546-4.262a1.308,1.308,0,0,0-.452-1.794" transform="translate(-167.938 -102.273)" fill="#1e3e57"/>
          <path id="Trazado_659793" data-name="Trazado 659793" d="M400,234.828a1.308,1.308,0,0,0,1.794-.452l2.482-4.156-2.2-1.421-2.529,4.234a1.308,1.308,0,0,0,.452,1.794" transform="translate(-173.132 -99.189)" fill="#1e3e57"/>
          <path id="Trazado_659794" data-name="Trazado 659794" d="M402.59,242.5a1.308,1.308,0,0,0-1.794.452l-2.465,4.128,2.293,1.263,2.418-4.049a1.308,1.308,0,0,0-.452-1.794" transform="translate(-172.684 -105.049)" fill="#1e3e57"/>
          <path id="Trazado_659795" data-name="Trazado 659795" d="M410.722,241.4a1.308,1.308,0,0,0,1.794-.452L414.871,237l-2.2-1.421-2.4,4.021a1.308,1.308,0,0,0,.452,1.794" transform="translate(-177.78 -102.129)" fill="#1e3e57"/>
          <g id="Grupo_952634" data-name="Grupo 952634" transform="translate(0 0.015)" opacity="0.17">
            <g id="Grupo_952633" data-name="Grupo 952633">
              <g id="Grupo_952632" data-name="Grupo 952632" clip-path="url(#clip-path-3)">
                <path id="Trazado_659796" data-name="Trazado 659796" d="M236.829,141.489l-1.728,2.9a2.613,2.613,0,0,1-3.5.946l-3.682-2.028-2.294-1.263-3.9-2.153-2.294-1.258-3.909-2.153-2.294-1.263-3.909-2.153-2.289-1.263-.561-.306-7.557-2.379a8.354,8.354,0,0,1-8.446-.147L98.959,73.211a6.479,6.479,0,0,0-5.495-.589,11.8,11.8,0,0,1-9.9-1.059l-5.41-3.229-6.1-3.642a2.868,2.868,0,0,1-.991-3.931l.974-1.631,3.6-6.027-8.65-5.166-.77,1.286-6.163-3.682-1.886-2.481.64-1.071L16.207,16.534a1.819,1.819,0,0,1-.629-2.5L15.6,14,0,.027Z" transform="translate(0 -0.027)" fill="#231f20"/>
              </g>
            </g>
          </g>
        </g>
      </g>
    </g>
  </g>
</svg>
