<svg xmlns="http://www.w3.org/2000/svg" xmlns:xlink="http://www.w3.org/1999/xlink" width="175.091" height="359.941" viewBox="0 0 175.091 359.941">
  <defs>
    <clipPath id="clip-path">
      <rect id="Rectángulo_352111" data-name="Rectángulo 352111" width="175.091" height="359.941" fill="none"/>
    </clipPath>
    <clipPath id="clip-path-3">
      <rect id="Rectángulo_352100" data-name="Rectángulo 352100" width="80.147" height="181.592" fill="none"/>
    </clipPath>
    <clipPath id="clip-path-4">
      <rect id="Rectángulo_352101" data-name="Rectángulo 352101" width="105.668" height="105.668" fill="none"/>
    </clipPath>
    <clipPath id="clip-path-5">
      <rect id="Rectángulo_352105" data-name="Rectángulo 352105" width="40.784" height="46.583" fill="none"/>
    </clipPath>
    <clipPath id="clip-path-6">
      <rect id="Rectángulo_352106" data-name="Rectángulo 352106" width="97.515" height="89.587" fill="none"/>
    </clipPath>
    <clipPath id="clip-path-7">
      <rect id="Rectángulo_352107" data-name="Rectángulo 352107" width="30.355" height="17.785" fill="none"/>
    </clipPath>
  </defs>
  <g id="Grupo_952657" data-name="Grupo 952657" transform="translate(0 -0.001)">
    <g id="Grupo_952656" data-name="Grupo 952656" transform="translate(0 0.001)" clip-path="url(#clip-path)">
      <g id="Grupo_952655" data-name="Grupo 952655">
        <g id="Grupo_952654" data-name="Grupo 952654" clip-path="url(#clip-path)">
          <path id="Trazado_659797" data-name="Trazado 659797" d="M111.411,433.147l-2.53-1.058L34.607,401.448s17.276-27.805,19.248-38.158,2.218-55.468,8.873-71.738a173.044,173.044,0,0,1,9.951-19.622c4.641-8.2,13.348-26.97,17.909-34.982.415-.727.825-1.506,1.226-2.327a127.086,127.086,0,0,0,7.9-22.447v-.008c.178-.812,1.887-1.916,4.053-2.035,4.4-.245,10.7,3.574,9.874,22.134-.157,3.571-.279,6.715-.394,9.524-.559,14.215-.838,19.88-4.172,29.06-1.125,3.1-2.6,6.6-4.556,10.97l30.012-31.653s.059.118.178.347c0,.008,0,.012.008.017,1.918,4.353,17.965,48.592,27.958,78.881.723,2.193-4.589,5.652-3.937,7.678.792,2.461,7.531,3.444,8.193,5.591,1.827,5.927,3.108,10.525,3.555,13.027.186,1.047-1.8,6-2.091,6.512a103.256,103.256,0,0,1-28.414,32.139s-15.987,10.572-28.565,38.79" transform="translate(-15.003 -91.091)" fill="#ecb98c"/>
          <g id="Grupo_952641" data-name="Grupo 952641" transform="translate(76.731 119.028)" opacity="0.39">
            <g id="Grupo_952640" data-name="Grupo 952640">
              <g id="Grupo_952639" data-name="Grupo 952639" clip-path="url(#clip-path-3)">
                <path id="Trazado_659798" data-name="Trazado 659798" d="M136.161,353.263c2.415,6.515,10.179,8.8,10.437,9.451.491,1.252-4.07,7.776-1.041,13.6a16.131,16.131,0,0,0,9.645,7.721c2.116.58,3.626.191,4.007.534,3.279,2.948,9.887,8.524,18.289,6.824,9.629-1.95,12.434-10.449,13.238-14.714a3.95,3.95,0,0,1,2.1-2.779.055.055,0,0,1,.017-.013c1.332-.677,3.5-3.122,4.75-3.8a116.839,116.839,0,0,0,13.062-9.1c4.4-3.611,5.039-6.4,4.924-7.022-.64-3.463-10.193-7.742-13.136-16.884-1.562-4.856,2.673-11.477.764-17.126-9.905-29.31-23.06-65.519-24.785-69.433,0,0,0-.008-.008-.017-.118-.228-.178-.347-.178-.347l-30.012,31.653c.977-2.187,1.832-4.15,2.589-5.961s1.4-3.461,1.967-5.009a59.923,59.923,0,0,0,2.289-7.738V263.1c.279-1.278.508-2.564.7-3.9v0c.66-4.582.88-9.756,1.181-17.413.114-2.809.237-5.953.394-9.523.825-18.56-5.47-22.38-9.874-22.135,1.671,1.134,5.461,2.107,7.357,9.193,2.149,8.029.037,22.24-2.036,34.018a117.665,117.665,0,0,1-6.325,21.94c-1.379,3.52-5.077,12.729-5.174,12.979.245-.123,10.035-5.06,11.131-2.5,1.713,4.01,1.108,7.564,1.349,9.654.309,2.712-14.888,7.721-16.758,21.715-1.231,9.223,10.018,12.4,9.278,15.015s-14.02,10.661-10.141,21.119" transform="translate(-135.452 -210.119)" fill="#d4a477"/>
              </g>
            </g>
          </g>
          <g id="Grupo_952644" data-name="Grupo 952644" transform="translate(61.805 7.617)" opacity="0.25">
            <g id="Grupo_952643" data-name="Grupo 952643">
              <g id="Grupo_952642" data-name="Grupo 952642" clip-path="url(#clip-path-4)">
                <path id="Trazado_659799" data-name="Trazado 659799" d="M109.1,66.281a52.834,52.834,0,1,0,52.835-52.833A52.833,52.833,0,0,0,109.1,66.281" transform="translate(-109.103 -13.447)" fill="#a6ede7"/>
              </g>
            </g>
          </g>
          <path id="Trazado_659800" data-name="Trazado 659800" d="M174.377,211.067l0,161.067a15.746,15.746,0,0,0,4.653,11.2c.055.055.114.113.174.169a15.729,15.729,0,0,0,10.927,4.481c.034,0,.063,0,.1,0a15.865,15.865,0,0,0,15.852-15.852v-6.417l.007-154.65a4.537,4.537,0,0,0-4.54-4.535H178.912a4.536,4.536,0,0,0-4.535,4.535" transform="translate(-75.596 -89.536)" fill="#32526e"/>
          <rect id="Rectángulo_352102" data-name="Rectángulo 352102" width="31.709" height="9.041" transform="translate(98.782 138.267)" fill="#e74b3c"/>
          <rect id="Rectángulo_352103" data-name="Rectángulo 352103" width="31.709" height="4.521" transform="translate(98.783 131.093)" fill="#e74b3c"/>
          <rect id="Rectángulo_352104" data-name="Rectángulo 352104" width="31.709" height="18.081" transform="translate(98.783 150.016)" fill="#e74b3c"/>
          <g id="Grupo_952647" data-name="Grupo 952647" transform="translate(75.773 23.087)" opacity="0.31">
            <g id="Grupo_952646" data-name="Grupo 952646">
              <g id="Grupo_952645" data-name="Grupo 952645" clip-path="url(#clip-path-5)">
                <path id="Trazado_659801" data-name="Trazado 659801" d="M157.484,43.791a38.563,38.563,0,0,1,17.062-2.98,52,52,0,0,0-39.978,46.527,38.737,38.737,0,0,1,22.916-43.548" transform="translate(-133.761 -40.755)" fill="#fff"/>
              </g>
            </g>
          </g>
          <g id="Grupo_952650" data-name="Grupo 952650" transform="translate(62.131 4.837)" opacity="0.24">
            <g id="Grupo_952649" data-name="Grupo 952649">
              <g id="Grupo_952648" data-name="Grupo 952648" clip-path="url(#clip-path-6)">
                <path id="Trazado_659802" data-name="Trazado 659802" d="M124.555,98.125a52.837,52.837,0,0,1,82.639-64.959,52.836,52.836,0,1,0-82.639,64.959" transform="translate(-109.679 -8.538)"/>
              </g>
            </g>
          </g>
          <path id="Trazado_659803" data-name="Trazado 659803" d="M137.842,118.092v2.176a3.648,3.648,0,0,0,3.648,3.649h29.234a3.648,3.648,0,0,0,3.648-3.648v-2.177a60.45,60.45,0,1,0-36.53,0M108.3,60.451a47.806,47.806,0,1,1,47.8,47.807,47.805,47.805,0,0,1-47.8-47.807" transform="translate(-41.47 0)" fill="#32526e"/>
          <path id="Trazado_659804" data-name="Trazado 659804" d="M135.6,236.189a5.5,5.5,0,0,0,4.488-1.639c4.719-4.455,4.783-12.919,3.407-20.818l0,.01a127.314,127.314,0,0,1-7.893,22.448" transform="translate(-58.785 -92.657)" fill="#f6e2ca"/>
          <path id="Trazado_659805" data-name="Trazado 659805" d="M161.064,400.79l12.09-5.379,46.819-25.139c-.211-.1-.409-.2-.589-.275l-.1-.043c-.129-.054-.248-.1-.357-.146l-.115-.044-.021-.007c-.065-.024-.126-.046-.181-.064-.074-.027-.139-.048-.2-.067l-.111-.035-.1-.027-.015,0-.019-.005h0l.078-.086.038-.044c.174-.194.526-.6.994-1.181l-6.857,2.861L176.3,390.5s-7.006,3.951-14.056,7.946c-6.771,3.835-1.181,2.34-1.181,2.34" transform="translate(-68.884 -159.641)" fill="#d4a477"/>
          <path id="Trazado_659806" data-name="Trazado 659806" d="M145.012,369.71c4.8,6.649,11.034,4.714,13.911,3.466a42.109,42.109,0,0,0,4.251-2.189c3.593-2.03,42.292-22.879,42.292-22.879l6.857-2.861c3.082-3.829,9.936-10.79,5.192-21.288-2.718-6.013-9.988-8.305-14.625-8.691-.586-.05-1.569-.076-2.216-.07-.144,0-.273,0-.374.009L183.1,324.75l-1.664.894-.767.655a127.823,127.823,0,0,1-10.054,8.1c-.325.216-.73.506-1.2.858-2.963,2.22-8.583,6.888-14.227,10.667a35.1,35.1,0,0,0-8.842,8.465c-1.975,2.774-6.038,8.812-1.339,15.325" transform="translate(-61.92 -136.644)" fill="#ecb98c"/>
          <path id="Trazado_659807" data-name="Trazado 659807" d="M160.844,396.519l2.487-1.6c1.815-1.16,2.493-3.338,1.517-4.86l-6.466-10.082c-.976-1.522-3.238-1.813-5.053-.652l-2.487,1.6c-5.1,3.273-7.03,9.385-4.322,13.691l.04.063c2.759,4.306,9.158,5.126,14.284,1.839" transform="translate(-62.988 -164.139)" fill="#f6e2ca"/>
          <path id="Trazado_659808" data-name="Trazado 659808" d="M142.372,425.442c2.156,3.345,6.1,4.406,9.485,4.437a17.224,17.224,0,0,0,7.412-1.907L214.1,400.327a13.84,13.84,0,0,0,7.526-14.242,19.809,19.809,0,0,0-1.292-4.808,17.784,17.784,0,0,0-8.37-9.452L186,385.764S160.235,398,147.758,406.925c-3.46,2.476-8.843,8.348-6.954,14.932a13.268,13.268,0,0,0,1.568,3.585" transform="translate(-60.871 -161.193)" fill="#ecb98c"/>
          <path id="Trazado_659809" data-name="Trazado 659809" d="M157.79,451.721l2.435-1.384a3.437,3.437,0,0,0,1.684-4.523l-5.609-9.872c-.847-1.49-2.973-1.881-4.751-.875l-2.435,1.384c-5,2.839-7.132,8.527-4.787,12.742l.034.062c2.393,4.216,8.409,5.318,13.429,2.466" transform="translate(-62.156 -188.368)" fill="#f6e2ca"/>
          <path id="Trazado_659810" data-name="Trazado 659810" d="M168.353,301.857a13.588,13.588,0,0,0,1.771,3.593c2.363,3.32,6.449,4.22,9.909,4.093a13.672,13.672,0,0,0,2.87-.44h0a19.459,19.459,0,0,0,4.622-1.859l3.976-2.208,20-11.1,5.4-3a15.288,15.288,0,0,0,3.75-3.831c4.737-7.118-.095-15.459-3.276-17.87-3.557-2.7-7.722-4.274-13.042-1.975,0,0-17.23,9.277-29.574,19-3.423,2.7-8.654,8.955-6.412,15.6" transform="translate(-72.749 -115.382)" fill="#ecb98c"/>
          <path id="Trazado_659811" data-name="Trazado 659811" d="M184.757,320.089l2.338-1.475a3.391,3.391,0,0,0,1.455-4.536l-5.976-9.479a3.4,3.4,0,0,0-4.723-.647l-2.338,1.474c-4.8,3.025-6.645,8.729-4.143,12.778l.037.06c2.55,4.049,8.531,4.863,13.351,1.825" transform="translate(-73.808 -131.488)" fill="#f6e2ca"/>
          <path id="Trazado_659812" data-name="Trazado 659812" d="M221.021,309.972l5.4-3a15.279,15.279,0,0,0,3.75-3.831l-13.513,7.526-24.239,14.472a19.459,19.459,0,0,0,4.622-1.859l3.976-2.208a127.849,127.849,0,0,1-10.054,8.1c-.325.216-.73.506-1.2.858l33.471-19.984c-.587-.05-1.569-.077-2.216-.07" transform="translate(-82.267 -131.418)" fill="#d4a477"/>
          <path id="Trazado_659813" data-name="Trazado 659813" d="M162.47,453.016c6.111-3.126,12.5-6.329,12.5-6.329l48.687-24.549-3.729,5.387-48.1,23.921-7.9,2.9a22.862,22.862,0,0,1,1.812-1.447c-.2.023-.4.044-.6.062a19.275,19.275,0,0,1-2.671.052" transform="translate(-70.434 -183.005)" fill="#d4a477"/>
          <g id="Grupo_952653" data-name="Grupo 952653" transform="translate(100.132 276.181)" opacity="0.14">
            <g id="Grupo_952652" data-name="Grupo 952652">
              <g id="Grupo_952651" data-name="Grupo 952651" clip-path="url(#clip-path-7)">
                <path id="Trazado_659814" data-name="Trazado 659814" d="M176.762,500.357a15.749,15.749,0,0,0,3.3,4.8c.055.055.114.114.173.169,16.4-2.576,23.636-6.46,26.67-8.821a15.791,15.791,0,0,0,.207-2.547v-6.418l-6.5,2.678Z" transform="translate(-176.762 -487.539)"/>
              </g>
            </g>
          </g>
          <path id="Trazado_659815" data-name="Trazado 659815" d="M155.924,472.4a10.589,10.589,0,0,0,9.942,5.388c13.277-.325,50.366-20.045,53.362-22.119,5.961-3.9,11.452-9.865,7.122-18.829a10.27,10.27,0,0,0-7.563-5.481,6.342,6.342,0,0,0-3.947.6l-19.1,9.6-31.8,15.87a14.762,14.762,0,0,0-7.6,6.422c-1.459,2.556-2.152,5.572-.416,8.543" transform="translate(-67.151 -186.96)" fill="#ecb98c"/>
          <path id="Trazado_659816" data-name="Trazado 659816" d="M170.335,493.907l2.124-1.093a2.931,2.931,0,0,0,1.595-3.795l-4.429-8.611a2.937,2.937,0,0,0-4.016-.914l-2.124,1.093c-4.359,2.242-6.38,7.013-4.531,10.687l.027.054c1.889,3.678,6.976,4.83,11.355,2.578" transform="translate(-68.612 -207.694)" fill="#f6e2ca"/>
          <rect id="Rectángulo_352108" data-name="Rectángulo 352108" width="32.921" height="92.388" transform="matrix(0.275, -0.961, 0.961, 0.275, 15.615, 322.069)" fill="#fff"/>
          <rect id="Rectángulo_352109" data-name="Rectángulo 352109" width="32.921" height="47.429" transform="translate(58.836 334.448) rotate(-74.018)" fill="#e6e6e6"/>
          <path id="Trazado_659817" data-name="Trazado 659817" d="M111.053,564.278l-8.344,28.505H0L16.128,537.1l47.465,13.59Z" transform="translate(0 -232.842)" fill="#32526e"/>
          <path id="Trazado_659818" data-name="Trazado 659818" d="M150.377,574.678l-8.344,28.505H90.71l12.208-42.1Z" transform="translate(-39.325 -243.243)" fill="#263e53"/>
        </g>
      </g>
    </g>
  </g>
</svg>
