<svg xmlns="http://www.w3.org/2000/svg" xmlns:xlink="http://www.w3.org/1999/xlink" width="550" height="354.053" viewBox="0 0 550 354.053">
  <defs>
    <clipPath id="clip-path">
      <rect id="Rectángulo_352081" data-name="Rectángulo 352081" width="550" height="354.053" fill="none"/>
    </clipPath>
  </defs>
  <g id="Grupo_952631" data-name="Grupo 952631" transform="translate(0 0)">
    <g id="Grupo_952630" data-name="Grupo 952630" transform="translate(0 0)" clip-path="url(#clip-path)">
      <path id="Trazado_659618" data-name="Trazado 659618" d="M64.569,246.6H21.308A14.113,14.113,0,0,1,7.2,232.483V128.474a14.113,14.113,0,0,1,14.113-14.113h43.26a14.113,14.113,0,0,1,14.113,14.113V232.483A14.113,14.113,0,0,1,64.569,246.6" transform="translate(-3.567 -56.698)" fill="#e77e23"/>
      <rect id="Rectángulo_351998" data-name="Rectángulo 351998" width="64.123" height="124.872" rx="20.688" transform="translate(7.31 61.345)" fill="#1e3e57"/>
      <path id="Trazado_659619" data-name="Trazado 659619" d="M43.431,339.564a4.6,4.6,0,1,1-4.6-4.6,4.6,4.6,0,0,1,4.6,4.6" transform="translate(-16.971 -166.068)" fill="#1a1a1a"/>
      <path id="Trazado_659620" data-name="Trazado 659620" d="M40.18,337.685a3.228,3.228,0,1,0,3.229,3.227,3.228,3.228,0,0,0-3.229-3.227m0,5.729a2.5,2.5,0,1,1,2.5-2.5,2.5,2.5,0,0,1-2.5,2.5" transform="translate(-18.32 -167.417)" fill="#ad382d"/>
      <path id="Trazado_659621" data-name="Trazado 659621" d="M78.16,339.564a4.6,4.6,0,1,1-4.6-4.6,4.6,4.6,0,0,1,4.6,4.6" transform="translate(-34.189 -166.068)" fill="#9cc4e4"/>
      <path id="Trazado_659622" data-name="Trazado 659622" d="M112.889,339.564a4.6,4.6,0,1,1-4.6-4.6,4.6,4.6,0,0,1,4.6,4.6" transform="translate(-51.407 -166.068)" fill="#9cc4e4"/>
      <path id="Trazado_659623" data-name="Trazado 659623" d="M34.192,215.39H27.839a2.172,2.172,0,0,1-2.172-2.172v-2.172a2.172,2.172,0,0,1,2.172-2.172h6.353a2.172,2.172,0,0,1,2.172,2.172v2.172a2.172,2.172,0,0,1-2.172,2.172" transform="translate(-12.725 -103.555)" fill="#e77e23"/>
      <path id="Trazado_659624" data-name="Trazado 659624" d="M117.814,215.39h-6.353a2.172,2.172,0,0,1-2.172-2.172v-2.172a2.172,2.172,0,0,1,2.172-2.172h6.353a2.172,2.172,0,0,1,2.172,2.172v2.172a2.172,2.172,0,0,1-2.172,2.172" transform="translate(-54.183 -103.555)" fill="#e77e23"/>
      <path id="Trazado_659625" data-name="Trazado 659625" d="M78.419,252.307A20.123,20.123,0,1,1,58.3,232.184a20.123,20.123,0,0,1,20.123,20.123" transform="translate(-18.925 -115.112)" fill="#ad5f1a"/>
      <path id="Trazado_659626" data-name="Trazado 659626" d="M76.059,315.88c-.669,0-1.344-.03-2.008-.089l.1-1.146a21.784,21.784,0,0,0,3.734.008l.068.571L78,315.8q-.979.082-1.938.082" transform="translate(-36.713 -155.994)" fill="#e77e23"/>
      <path id="Trazado_659627" data-name="Trazado 659627" d="M87.84,313.739l-.255-1.121a21.446,21.446,0,0,0,3.572-1.147l.446,1.059a22.578,22.578,0,0,1-3.764,1.209" transform="translate(-43.423 -154.42)" fill="#fff"/>
      <path id="Trazado_659628" data-name="Trazado 659628" d="M64.159,313.675a22.616,22.616,0,0,1-3.757-1.232l.453-1.057a21.435,21.435,0,0,0,3.566,1.169Z" transform="translate(-29.946 -154.378)" fill="#e77e23"/>
      <path id="Trazado_659629" data-name="Trazado 659629" d="M100.574,307.6l-.59-.987a21.619,21.619,0,0,0,3.04-2.2l.752.87a22.793,22.793,0,0,1-3.2,2.317" transform="translate(-49.57 -150.924)" fill="#fff"/>
      <path id="Trazado_659630" data-name="Trazado 659630" d="M51.68,307.47a22.829,22.829,0,0,1-3.192-2.332l.756-.866a21.67,21.67,0,0,0,3.031,2.215Z" transform="translate(-24.039 -150.851)" fill="#e77e23"/>
      <path id="Trazado_659631" data-name="Trazado 659631" d="M111.1,298l-.865-.757a21.771,21.771,0,0,0,2.217-3.029l.984.6A22.926,22.926,0,0,1,111.1,298" transform="translate(-54.652 -145.862)" fill="#fff"/>
      <path id="Trazado_659632" data-name="Trazado 659632" d="M41.777,297.819a22.773,22.773,0,0,1-2.319-3.2l.987-.591a21.472,21.472,0,0,0,2.2,3.038Z" transform="translate(-19.562 -145.772)" fill="#e77e23"/>
      <path id="Trazado_659633" data-name="Trazado 659633" d="M118.417,285.859l-1.057-.453a21.488,21.488,0,0,0,1.172-3.565l1.12.262a22.664,22.664,0,0,1-1.235,3.757" transform="translate(-58.184 -139.73)" fill="#fff"/>
      <path id="Trazado_659634" data-name="Trazado 659634" d="M35.425,285.652a22.664,22.664,0,0,1-1.212-3.763l1.121-.255a21.464,21.464,0,0,0,1.15,3.571Z" transform="translate(-16.962 -139.627)" fill="#e77e23"/>
      <path id="Trazado_659635" data-name="Trazado 659635" d="M121.777,272.2l-1.146-.1c.057-.638.086-1.285.086-1.925,0-.6-.026-1.22-.077-1.829l-.006-.077,1.145-.1.007.079c.054.642.082,1.29.082,1.926,0,.674-.031,1.356-.091,2.027" transform="translate(-59.806 -132.951)" fill="#e77e23"/>
      <path id="Trazado_659636" data-name="Trazado 659636" d="M33.166,272.056l0-.041c-.054-.641-.081-1.289-.081-1.925,0-.663.029-1.331.087-1.987l1.146.1c-.054.622-.082,1.257-.082,1.886,0,.6.026,1.22.077,1.829l0,.039Z" transform="translate(-16.401 -132.919)" fill="#fff"/>
      <path id="Trazado_659637" data-name="Trazado 659637" d="M118.572,258.527a21.478,21.478,0,0,0-1.156-3.569l1.058-.449a22.59,22.59,0,0,1,1.219,3.76Z" transform="translate(-58.212 -126.18)" fill="#e77e23"/>
      <path id="Trazado_659638" data-name="Trazado 659638" d="M35.36,258.469l-1.12-.26a22.619,22.619,0,0,1,1.228-3.759l1.058.452a21.466,21.466,0,0,0-1.166,3.567" transform="translate(-16.975 -126.151)" fill="#fff"/>
      <path id="Trazado_659639" data-name="Trazado 659639" d="M112.539,246.367a21.593,21.593,0,0,0-2.207-3.034l.867-.755a22.682,22.682,0,0,1,2.325,3.2Z" transform="translate(-54.7 -120.265)" fill="#e77e23"/>
      <path id="Trazado_659640" data-name="Trazado 659640" d="M40.523,246.318l-.984-.594a22.853,22.853,0,0,1,2.329-3.194l.867.755a21.705,21.705,0,0,0-2.212,3.033" transform="translate(-19.603 -120.24)" fill="#fff"/>
      <path id="Trazado_659641" data-name="Trazado 659641" d="M103.134,236.723a21.694,21.694,0,0,0-3.035-2.209l.594-.985a22.929,22.929,0,0,1,3.2,2.326Z" transform="translate(-49.627 -115.778)" fill="#fff"/>
      <path id="Trazado_659642" data-name="Trazado 659642" d="M49.352,236.681l-.754-.868a22.729,22.729,0,0,1,3.2-2.323l.592.985a21.646,21.646,0,0,0-3.036,2.205" transform="translate(-24.094 -115.759)" fill="#e77e23"/>
      <path id="Trazado_659643" data-name="Trazado 659643" d="M91.285,230.525a21.483,21.483,0,0,0-3.568-1.163l.259-1.12a22.6,22.6,0,0,1,3.759,1.225Z" transform="translate(-43.488 -113.157)" fill="#fff"/>
      <path id="Trazado_659644" data-name="Trazado 659644" d="M60.982,230.508l-.448-1.059a22.566,22.566,0,0,1,3.763-1.215l.256,1.121a21.462,21.462,0,0,0-3.57,1.153" transform="translate(-30.011 -113.153)" fill="#fff"/>
      <path id="Trazado_659645" data-name="Trazado 659645" d="M74.292,228.325l-.1-1.146.064-.006a22.968,22.968,0,0,1,3.888.005l-.1,1.145a21.8,21.8,0,0,0-3.7,0Z" transform="translate(-36.784 -112.588)" fill="#e74b3c"/>
      <path id="Trazado_659646" data-name="Trazado 659646" d="M58.3,232.184a20.122,20.122,0,1,0,20.122,20.122A20.119,20.119,0,0,0,58.3,232.184M40.282,252.306A18.005,18.005,0,0,1,56.817,234.36l-1.038,2.176a7.063,7.063,0,0,0-.7,3.061v20.316c0,5.556-6.972,8.251-10.556,4.006a17.939,17.939,0,0,1-4.243-11.613m31.982,11.383A6.044,6.044,0,0,1,61.515,259.9V239.6a7.145,7.145,0,0,0-.692-3.061l-1.044-2.176a18.011,18.011,0,0,1,12.486,29.329" transform="translate(-18.928 -115.112)" fill="#e77e23"/>
      <path id="Rectángulo_351999" data-name="Rectángulo 351999" d="M5.159,0h42.32a5.159,5.159,0,0,1,5.159,5.159V22.948a5.16,5.16,0,0,1-5.16,5.16H5.16A5.16,5.16,0,0,1,0,22.948V5.159A5.159,5.159,0,0,1,5.159,0Z" transform="translate(13.052 70.184)" fill="#8dd8ff"/>
      <path id="Trazado_659647" data-name="Trazado 659647" d="M75.922,139.2H28.486a2.6,2.6,0,0,0-2.6,2.6V164.7a2.6,2.6,0,0,0,2.6,2.6H75.922a2.6,2.6,0,0,0,2.6-2.6V141.794a2.6,2.6,0,0,0-2.6-2.6m1.453,25.5a1.454,1.454,0,0,1-1.453,1.453H28.49a1.451,1.451,0,0,1-1.453-1.453V141.794a1.448,1.448,0,0,1,1.453-1.449H75.922a1.451,1.451,0,0,1,1.453,1.449Z" transform="translate(-12.834 -69.01)" fill="#fff"/>
      <path id="Trazado_659648" data-name="Trazado 659648" d="M74.316,242.444l1.9-3.29,1.9,3.29Z" transform="translate(-36.844 -118.567)" fill="#e74b3c"/>
      <path id="Trazado_659649" data-name="Trazado 659649" d="M39.3,164.781H34.92l-1.153,1.152,1.153,1.153H39.3l1.152-1.153Z" transform="translate(-16.741 -81.695)" fill="#333"/>
      <path id="Trazado_659650" data-name="Trazado 659650" d="M104.089,158.543l1.152-1.153v-4.384l-2.3-2.3v6.689Z" transform="translate(-51.033 -74.715)" fill="#333"/>
      <path id="Trazado_659651" data-name="Trazado 659651" d="M103.75,149.888l2.3,2.3h4.384l2.3-2.3Z" transform="translate(-51.437 -74.311)" fill="#333"/>
      <path id="Trazado_659652" data-name="Trazado 659652" d="M110.439,179.674h-4.384l-2.3,2.3h8.993Z" transform="translate(-51.437 -89.078)" fill="#333"/>
      <path id="Trazado_659653" data-name="Trazado 659653" d="M105.241,169.033l-1.152-1.152-1.153,1.152v6.688l2.3-2.3Z" transform="translate(-51.034 -83.232)" fill="#333"/>
      <path id="Trazado_659654" data-name="Trazado 659654" d="M117.829,157.391l1.152,1.153,1.153-1.153V150.7l-2.3,2.3Z" transform="translate(-58.417 -74.715)" fill="#333"/>
      <path id="Trazado_659655" data-name="Trazado 659655" d="M118.982,167.88l-1.152,1.152v4.384l2.3,2.3v-6.689Z" transform="translate(-58.417 -83.231)" fill="#333"/>
      <path id="Trazado_659656" data-name="Trazado 659656" d="M79.713,158.543l1.152-1.153v-4.384l-2.3-2.3v6.689Z" transform="translate(-38.948 -74.715)" fill="#333"/>
      <path id="Trazado_659657" data-name="Trazado 659657" d="M79.374,149.888l2.3,2.3h4.384l2.3-2.3Z" transform="translate(-39.352 -74.311)" fill="#333"/>
      <path id="Trazado_659658" data-name="Trazado 659658" d="M86.063,179.674H81.679l-2.3,2.3h8.993Z" transform="translate(-39.352 -89.078)" fill="#333"/>
      <path id="Trazado_659659" data-name="Trazado 659659" d="M80.865,169.033l-1.152-1.152-1.153,1.152v6.688l2.3-2.3Z" transform="translate(-38.948 -83.232)" fill="#333"/>
      <path id="Trazado_659660" data-name="Trazado 659660" d="M93.453,157.391l1.153,1.153,1.152-1.153V150.7l-2.3,2.3Z" transform="translate(-46.332 -74.715)" fill="#333"/>
      <path id="Trazado_659661" data-name="Trazado 659661" d="M94.605,167.88l-1.153,1.152v4.384l2.3,2.3v-6.689Z" transform="translate(-46.332 -83.231)" fill="#333"/>
      <path id="Trazado_659662" data-name="Trazado 659662" d="M55.337,158.543l1.153-1.153v-4.384l-2.3-2.3v6.689Z" transform="translate(-26.864 -74.715)" fill="#333"/>
      <path id="Trazado_659663" data-name="Trazado 659663" d="M55,149.888l2.3,2.3h4.384l2.3-2.3Z" transform="translate(-27.267 -74.311)" fill="#333"/>
      <path id="Trazado_659664" data-name="Trazado 659664" d="M61.687,179.674H57.3l-2.3,2.3h8.993Z" transform="translate(-27.267 -89.078)" fill="#333"/>
      <path id="Trazado_659665" data-name="Trazado 659665" d="M56.489,169.033l-1.153-1.152-1.152,1.152v6.688l2.3-2.3Z" transform="translate(-26.863 -83.232)" fill="#333"/>
      <path id="Trazado_659666" data-name="Trazado 659666" d="M69.077,157.391l1.153,1.153,1.152-1.153V150.7l-2.3,2.3Z" transform="translate(-34.247 -74.715)" fill="#333"/>
      <path id="Trazado_659667" data-name="Trazado 659667" d="M70.229,167.88l-1.153,1.152v4.384l2.3,2.3v-6.689Z" transform="translate(-34.247 -83.231)" fill="#333"/>
      <path id="Trazado_659668" data-name="Trazado 659668" d="M399.729,48.842l-12.663-.361L387,50.789l12.663.361,7.876-.93Z" transform="translate(-191.866 -24.036)" fill="#1e3e57"/>
      <path id="Trazado_659669" data-name="Trazado 659669" d="M362.14,50.142l.254-8.928,11.159,1.245a2.384,2.384,0,0,1,2.373,2.127l-.084,2.958a2.383,2.383,0,0,1-2.49,1.989Z" transform="translate(-179.541 -20.433)" fill="#333"/>
      <path id="Trazado_659670" data-name="Trazado 659670" d="M357.089,48.975l.323-11.355a1.1,1.1,0,0,1,1.125-1.063l.324.01a1.094,1.094,0,0,1,1.063,1.125L359.6,49.047a1.1,1.1,0,0,1-1.125,1.063l-.324-.009a1.1,1.1,0,0,1-1.063-1.125" transform="translate(-177.036 -18.124)" fill="#5c5c5c"/>
      <path id="Trazado_659671" data-name="Trazado 659671" d="M307.846,39.99l-17.975-1q-1.445-.08-2.895-.1L259.22,39.907a2.051,2.051,0,0,0-1.975,1.991l-.064,2.237a2.051,2.051,0,0,0,1.859,2.1l27.653,2.6q1.447.066,2.9.068l18,.02Z" transform="translate(-127.504 -19.28)" fill="#333"/>
      <path id="Trazado_659672" data-name="Trazado 659672" d="M112.9,342.17H101.822v-8.045a1.964,1.964,0,0,1,1.964-1.964h7.154a1.964,1.964,0,0,1,1.964,1.964Z" transform="translate(-50.481 -164.678)" fill="#e74b3c"/>
      <rect id="Rectángulo_352000" data-name="Rectángulo 352000" width="11.083" height="1.83" transform="translate(51.341 177.491)" fill="#ad382d"/>
      <rect id="Rectángulo_352001" data-name="Rectángulo 352001" width="11.083" height="1.83" transform="translate(51.341 179.35)" fill="#e74b3c"/>
      <rect id="Rectángulo_352002" data-name="Rectángulo 352002" width="11.083" height="1.83" transform="translate(51.341 183.01)" fill="#e74b3c"/>
      <path id="Trazado_659673" data-name="Trazado 659673" d="M111.857,372.041h-8.986a1.048,1.048,0,0,1-1.048-1.048v-.782h11.082v.782a1.048,1.048,0,0,1-1.048,1.048" transform="translate(-50.481 -183.542)" fill="#e74b3c"/>
      <rect id="Rectángulo_352003" data-name="Rectángulo 352003" width="11.083" height="1.83" transform="translate(51.341 181.18)" fill="#ad382d"/>
      <rect id="Rectángulo_352004" data-name="Rectángulo 352004" width="11.083" height="1.83" transform="translate(51.341 184.839)" fill="#ad382d"/>
      <rect id="Rectángulo_352005" data-name="Rectángulo 352005" width="3.014" height="2.372" transform="translate(55.376 180.909)" fill="#e74b3c"/>
      <path id="Trazado_659674" data-name="Trazado 659674" d="M112.482,377.247h-3.735a.367.367,0,0,1-.367-.367v-3.039h4.469v3.039a.367.367,0,0,1-.367.367" transform="translate(-53.732 -185.342)" fill="#e74b3c"/>
      <path id="Trazado_659675" data-name="Trazado 659675" d="M78.176,342.17H67.093v-8.045a1.964,1.964,0,0,1,1.964-1.964h7.154a1.964,1.964,0,0,1,1.964,1.964Z" transform="translate(-33.263 -164.678)" fill="#333"/>
      <rect id="Rectángulo_352006" data-name="Rectángulo 352006" width="11.083" height="1.83" transform="translate(33.83 177.491)" fill="#1a1a1a"/>
      <rect id="Rectángulo_352007" data-name="Rectángulo 352007" width="11.083" height="1.83" transform="translate(33.83 179.35)" fill="#333"/>
      <rect id="Rectángulo_352008" data-name="Rectángulo 352008" width="11.083" height="1.83" transform="translate(33.83 183.01)" fill="#333"/>
      <path id="Trazado_659676" data-name="Trazado 659676" d="M77.128,372.041H68.142a1.049,1.049,0,0,1-1.049-1.048v-.782H78.176v.782a1.048,1.048,0,0,1-1.048,1.048" transform="translate(-33.263 -183.542)" fill="#333"/>
      <rect id="Rectángulo_352009" data-name="Rectángulo 352009" width="11.083" height="1.83" transform="translate(33.83 181.18)" fill="#1a1a1a"/>
      <rect id="Rectángulo_352010" data-name="Rectángulo 352010" width="11.083" height="1.83" transform="translate(33.83 184.839)" fill="#1a1a1a"/>
      <rect id="Rectángulo_352011" data-name="Rectángulo 352011" width="3.014" height="2.372" transform="translate(37.864 180.909)" fill="#333"/>
      <path id="Trazado_659677" data-name="Trazado 659677" d="M77.781,377.247h-3.79a.34.34,0,0,1-.34-.34v-3.066H78.12v3.066a.34.34,0,0,1-.34.34" transform="translate(-36.514 -185.342)" fill="#333"/>
      <path id="Trazado_659678" data-name="Trazado 659678" d="M125.88,234.862H90.116a15.685,15.685,0,0,1-15.668-15.668v-7.157h3.666v7.157a12.016,12.016,0,0,0,12,12H125.88a16.256,16.256,0,0,0,16.237-16.237V62.893a18.871,18.871,0,0,1,18.85-18.85h8.194v3.666h-8.194a15.2,15.2,0,0,0-15.185,15.184V214.96a19.925,19.925,0,0,1-19.9,19.9" transform="translate(-36.91 -21.836)" fill="#333"/>
      <path id="Trazado_659679" data-name="Trazado 659679" d="M293.886,486.316H131.243a22.09,22.09,0,0,1-22.065-22.065V377.218h3.666v87.033a18.42,18.42,0,0,0,18.4,18.4H293.886a8.76,8.76,0,0,0,8.75-8.749V459.184H306.3V473.9a12.429,12.429,0,0,1-12.415,12.415" transform="translate(-54.128 -187.016)" fill="#e74b3c"/>
      <path id="Trazado_659680" data-name="Trazado 659680" d="M494.185,401.437l0,12.668H496.5V401.436l-1.155-7.847Z" transform="translate(-245.006 -195.133)" fill="#1e3e57"/>
      <path id="Trazado_659681" data-name="Trazado 659681" d="M496.555,445.564h-8.932l.926-11.191a2.383,2.383,0,0,1,2.058-2.433h2.96a2.384,2.384,0,0,1,2.059,2.433Z" transform="translate(-241.752 -214.147)" fill="#e74b3c"/>
      <path id="Trazado_659682" data-name="Trazado 659682" d="M495.5,461.472l-11.359,0a1.1,1.1,0,0,1-1.095-1.094v-.324a1.1,1.1,0,0,1,1.095-1.095l11.359,0a1.1,1.1,0,0,1,1.095,1.094v.324a1.094,1.094,0,0,1-1.094,1.095" transform="translate(-239.483 -227.542)" fill="#ec6f63"/>
      <path id="Trazado_659683" data-name="Trazado 659683" d="M487.12,463.944l-.49,18q-.039,1.448-.015,2.9l1.81,27.716a2.051,2.051,0,0,0,2.047,1.917h2.237a2.05,2.05,0,0,0,2.047-1.918l1.8-27.716q.023-1.448-.015-2.9l-.494-18Z" transform="translate(-241.248 -230.012)" fill="#e74b3c"/>
      <path id="Trazado_659684" data-name="Trazado 659684" d="M730.388,21.64c-5.314,1.73-11.011,2.472-16.52,3.19-3.407.444-6.93.9-10.365,1.592q-1.429.287-2.849.626c-4.026.955-7.988,2.188-11.87,3.453a7.018,7.018,0,0,0-1.9.124,1.813,1.813,0,0,0-1.551,2,1.813,1.813,0,0,0,2.287,1.093,6.1,6.1,0,0,0,2.279-1.3,126.1,126.1,0,0,1,14.031-3.871c3.361-.674,6.847-1.128,10.218-1.568,5.608-.731,11.406-1.486,16.913-3.279Z" transform="translate(-339.755 -10.729)" fill="#f1f2f2"/>
      <path id="Trazado_659685" data-name="Trazado 659685" d="M728.072,40.207a24.681,24.681,0,1,1,29.715,18.312,24.681,24.681,0,0,1-29.715-18.312" transform="translate(-360.628 -4.868)" fill="#4b6579"/>
      <path id="Trazado_659686" data-name="Trazado 659686" d="M731.482,41.518A22.938,22.938,0,1,1,759.1,58.537a22.939,22.939,0,0,1-27.617-17.019" transform="translate(-362.342 -6.582)" fill="#1e3e57"/>
      <path id="Trazado_659687" data-name="Trazado 659687" d="M750.839,48.963a13.044,13.044,0,1,1,15.7,9.678,13.045,13.045,0,0,1-15.7-9.678" transform="translate(-372.072 -16.312)" fill="#4b6579"/>
      <path id="Trazado_659688" data-name="Trazado 659688" d="M754.349,50.313a11.25,11.25,0,1,1,13.545,8.347,11.25,11.25,0,0,1-13.545-8.347" transform="translate(-373.837 -18.077)" fill="#162f41"/>
      <rect id="Rectángulo_352012" data-name="Rectángulo 352012" width="2.175" height="12.395" transform="matrix(0.973, -0.231, 0.231, 0.973, 393.138, 41.416)" fill="#4b6579"/>
      <rect id="Rectángulo_352013" data-name="Rectángulo 352013" width="2.175" height="12.395" transform="matrix(0.651, -0.759, 0.759, 0.651, 399.74, 38.18)" fill="#4b6579"/>
      <rect id="Rectángulo_352014" data-name="Rectángulo 352014" width="2.175" height="12.395" transform="translate(403.18 31.681) rotate(-85.359)" fill="#4b6579"/>
      <rect id="Rectángulo_352015" data-name="Rectángulo 352015" width="12.395" height="2.175" transform="translate(401.01 22.543) rotate(-31.354)" fill="#4b6579"/>
      <rect id="Rectángulo_352016" data-name="Rectángulo 352016" width="12.395" height="2.174" transform="matrix(0.385, -0.923, 0.923, 0.385, 395.017, 18.284)" fill="#4b6579"/>
      <rect id="Rectángulo_352017" data-name="Rectángulo 352017" width="2.175" height="12.395" transform="translate(384.8 6.301) rotate(-13.353)" fill="#4b6579"/>
      <rect id="Rectángulo_352018" data-name="Rectángulo 352018" width="2.174" height="12.395" transform="translate(372.355 14.672) rotate(-49.354)" fill="#4b6579"/>
      <rect id="Rectángulo_352019" data-name="Rectángulo 352019" width="2.175" height="12.395" transform="translate(367.206 28.759) rotate(-85.358)" fill="#4b6579"/>
      <rect id="Rectángulo_352020" data-name="Rectángulo 352020" width="12.395" height="2.175" transform="matrix(0.854, -0.52, 0.52, 0.854, 370.19, 41.324)" fill="#4b6579"/>
      <rect id="Rectángulo_352021" data-name="Rectángulo 352021" width="12.395" height="2.174" transform="translate(381.122 51.594) rotate(-67.359)" fill="#4b6579"/>
      <rect id="Rectángulo_352022" data-name="Rectángulo 352022" width="239.771" height="149.308" transform="translate(127.581 50.369)" fill="#488647"/>
      <rect id="Rectángulo_352023" data-name="Rectángulo 352023" width="23.274" height="53.431" transform="translate(142.44 119.917)" fill="#4b6579"/>
      <rect id="Rectángulo_352024" data-name="Rectángulo 352024" width="5.929" height="53.431" transform="translate(136.511 119.917)" fill="#4b6579"/>
      <rect id="Rectángulo_352025" data-name="Rectángulo 352025" width="18.224" height="3.294" transform="translate(144.966 144.986)" fill="#1e3e57"/>
      <path id="Trazado_659689" data-name="Trazado 659689" d="M305.727,256.374a9.112,9.112,0,1,0-9.112,9.112,9.112,9.112,0,0,0,9.112-9.112" transform="translate(-142.537 -122.587)" fill="#1e3e57"/>
      <path id="Trazado_659690" data-name="Trazado 659690" d="M305.727,307.324a9.112,9.112,0,1,0-9.112,9.112,9.112,9.112,0,0,0,9.112-9.112" transform="translate(-142.537 -147.847)" fill="#1e3e57"/>
      <path id="Trazado_659691" data-name="Trazado 659691" d="M304.225,254.275a6.917,6.917,0,0,1-10.068,9.409,6.955,6.955,0,0,1-1.488-1.9,6.918,6.918,0,0,1,10.729-8.394,6.863,6.863,0,0,1,.827.886" transform="translate(-144.7 -124.75)" fill="#bcbec0"/>
      <path id="Trazado_659692" data-name="Trazado 659692" d="M305.015,256.01a6.865,6.865,0,0,1,.661,1.016l-10.729,8.393a6.794,6.794,0,0,1-.827-.886,6.863,6.863,0,0,1-.661-1.016l10.729-8.394a6.862,6.862,0,0,1,.827.886" transform="translate(-145.49 -126.485)" fill="#a7a9ac"/>
      <path id="Trazado_659693" data-name="Trazado 659693" d="M304.933,312.633a6.844,6.844,0,0,1-.644,1.027,6.917,6.917,0,0,1-12.128-6.2,7,7,0,0,1,1.1-2.151,6.917,6.917,0,0,1,12.128,6.2,6.772,6.772,0,0,1-.456,1.123" transform="translate(-144.698 -150.007)" fill="#bcbec0"/>
      <path id="Trazado_659694" data-name="Trazado 659694" d="M305.229,315.326a6.839,6.839,0,0,1-.644,1.027l-12.128-6.2a7,7,0,0,1,1.1-2.151l12.128,6.2a6.771,6.771,0,0,1-.456,1.123" transform="translate(-144.993 -152.699)" fill="#a7a9ac"/>
      <rect id="Rectángulo_352026" data-name="Rectángulo 352026" width="2.488" height="3.586" transform="translate(138.232 157.685)" fill="#1e3e57"/>
      <rect id="Rectángulo_352027" data-name="Rectángulo 352027" width="2.488" height="3.586" transform="translate(138.232 131.995)" fill="#1e3e57"/>
      <path id="Trazado_659695" data-name="Trazado 659695" d="M394.887,251.371a26.934,26.934,0,1,1-26.934-26.934,26.934,26.934,0,0,1,26.934,26.934" transform="translate(-169.069 -111.271)" fill="#414042"/>
      <path id="Trazado_659696" data-name="Trazado 659696" d="M379.99,233.009a21.436,21.436,0,0,1,13.191,4.519l1.5-1.5a23.622,23.622,0,0,0-29.379,0l1.5,1.5a21.42,21.42,0,0,1,13.194-4.523" transform="translate(-181.107 -114.48)" fill="#e74b3c"/>
      <path id="Trazado_659697" data-name="Trazado 659697" d="M364.584,272.984a17.664,17.664,0,1,1,24.981,0,17.685,17.685,0,0,1-24.981,0" transform="translate(-178.191 -120.393)" fill="#dad3cd"/>
      <path id="Trazado_659698" data-name="Trazado 659698" d="M399.2,261.368H381.924l-12.216,12.216c-.217-.193-.428-.393-.635-.6s-.408-.418-.6-.636l12.216-12.216,0-17.272a15.751,15.751,0,0,1,1.746,0l0,16.757H399.2a17.189,17.189,0,0,1,0,1.751" transform="translate(-182.679 -120.392)" fill="#a39e9a"/>
      <path id="Trazado_659699" data-name="Trazado 659699" d="M332.273,369.973H319.538a3.4,3.4,0,0,1-3.4-3.4V353.834a3.4,3.4,0,0,1,3.4-3.4h12.735a3.4,3.4,0,0,1,3.4,3.4v12.735a3.4,3.4,0,0,1-3.4,3.4" transform="translate(-156.732 -173.736)" fill="#414042"/>
      <rect id="Rectángulo_352028" data-name="Rectángulo 352028" width="11.637" height="11.637" transform="translate(163.355 180.647)" fill="#a7a9ac"/>
      <path id="Trazado_659700" data-name="Trazado 659700" d="M371.029,369.973H358.294a3.4,3.4,0,0,1-3.4-3.4V353.834a3.4,3.4,0,0,1,3.4-3.4h12.735a3.4,3.4,0,0,1,3.4,3.4v12.735a3.4,3.4,0,0,1-3.4,3.4" transform="translate(-175.946 -173.736)" fill="#414042"/>
      <rect id="Rectángulo_352029" data-name="Rectángulo 352029" width="11.637" height="11.637" transform="translate(182.896 180.647)" fill="#a7a9ac"/>
      <path id="Trazado_659701" data-name="Trazado 659701" d="M409.785,369.973H397.05a3.4,3.4,0,0,1-3.4-3.4V353.834a3.4,3.4,0,0,1,3.4-3.4h12.735a3.4,3.4,0,0,1,3.4,3.4v12.735a3.4,3.4,0,0,1-3.4,3.4" transform="translate(-195.161 -173.736)" fill="#414042"/>
      <rect id="Rectángulo_352030" data-name="Rectángulo 352030" width="11.637" height="11.637" transform="translate(202.438 180.647)" fill="#a7a9ac"/>
      <path id="Trazado_659702" data-name="Trazado 659702" d="M448.542,369.973H435.807a3.4,3.4,0,0,1-3.4-3.4V353.834a3.4,3.4,0,0,1,3.4-3.4h12.735a3.4,3.4,0,0,1,3.4,3.4v12.735a3.4,3.4,0,0,1-3.4,3.4" transform="translate(-214.375 -173.736)" fill="#414042"/>
      <rect id="Rectángulo_352031" data-name="Rectángulo 352031" width="11.637" height="11.637" transform="translate(221.98 180.647)" fill="#a7a9ac"/>
      <path id="Trazado_659703" data-name="Trazado 659703" d="M487.3,369.973H474.563a3.4,3.4,0,0,1-3.4-3.4V353.834a3.4,3.4,0,0,1,3.4-3.4H487.3a3.4,3.4,0,0,1,3.4,3.4v12.735a3.4,3.4,0,0,1-3.4,3.4" transform="translate(-233.59 -173.736)" fill="#414042"/>
      <rect id="Rectángulo_352032" data-name="Rectángulo 352032" width="11.637" height="11.637" transform="translate(241.522 180.647)" fill="#a7a9ac"/>
      <path id="Trazado_659704" data-name="Trazado 659704" d="M494.507,306.324v-2.635h26.366l25.4,20.022-1.631,2.069-24.685-19.456Z" transform="translate(-245.165 -150.562)" fill="#366535"/>
      <path id="Trazado_659705" data-name="Trazado 659705" d="M544.933,349.87h-.76l-.373-.294-23.841-18.79H494.507V328.15h26.366L543.8,346.22l2.477,1.949Z" transform="translate(-245.165 -162.689)" fill="#366535"/>
      <rect id="Rectángulo_352033" data-name="Rectángulo 352033" width="15.765" height="15.765" transform="translate(298.636 171.418)" fill="#414042"/>
      <path id="Trazado_659706" data-name="Trazado 659706" d="M602.865,355.683a5.123,5.123,0,1,1,5.123-5.123,5.123,5.123,0,0,1-5.123,5.123" transform="translate(-296.347 -171.259)" fill="#d1d3d4"/>
      <rect id="Rectángulo_352034" data-name="Rectángulo 352034" width="15.765" height="15.765" transform="translate(235.458 152.562)" fill="#414042"/>
      <path id="Trazado_659707" data-name="Trazado 659707" d="M477.566,318.287a5.123,5.123,0,1,1,5.123-5.123,5.123,5.123,0,0,1-5.123,5.123" transform="translate(-234.226 -152.719)" fill="#d1d3d4"/>
      <rect id="Rectángulo_352035" data-name="Rectángulo 352035" width="76.953" height="2.635" transform="translate(250.656 96.718)" fill="#366535"/>
      <path id="Trazado_659708" data-name="Trazado 659708" d="M460.41,212.772H438.078v-44.29H407.089v-26.2h2.635v23.567h30.988v44.29h19.7Z" transform="translate(-201.826 -70.539)" fill="#366535"/>
      <path id="Trazado_659709" data-name="Trazado 659709" d="M280.641,148.127h-2.635V131.684h66.4v2.635H280.641Z" transform="translate(-137.829 -65.286)" fill="#366535"/>
      <path id="Trazado_659710" data-name="Trazado 659710" d="M597.52,287.79h-30.78v-8.3h-28.3v-2.635h30.934v8.3H597.52Z" transform="translate(-266.946 -137.26)" fill="#366535"/>
      <rect id="Rectángulo_352036" data-name="Rectángulo 352036" width="23.274" height="127.497" transform="translate(333.538 61.274)" fill="#4b6579"/>
      <rect id="Rectángulo_352037" data-name="Rectángulo 352037" width="5.929" height="127.497" transform="translate(327.609 61.274)" fill="#4b6579"/>
      <rect id="Rectángulo_352038" data-name="Rectángulo 352038" width="18.224" height="3.294" transform="translate(336.063 83.341)" fill="#1e3e57"/>
      <rect id="Rectángulo_352039" data-name="Rectángulo 352039" width="18.224" height="3.294" transform="translate(336.063 109.031)" fill="#1e3e57"/>
      <rect id="Rectángulo_352040" data-name="Rectángulo 352040" width="18.224" height="3.294" transform="translate(336.063 134.721)" fill="#1e3e57"/>
      <rect id="Rectángulo_352041" data-name="Rectángulo 352041" width="18.224" height="3.294" transform="translate(336.063 160.41)" fill="#1e3e57"/>
      <path id="Trazado_659711" data-name="Trazado 659711" d="M684.721,134.118a9.112,9.112,0,1,0-9.112,9.112,9.112,9.112,0,0,0,9.112-9.112" transform="translate(-330.434 -61.975)" fill="#1e3e57"/>
      <path id="Trazado_659712" data-name="Trazado 659712" d="M684.721,185.067a9.112,9.112,0,1,0-9.112,9.112,9.112,9.112,0,0,0,9.112-9.112" transform="translate(-330.434 -87.235)" fill="#1e3e57"/>
      <path id="Trazado_659713" data-name="Trazado 659713" d="M684.721,236.017a9.112,9.112,0,1,0-9.112,9.112,9.112,9.112,0,0,0,9.112-9.112" transform="translate(-330.434 -112.494)" fill="#1e3e57"/>
      <path id="Trazado_659714" data-name="Trazado 659714" d="M684.721,286.966a9.112,9.112,0,1,0-9.112,9.112,9.112,9.112,0,0,0,9.112-9.112" transform="translate(-330.434 -137.754)" fill="#1e3e57"/>
      <path id="Trazado_659715" data-name="Trazado 659715" d="M684.721,337.915a9.112,9.112,0,1,0-9.112,9.112,9.112,9.112,0,0,0,9.112-9.112" transform="translate(-330.434 -163.013)" fill="#1e3e57"/>
      <path id="Trazado_659716" data-name="Trazado 659716" d="M673.047,141.333a6.826,6.826,0,0,1-.81-.9,6.917,6.917,0,0,1,9.3-9.949,6.973,6.973,0,0,1,1.764,1.65,6.917,6.917,0,0,1-9.3,9.949,6.855,6.855,0,0,1-.954-.748" transform="translate(-332.596 -64.138)" fill="#bcbec0"/>
      <path id="Trazado_659717" data-name="Trazado 659717" d="M674.4,142.427a6.822,6.822,0,0,1-.81-.9l9.3-9.949a6.969,6.969,0,0,1,1.764,1.65l-9.3,9.949a6.844,6.844,0,0,1-.954-.748" transform="translate(-333.951 -65.232)" fill="#a7a9ac"/>
      <path id="Trazado_659718" data-name="Trazado 659718" d="M676.964,194.1a6.805,6.805,0,0,1-1.188-.245,6.917,6.917,0,0,1,1.581-13.53,6.951,6.951,0,0,1,2.4.28,6.917,6.917,0,0,1-1.581,13.53,6.793,6.793,0,0,1-1.211-.035" transform="translate(-332.592 -89.393)" fill="#bcbec0"/>
      <path id="Trazado_659719" data-name="Trazado 659719" d="M681.808,194.1a6.8,6.8,0,0,1-1.188-.245l1.581-13.53a6.951,6.951,0,0,1,2.4.28l-1.581,13.53a6.793,6.793,0,0,1-1.211-.035" transform="translate(-337.436 -89.393)" fill="#a7a9ac"/>
      <path id="Trazado_659720" data-name="Trazado 659720" d="M684.342,236.03a6.83,6.83,0,0,1,.274,1.181,6.917,6.917,0,0,1-12.95,4.226,6.958,6.958,0,0,1-.749-2.3,6.917,6.917,0,0,1,12.95-4.226,6.837,6.837,0,0,1,.475,1.115" transform="translate(-332.592 -114.653)" fill="#bcbec0"/>
      <path id="Trazado_659721" data-name="Trazado 659721" d="M684.408,239.624a6.819,6.819,0,0,1,.274,1.181l-12.95,4.226a6.96,6.96,0,0,1-.749-2.3l12.95-4.226a6.831,6.831,0,0,1,.475,1.115" transform="translate(-332.658 -118.247)" fill="#a7a9ac"/>
      <path id="Trazado_659722" data-name="Trazado 659722" d="M683.6,292.843a6.82,6.82,0,0,1-.738.962,6.917,6.917,0,0,1-11.49-7.317,6.961,6.961,0,0,1,1.3-2.038,6.918,6.918,0,0,1,11.49,7.318,6.82,6.82,0,0,1-.56,1.075" transform="translate(-332.595 -139.915)" fill="#bcbec0"/>
      <path id="Trazado_659723" data-name="Trazado 659723" d="M684.115,295.042a6.816,6.816,0,0,1-.738.962l-11.49-7.317a6.964,6.964,0,0,1,1.3-2.038l11.49,7.318a6.82,6.82,0,0,1-.56,1.075" transform="translate(-333.107 -142.114)" fill="#a7a9ac"/>
      <path id="Trazado_659724" data-name="Trazado 659724" d="M684.684,340.074a6.842,6.842,0,0,1-.105,1.208,6.917,6.917,0,0,1-13.622,0,6.974,6.974,0,0,1,0-2.415,6.917,6.917,0,0,1,13.622,0,6.841,6.841,0,0,1,.105,1.208" transform="translate(-332.592 -165.172)" fill="#bcbec0"/>
      <path id="Trazado_659725" data-name="Trazado 659725" d="M684.684,345.688a6.841,6.841,0,0,1-.105,1.208H670.956a6.974,6.974,0,0,1,0-2.415h13.622a6.841,6.841,0,0,1,.105,1.208" transform="translate(-332.592 -170.785)" fill="#a7a9ac"/>
      <rect id="Rectángulo_352042" data-name="Rectángulo 352042" width="2.488" height="3.587" transform="translate(329.329 173.109)" fill="#1e3e57"/>
      <rect id="Rectángulo_352043" data-name="Rectángulo 352043" width="2.488" height="3.587" transform="translate(329.329 147.419)" fill="#1e3e57"/>
      <rect id="Rectángulo_352044" data-name="Rectángulo 352044" width="2.488" height="3.587" transform="translate(329.329 121.729)" fill="#1e3e57"/>
      <rect id="Rectángulo_352045" data-name="Rectángulo 352045" width="2.488" height="3.587" transform="translate(329.329 96.04)" fill="#1e3e57"/>
      <rect id="Rectángulo_352046" data-name="Rectángulo 352046" width="2.488" height="3.587" transform="translate(329.329 70.35)" fill="#1e3e57"/>
      <path id="Trazado_659726" data-name="Trazado 659726" d="M404.264,142.374H393.8a5.621,5.621,0,0,1,0-11.242h10.466a5.621,5.621,0,0,1,0,11.242" transform="translate(-192.449 -65.012)" fill="#f1f2f2"/>
      <path id="Trazado_659727" data-name="Trazado 659727" d="M586.464,142.374H576a5.621,5.621,0,0,1,0-11.242h10.466a5.621,5.621,0,0,1,0,11.242" transform="translate(-282.78 -65.012)" fill="#f1f2f2"/>
      <path id="Trazado_659728" data-name="Trazado 659728" d="M427.585,142.311H405.393a1.841,1.841,0,0,1,0-3.682h22.192Z" transform="translate(-200.072 -68.729)" fill="#d1d3d4"/>
      <path id="Trazado_659729" data-name="Trazado 659729" d="M571.812,142.311H549.62v-3.682h22.192a1.841,1.841,0,1,1,0,3.682" transform="translate(-272.489 -68.729)" fill="#d1d3d4"/>
      <path id="Trazado_659730" data-name="Trazado 659730" d="M497.229,142.455H446.061a4.07,4.07,0,0,1-4.07-4.07V125.593a4.07,4.07,0,0,1,4.07-4.07h51.168a4.07,4.07,0,0,1,4.07,4.07v12.792a4.07,4.07,0,0,1-4.07,4.07" transform="translate(-219.129 -60.248)" fill="#414042"/>
      <rect id="Rectángulo_352047" data-name="Rectángulo 352047" width="2.947" height="11.647" transform="translate(250.656 128.198)" fill="#d1d3d4"/>
      <rect id="Rectángulo_352048" data-name="Rectángulo 352048" width="2.947" height="11.647" transform="translate(257.111 128.198)" fill="#d1d3d4"/>
      <rect id="Rectángulo_352049" data-name="Rectángulo 352049" width="2.947" height="11.647" transform="translate(263.566 128.198)" fill="#d1d3d4"/>
      <rect id="Rectángulo_352050" data-name="Rectángulo 352050" width="2.947" height="11.647" transform="translate(270.021 128.198)" fill="#d1d3d4"/>
      <rect id="Rectángulo_352051" data-name="Rectángulo 352051" width="2.947" height="11.647" transform="translate(250.656 96.625)" fill="#d1d3d4"/>
      <rect id="Rectángulo_352052" data-name="Rectángulo 352052" width="2.947" height="11.647" transform="translate(257.111 96.625)" fill="#d1d3d4"/>
      <rect id="Rectángulo_352053" data-name="Rectángulo 352053" width="2.947" height="11.647" transform="translate(263.566 96.625)" fill="#d1d3d4"/>
      <rect id="Rectángulo_352054" data-name="Rectángulo 352054" width="2.947" height="11.647" transform="translate(270.021 96.625)" fill="#d1d3d4"/>
      <rect id="Rectángulo_352055" data-name="Rectángulo 352055" width="26.006" height="22.826" transform="translate(248.809 106.728)" fill="#414042"/>
      <path id="Trazado_659731" data-name="Trazado 659731" d="M272.732,164.631h0a2.242,2.242,0,0,1,2.242-2.242h3.47a2.242,2.242,0,0,1,0,4.485h-3.47a2.242,2.242,0,0,1-2.242-2.242" transform="translate(-135.214 -80.509)" fill="#f1f2f2"/>
      <path id="Trazado_659732" data-name="Trazado 659732" d="M272.732,180.651h0a2.242,2.242,0,0,1,2.242-2.242h3.47a2.242,2.242,0,0,1,0,4.485h-3.47a2.242,2.242,0,0,1-2.242-2.242" transform="translate(-135.214 -88.451)" fill="#f1f2f2"/>
      <path id="Trazado_659733" data-name="Trazado 659733" d="M272.732,196.671h0a2.242,2.242,0,0,1,2.242-2.242h3.47a2.242,2.242,0,0,1,0,4.485h-3.47a2.242,2.242,0,0,1-2.242-2.242" transform="translate(-135.214 -96.394)" fill="#f1f2f2"/>
      <path id="Trazado_659734" data-name="Trazado 659734" d="M283.743,165.576h0a1.281,1.281,0,0,1,1.281-1.281h7.794v2.562h-7.794a1.281,1.281,0,0,1-1.281-1.281" transform="translate(-140.673 -81.454)" fill="#d1d3d4"/>
      <path id="Trazado_659735" data-name="Trazado 659735" d="M283.743,181.6h0a1.281,1.281,0,0,1,1.281-1.281h7.794v2.562h-7.794a1.281,1.281,0,0,1-1.281-1.281" transform="translate(-140.673 -89.396)" fill="#d1d3d4"/>
      <path id="Trazado_659736" data-name="Trazado 659736" d="M283.743,197.616h0a1.281,1.281,0,0,1,1.281-1.281h7.794V198.9h-7.794a1.281,1.281,0,0,1-1.281-1.281" transform="translate(-140.673 -97.338)" fill="#d1d3d4"/>
      <rect id="Rectángulo_352056" data-name="Rectángulo 352056" width="16.405" height="23.061" transform="translate(151.113 80.67)" fill="#231f20"/>
      <path id="Trazado_659737" data-name="Trazado 659737" d="M305.531,180.132a3.983,3.983,0,0,0-3.839,2.917h-2V159.988h2a3.984,3.984,0,0,0,7.678,0h13.386v23.061H309.37a3.983,3.983,0,0,0-3.839-2.917" transform="translate(-148.582 -79.318)" fill="#414042"/>
      <path id="Trazado_659738" data-name="Trazado 659738" d="M357.672,159.989H345.429V183.05h12.243l2.776-2.491V162.48ZM348.6,171.52a4.342,4.342,0,1,1,4.342,4.342,4.342,4.342,0,0,1-4.342-4.342" transform="translate(-171.256 -79.319)" fill="#f1f2f2"/>
      <path id="Trazado_659739" data-name="Trazado 659739" d="M891.316,533.933a13.011,13.011,0,0,1-12.5-9.817L853.678,428a60.145,60.145,0,0,0-28.908-37.444l-14.519-7.988,2.187-3.976,14.519,7.988a64.7,64.7,0,0,1,31.111,40.272l25.137,96.116a8.472,8.472,0,0,0,8.11,6.427,8.566,8.566,0,0,0,8.4-8.7V362.823h4.538v157.87a13.108,13.108,0,0,1-12.941,13.24" transform="translate(-401.704 -179.879)" fill="#2d3e50"/>
      <path id="Trazado_659740" data-name="Trazado 659740" d="M938.075,359.407h-29.29a15.694,15.694,0,0,1-15.676-15.676v-7.419h4.538v7.419a11.15,11.15,0,0,0,11.138,11.138h29.29a16.658,16.658,0,0,0,16.639-16.639,28.912,28.912,0,0,1,28.879-28.879h9.19v4.538h-9.19a24.369,24.369,0,0,0-24.341,24.341,21.2,21.2,0,0,1-21.177,21.177" transform="translate(-442.783 -153.369)" fill="#2d3e50"/>
      <path id="Trazado_659741" data-name="Trazado 659741" d="M991.114,335.381l.98-24.553h-13.36l.98,24.553a2.406,2.406,0,0,0,2.526,2.152h6.349a2.406,2.406,0,0,0,2.526-2.152" transform="translate(-485.234 -154.102)" fill="#4b6579"/>
      <path id="Trazado_659742" data-name="Trazado 659742" d="M990.461,303.993l1.872-6.951H975.022l1.872,6.951Z" transform="translate(-483.393 -147.267)" fill="#1e3e57"/>
      <path id="Trazado_659743" data-name="Trazado 659743" d="M985.435,313.033a1.2,1.2,0,0,0-1.269-1.119h-5.389l.089,2.239h5.3a1.2,1.2,0,0,0,1.269-1.12" transform="translate(-485.255 -154.64)" fill="#1e3e57"/>
      <path id="Trazado_659744" data-name="Trazado 659744" d="M991.982,319.04a1.2,1.2,0,0,0,1.269,1.12h5.179l.089-2.24h-5.268a1.2,1.2,0,0,0-1.269,1.12" transform="translate(-491.802 -157.618)" fill="#1e3e57"/>
      <path id="Trazado_659745" data-name="Trazado 659745" d="M985.673,325.046a1.2,1.2,0,0,0-1.269-1.12h-5.148l.09,2.24H984.4a1.2,1.2,0,0,0,1.269-1.12" transform="translate(-485.492 -160.595)" fill="#1e3e57"/>
      <path id="Trazado_659746" data-name="Trazado 659746" d="M991.982,331.051a1.2,1.2,0,0,0,1.269,1.12h4.937l.089-2.24h-5.027a1.2,1.2,0,0,0-1.269,1.119" transform="translate(-491.802 -163.573)" fill="#1e3e57"/>
      <path id="Trazado_659747" data-name="Trazado 659747" d="M985.911,337.058a1.2,1.2,0,0,0-1.269-1.12h-4.906l.089,2.24h4.816a1.2,1.2,0,0,0,1.269-1.12" transform="translate(-485.73 -166.55)" fill="#1e3e57"/>
      <path id="Trazado_659748" data-name="Trazado 659748" d="M991.982,343.063a1.2,1.2,0,0,0,1.269,1.12h4.7l.09-2.239h-4.785a1.2,1.2,0,0,0-1.269,1.119" transform="translate(-491.802 -169.528)" fill="#1e3e57"/>
      <path id="Trazado_659749" data-name="Trazado 659749" d="M986.148,349.07a1.2,1.2,0,0,0-1.269-1.12h-4.664l.089,2.24h4.575a1.2,1.2,0,0,0,1.269-1.12" transform="translate(-485.968 -172.506)" fill="#1e3e57"/>
      <path id="Trazado_659750" data-name="Trazado 659750" d="M991.982,355.075a1.2,1.2,0,0,0,1.269,1.12H997.7l.089-2.24h-4.543a1.2,1.2,0,0,0-1.269,1.12" transform="translate(-491.802 -175.483)" fill="#1e3e57"/>
      <path id="Trazado_659751" data-name="Trazado 659751" d="M885.341,335.381l-.98-24.553h13.36l-.98,24.553a2.406,2.406,0,0,1-2.526,2.152h-6.349a2.406,2.406,0,0,1-2.526-2.152" transform="translate(-438.446 -154.102)" fill="#4b6579"/>
      <path id="Trazado_659752" data-name="Trazado 659752" d="M882.108,303.993l-1.872-6.951h17.311l-1.871,6.951Z" transform="translate(-436.401 -147.267)" fill="#1e3e57"/>
      <path id="Trazado_659753" data-name="Trazado 659753" d="M897.609,313.033a1.2,1.2,0,0,1,1.269-1.119h5.389l-.089,2.239h-5.3a1.2,1.2,0,0,1-1.269-1.12" transform="translate(-445.014 -154.64)" fill="#1e3e57"/>
      <path id="Trazado_659754" data-name="Trazado 659754" d="M891.181,319.04a1.2,1.2,0,0,1-1.269,1.12h-5.179l-.089-2.24h5.268a1.2,1.2,0,0,1,1.269,1.12" transform="translate(-438.586 -157.618)" fill="#1e3e57"/>
      <path id="Trazado_659755" data-name="Trazado 659755" d="M897.609,325.046a1.2,1.2,0,0,1,1.269-1.12h5.148l-.09,2.24h-5.058a1.2,1.2,0,0,1-1.269-1.12" transform="translate(-445.014 -160.595)" fill="#1e3e57"/>
      <path id="Trazado_659756" data-name="Trazado 659756" d="M891.419,331.051a1.2,1.2,0,0,1-1.269,1.12h-4.937l-.089-2.24h5.027a1.2,1.2,0,0,1,1.269,1.119" transform="translate(-438.824 -163.573)" fill="#1e3e57"/>
      <path id="Trazado_659757" data-name="Trazado 659757" d="M897.609,337.058a1.2,1.2,0,0,1,1.269-1.12h4.906l-.089,2.24h-4.816a1.2,1.2,0,0,1-1.269-1.12" transform="translate(-445.014 -166.55)" fill="#1e3e57"/>
      <path id="Trazado_659758" data-name="Trazado 659758" d="M891.656,343.063a1.2,1.2,0,0,1-1.269,1.12h-4.7l-.09-2.239h4.785a1.2,1.2,0,0,1,1.269,1.119" transform="translate(-439.061 -169.528)" fill="#1e3e57"/>
      <path id="Trazado_659759" data-name="Trazado 659759" d="M897.609,349.07a1.2,1.2,0,0,1,1.269-1.12h4.664l-.089,2.24h-4.575a1.2,1.2,0,0,1-1.269-1.12" transform="translate(-445.014 -172.506)" fill="#1e3e57"/>
      <path id="Trazado_659760" data-name="Trazado 659760" d="M891.894,355.075a1.2,1.2,0,0,1-1.269,1.12h-4.454l-.089-2.24h4.543a1.2,1.2,0,0,1,1.269,1.12" transform="translate(-439.299 -175.483)" fill="#1e3e57"/>
      <rect id="Rectángulo_352057" data-name="Rectángulo 352057" width="100.567" height="144.486" transform="translate(426.104 5.288)" fill="#4b6579"/>
      <rect id="Rectángulo_352058" data-name="Rectángulo 352058" width="38.155" height="4.819" transform="translate(433.414 129.599)" fill="#2d3e50"/>
      <rect id="Rectángulo_352059" data-name="Rectángulo 352059" width="38.155" height="4.819" transform="translate(433.414 118.704)" fill="#2d3e50"/>
      <rect id="Rectángulo_352060" data-name="Rectángulo 352060" width="38.155" height="4.819" transform="translate(433.414 107.808)" fill="#2d3e50"/>
      <rect id="Rectángulo_352061" data-name="Rectángulo 352061" width="38.155" height="4.819" transform="translate(433.414 96.913)" fill="#2d3e50"/>
      <rect id="Rectángulo_352062" data-name="Rectángulo 352062" width="38.155" height="4.819" transform="translate(433.414 86.017)" fill="#2d3e50"/>
      <rect id="Rectángulo_352063" data-name="Rectángulo 352063" width="38.155" height="4.819" transform="translate(433.414 75.122)" fill="#2d3e50"/>
      <rect id="Rectángulo_352064" data-name="Rectángulo 352064" width="38.155" height="4.819" transform="translate(433.414 64.227)" fill="#2d3e50"/>
      <rect id="Rectángulo_352065" data-name="Rectángulo 352065" width="38.155" height="4.819" transform="translate(433.414 53.332)" fill="#2d3e50"/>
      <rect id="Rectángulo_352066" data-name="Rectángulo 352066" width="38.155" height="4.819" transform="translate(433.414 42.436)" fill="#2d3e50"/>
      <rect id="Rectángulo_352067" data-name="Rectángulo 352067" width="38.155" height="4.819" transform="translate(433.414 31.541)" fill="#2d3e50"/>
      <rect id="Rectángulo_352068" data-name="Rectángulo 352068" width="38.155" height="4.819" transform="translate(433.414 20.646)" fill="#2d3e50"/>
      <rect id="Rectángulo_352069" data-name="Rectángulo 352069" width="38.155" height="4.819" transform="translate(481.207 129.599)" fill="#2d3e50"/>
      <rect id="Rectángulo_352070" data-name="Rectángulo 352070" width="38.155" height="4.819" transform="translate(481.207 118.704)" fill="#2d3e50"/>
      <rect id="Rectángulo_352071" data-name="Rectángulo 352071" width="38.155" height="4.819" transform="translate(481.207 107.808)" fill="#2d3e50"/>
      <rect id="Rectángulo_352072" data-name="Rectángulo 352072" width="38.155" height="4.819" transform="translate(481.207 96.913)" fill="#2d3e50"/>
      <rect id="Rectángulo_352073" data-name="Rectángulo 352073" width="38.155" height="4.819" transform="translate(481.207 86.017)" fill="#2d3e50"/>
      <rect id="Rectángulo_352074" data-name="Rectángulo 352074" width="38.155" height="4.819" transform="translate(481.207 75.122)" fill="#2d3e50"/>
      <rect id="Rectángulo_352075" data-name="Rectángulo 352075" width="38.155" height="4.819" transform="translate(481.207 64.227)" fill="#2d3e50"/>
      <rect id="Rectángulo_352076" data-name="Rectángulo 352076" width="38.155" height="4.819" transform="translate(481.207 53.332)" fill="#2d3e50"/>
      <rect id="Rectángulo_352077" data-name="Rectángulo 352077" width="38.155" height="4.819" transform="translate(481.207 42.436)" fill="#2d3e50"/>
      <rect id="Rectángulo_352078" data-name="Rectángulo 352078" width="38.155" height="4.819" transform="translate(481.207 31.541)" fill="#2d3e50"/>
      <rect id="Rectángulo_352079" data-name="Rectángulo 352079" width="38.155" height="4.819" transform="translate(481.207 20.646)" fill="#2d3e50"/>
      <rect id="Rectángulo_352080" data-name="Rectángulo 352080" width="16.181" height="3.621" transform="translate(468.297 149.775)" fill="#1e3e57"/>
      <path id="Trazado_659761" data-name="Trazado 659761" d="M937.429,312.321h5.7l1.748-8.1h-9.191Z" transform="translate(-463.889 -150.827)" fill="#e74b3c"/>
      <path id="Trazado_659762" data-name="Trazado 659762" d="M620.209,23.055A23.055,23.055,0,1,1,597.154,0a23.055,23.055,0,0,1,23.055,23.055" transform="translate(-284.625)" fill="#4b6579"/>
      <path id="Trazado_659763" data-name="Trazado 659763" d="M620.138,27.3A18.738,18.738,0,1,1,601.4,8.561,18.738,18.738,0,0,1,620.138,27.3" transform="translate(-288.87 -4.244)" fill="#1e3e57"/>
      <path id="Trazado_659764" data-name="Trazado 659764" d="M636.357,26.314a1.652,1.652,0,0,1,.09.559,3.51,3.51,0,0,0,1.02,2.2,1.545,1.545,0,0,1,.255,1.841,19.236,19.236,0,0,1-2.555,3.579,2.8,2.8,0,0,1-1.76,1.106c-.592.038-1.166-.277-1.759-.236a4.489,4.489,0,0,0-1.967,1.065,3.043,3.043,0,0,1-2.017.548,1.876,1.876,0,0,1-1.579-1.255,2.178,2.178,0,0,1-2.115-2.972,4.368,4.368,0,0,1,1.475-1.677q1.237-.991,2.481-1.973a3.435,3.435,0,0,1,1.217-.712,9.972,9.972,0,0,0,1.585-.24c.622-.274.918-.978,1.414-1.443a4.467,4.467,0,0,1,2.765-.873c.544-.045,1.228-.013,1.45.486" transform="translate(-309.278 -12.798)" fill="#e77e23"/>
      <path id="Trazado_659765" data-name="Trazado 659765" d="M617.976,58.414a1.642,1.642,0,0,1-.452.341,3.51,3.51,0,0,0-1.466,1.929,1.546,1.546,0,0,1-1.509,1.086,19.258,19.258,0,0,1-4.358-.586,2.806,2.806,0,0,1-1.8-1.039c-.311-.506-.3-1.161-.613-1.665-.4-.642-1.2-.877-1.861-1.241a3.045,3.045,0,0,1-1.427-1.527,1.876,1.876,0,0,1,.371-1.982,2.178,2.178,0,0,1,1.639-3.26,4.369,4.369,0,0,1,2.171.52q1.454.631,2.9,1.272a3.434,3.434,0,0,1,1.2.743c.362.4.532.957.953,1.289.533.422,1.293.355,1.936.575a4.464,4.464,0,0,1,2.064,2.036c.295.46.586,1.08.249,1.509" transform="translate(-299.628 -25.015)" fill="#e77e23"/>
      <path id="Trazado_659766" data-name="Trazado 659766" d="M623.815,18.937a20.207,20.207,0,0,0,.094-2.046,4.2,4.2,0,0,0-.325-1.861,3.733,3.733,0,0,0-1.293-1.344c-2.088-1.431-4.656-1.932-7.145-2.4a1.762,1.762,0,0,0-.644-.041,1.174,1.174,0,0,0-.854.957,2.9,2.9,0,0,0,.139,1.342,12.19,12.19,0,0,0,.754,1.972,8.132,8.132,0,0,1,.792,1.9c.068.338.077.685.133,1.025a3.814,3.814,0,0,0,2.115,2.784,7.058,7.058,0,0,0,2.734.494,3.58,3.58,0,0,0,2.761-.7,3.37,3.37,0,0,0,.739-2.085" transform="translate(-304.217 -5.567)" fill="#e77e23"/>
      <path id="Trazado_659767" data-name="Trazado 659767" d="M640.991,51.758a17.524,17.524,0,0,0-.616-1.77,3.654,3.654,0,0,0-.927-1.463,3.509,3.509,0,0,0-1.617-.674,18.41,18.41,0,0,0-7.216.54,1.793,1.793,0,0,0-.591.2,1.1,1.1,0,0,0-.437,1.12,2.528,2.528,0,0,0,.583,1.089,10.8,10.8,0,0,0,1.349,1.4,7.234,7.234,0,0,1,1.359,1.327c.176.263.3.554.469.821a3.52,3.52,0,0,0,2.845,1.6,7.15,7.15,0,0,0,2.617-.567,3.6,3.6,0,0,0,2.232-1.587,2.985,2.985,0,0,0-.052-2.036" transform="translate(-312.126 -23.633)" fill="#e77e23"/>
      <path id="Trazado_659768" data-name="Trazado 659768" d="M592.044,23.16a11.727,11.727,0,0,0,.292,2.682c.105,1.069-.128,2.145-.085,3.219a3.04,3.04,0,0,0,1.431,2.711c.388.185.827.237,1.221.409a8.45,8.45,0,0,1,1.257.837,5.746,5.746,0,0,0,6.011-.161,2.975,2.975,0,0,0,1.691-2.438,4.719,4.719,0,0,1-.111-1.485c.136-.472.581-.775.888-1.159a3,3,0,0,0-.611-3.895,7.492,7.492,0,0,0-3.978-1.568,13.145,13.145,0,0,1-4.184-1.065,3.913,3.913,0,0,0-.811-.384,1.894,1.894,0,0,0-.891,0,2.8,2.8,0,0,0-2.121,2.3" transform="translate(-293.508 -10.318)" fill="#e77e23"/>
      <path id="Trazado_659769" data-name="Trazado 659769" d="M24.65,601.3V594.33H24l.356-48.345H20.214l.356,48.345h-.654V601.3a33.33,33.33,0,0,0-1.076,6.11c-.012,2.673.451,9.554.681,12.8h5.525c.23-3.247.692-10.127.681-12.8A33.372,33.372,0,0,0,24.65,601.3" transform="translate(-9.34 -270.687)" fill="#2d3e50"/>
      <path id="Trazado_659770" data-name="Trazado 659770" d="M25.106,611.711H19.727a.164.164,0,0,1-.164-.162l-.454-33.166h6.614l-.454,33.166a.164.164,0,0,1-.164.162" transform="translate(-9.474 -286.749)" fill="#e74b3c"/>
      <path id="Trazado_659771" data-name="Trazado 659771" d="M12.942,407.53c-8.034.007-10.148,9.689-10.411,10.693a.009.009,0,0,1-.013,0,55.727,55.727,0,0,0-2.23,21.686,63.307,63.307,0,0,0,3.151,13.543c1.291,3.784,2.531,6.66,2.908,8.571.064.307.3,2.09.351,2.665A95.387,95.387,0,0,1,6.966,477.5c-.243,1.763-1.578,9.938-1.694,10.718a3.551,3.551,0,0,0,.236,2.1c.294.345,1.515.25,1.821.658a21.7,21.7,0,0,1,1.221,2.1c.39.761.48,1.105,1.457,1.215.48.057,1.706.083,2.934.083s2.455-.025,2.94-.077c.972-.115,1.067-.466,1.451-1.221a21.913,21.913,0,0,1,1.221-2.1c.307-.409,1.528-.313,1.822-.658a3.643,3.643,0,0,0,.249-2.1c-.122-.773-1.464-8.954-1.706-10.718a95.339,95.339,0,0,1,.268-12.808c.051-.575.287-2.358.358-2.671.371-1.9,1.61-4.781,2.908-8.558A63.593,63.593,0,0,0,25.6,439.908a55.726,55.726,0,0,0-2.231-21.686.009.009,0,0,1-.013,0c-.274-1-2.518-10.686-10.411-10.693M9.108,413.7a3.67,3.67,0,0,1,3.834-3.49,3.505,3.505,0,1,1,0,6.979,3.67,3.67,0,0,1-3.834-3.49" transform="translate(0 -202.044)" fill="#e74b3c"/>
    </g>
  </g>
</svg>
