<svg xmlns="http://www.w3.org/2000/svg" xmlns:xlink="http://www.w3.org/1999/xlink" width="88" height="88" viewBox="0 0 88 88">
  <defs>
    <filter id="Elipse_7909" x="0" y="0" width="88" height="88" filterUnits="userSpaceOnUse">
      <feOffset dy="3" input="SourceAlpha"/>
      <feGaussianBlur stdDeviation="3" result="blur"/>
      <feFlood flood-opacity="0.161"/>
      <feComposite operator="in" in2="blur"/>
      <feComposite in="SourceGraphic"/>
    </filter>
  </defs>
  <g id="Grupo_952669" data-name="Grupo 952669" transform="translate(-2497.321 8793.848)">
    <g transform="matrix(1, 0, 0, 1, 2497.32, -8793.85)" filter="url(#Elipse_7909)">
      <circle id="Elipse_7909-2" data-name="Elipse 7909" cx="35" cy="35" r="35" transform="translate(9 6)" fill="#00cca7"/>
    </g>
    <g id="medidor-de-potencia" transform="translate(2480.583 -8780.604)">
      <path id="Trazado_657389" data-name="Trazado 657389" d="M78.73,8H46.57a3.85,3.85,0,0,0-3.849,3.849V43.572a3.85,3.85,0,0,0,3.849,3.849H78.73a3.85,3.85,0,0,0,3.849-3.849V11.853A3.849,3.849,0,0,0,78.73,8Z" transform="translate(-1.913 -1.919)" fill="#72c1e8"/>
      <path id="Trazado_657390" data-name="Trazado 657390" d="M89.437,55.908H60.166a.584.584,0,1,1,0-1.168H89.436a.461.461,0,0,0,.461-.461V22.56a.584.584,0,0,1,1.168,0V54.278A1.631,1.631,0,0,1,89.437,55.908Zm-31.608,0h-.551a.584.584,0,1,1,0-1.168h.551a.584.584,0,1,1,0,1.168Z" transform="translate(-12.619 -12.626)" fill="#c5e5ff"/>
      <path id="Trazado_657391" data-name="Trazado 657391" d="M63,176.671V191a2.337,2.337,0,0,0,2.337,2.337H91.042A2.337,2.337,0,0,0,93.379,191V176.671Z" transform="translate(-17.451 -131.169)" fill="#72c1e8"/>
      <path id="Trazado_657392" data-name="Trazado 657392" d="M97.855,198.4H76.2a.584.584,0,0,1,0-1.169H97.271V186.755a.584.584,0,1,1,1.168,0v11.062A.584.584,0,0,1,97.855,198.4Zm-23.993,0h-.779a.584.584,0,0,1,0-1.169h.779a.584.584,0,0,1,0,1.169Z" transform="translate(-24.732 -138.449)" fill="#c5e5ff"/>
      <path id="Trazado_657393" data-name="Trazado 657393" d="M110,203.542h5.411v4.111H110Z" transform="translate(-53.467 -151.76)" fill="#fff"/>
      <path id="Trazado_657394" data-name="Trazado 657394" d="M134.944,198.363h-.584a1.209,1.209,0,0,0-1.209,1.209v4.113a1.209,1.209,0,0,0,1.209,1.209h.584a1.209,1.209,0,0,0,1.209-1.209v-4.113A1.209,1.209,0,0,0,134.944,198.363Z" transform="translate(-71.209 -147.791)" fill="#fc5d3d"/>
      <path id="Trazado_657395" data-name="Trazado 657395" d="M97.49,30.955H73.678a1.029,1.029,0,0,0-1.029,1.029V45.944a1.029,1.029,0,0,0,1.029,1.029H97.49a1.029,1.029,0,0,0,1.029-1.029V31.984a1.029,1.029,0,0,0-1.029-1.029Z" transform="translate(-24.847 -19.506)" fill="#f0c020"/>
      <path id="Trazado_657396" data-name="Trazado 657396" d="M102.462,51.5H85.3a.584.584,0,0,1,0-1.168h16.583V40.039a.584.584,0,0,1,1.168,0V50.916A.584.584,0,0,1,102.462,51.5Zm-19.5,0H81.733a.584.584,0,0,1,0-1.168h1.225a.584.584,0,0,1,0,1.168Z" transform="translate(-31.36 -26.02)" fill="#f9e5af"/>
      <circle id="Elipse_7910" data-name="Elipse 7910" cx="1.465" cy="1.465" r="1.465" transform="translate(67.717 37.567) rotate(-13.3)" fill="#13bf6d"/>
      <circle id="Elipse_7911" data-name="Elipse 7911" cx="1.465" cy="1.465" r="1.465" transform="translate(67.401 32.921) rotate(-45)" fill="#fc5d3d"/>
      <path id="Trazado_657397" data-name="Trazado 657397" d="M74.819,205.057a2.22,2.22,0,1,0,2.22-2.22A2.223,2.223,0,0,0,74.819,205.057Zm3.272,0a1.052,1.052,0,1,1-1.052-1.052A1.053,1.053,0,0,1,78.091,205.057Z" transform="translate(-26.509 -151.22)"/>
      <path id="Trazado_657398" data-name="Trazado 657398" d="M168.012,207.72v-2.3a.584.584,0,1,0-1.168,0v2.3a.584.584,0,1,0,1.168,0Z" transform="translate(-97.028 -152.753)"/>
      <circle id="Elipse_7912" data-name="Elipse 7912" cx="0.584" cy="0.584" r="0.584" transform="translate(40.225 15.544)"/>
      <path id="Trazado_657399" data-name="Trazado 657399" d="M44.658,46.086h.3V59.835a2.924,2.924,0,0,0,2.921,2.921H67.271a.583.583,0,1,0,0-1.166l-19.388,0a1.759,1.759,0,0,1-1.753-1.753V46.086H75.343V59.835a1.756,1.756,0,0,1-1.753,1.753H71.945a.584.584,0,0,0,0,1.168H73.59a2.924,2.924,0,0,0,2.921-2.921V46.086h.306a4.438,4.438,0,0,0,4.433-4.433V9.936A4.442,4.442,0,0,0,76.817,5.5H44.658a4.442,4.442,0,0,0-4.433,4.436v3.856a.584.584,0,0,0,1.168,0V9.936a3.279,3.279,0,0,1,3.265-3.267H76.817a3.279,3.279,0,0,1,3.265,3.267V41.653a3.275,3.275,0,0,1-3.265,3.265H44.658a3.275,3.275,0,0,1-3.265-3.265V18.466a.584.584,0,1,0-1.168,0V41.653A4.438,4.438,0,0,0,44.658,46.086Z"/>
      <path id="Trazado_657400" data-name="Trazado 657400" d="M119.762,56.181a.584.584,0,0,0,.81-.161l2.235-3.341a.585.585,0,0,0-.486-.909h-2.206l1.627-2.432a.584.584,0,1,0-.971-.65l-2.235,3.341a.585.585,0,0,0,.486.909h2.206L119.6,55.371A.584.584,0,0,0,119.762,56.181Z" transform="translate(-59.934 -32.896)"/>
      <path id="Trazado_657401" data-name="Trazado 657401" d="M84.242,114.567H82.4a.584.584,0,0,0,0,1.168h1.839a.584.584,0,0,0,0-1.168Z" transform="translate(-31.874 -83.578)"/>
      <path id="Trazado_657402" data-name="Trazado 657402" d="M84.242,132.641H82.4a.584.584,0,0,0,0,1.168h1.839a.584.584,0,1,0,0-1.168Z" transform="translate(-31.874 -97.428)"/>
      <path id="Trazado_657403" data-name="Trazado 657403" d="M84.242,150.714H82.4a.584.584,0,0,0,0,1.169h1.839a.584.584,0,0,0,0-1.169Z" transform="translate(-31.874 -111.278)"/>
      <path id="Trazado_657404" data-name="Trazado 657404" d="M108.035,114.567H106.2a.584.584,0,1,0,0,1.168h1.839a.584.584,0,0,0,0-1.168Z" transform="translate(-50.106 -83.578)"/>
      <path id="Trazado_657405" data-name="Trazado 657405" d="M108.035,132.641H106.2a.584.584,0,1,0,0,1.168h1.839a.584.584,0,1,0,0-1.168Z" transform="translate(-50.106 -97.428)"/>
      <path id="Trazado_657406" data-name="Trazado 657406" d="M108.035,150.714H106.2a.584.584,0,1,0,0,1.169h1.839a.584.584,0,0,0,0-1.169Z" transform="translate(-50.106 -111.278)"/>
      <path id="Trazado_657407" data-name="Trazado 657407" d="M131.828,114.567h-1.839a.584.584,0,0,0,0,1.168h1.839a.584.584,0,0,0,0-1.168Z" transform="translate(-68.339 -83.578)"/>
      <path id="Trazado_657408" data-name="Trazado 657408" d="M131.828,132.641h-1.839a.584.584,0,0,0,0,1.168h1.839a.584.584,0,0,0,0-1.168Z" transform="translate(-68.339 -97.428)"/>
      <path id="Trazado_657409" data-name="Trazado 657409" d="M131.828,150.714h-1.839a.584.584,0,0,0,0,1.169h1.839a.584.584,0,0,0,0-1.169Z" transform="translate(-68.339 -111.278)"/>
      <circle id="Elipse_7913" data-name="Elipse 7913" cx="0.584" cy="0.584" r="0.584" transform="translate(73.088 19.842)"/>
      <path id="Trazado_657410" data-name="Trazado 657410" d="M97.184,30.065a1.618,1.618,0,0,0-1.613-1.615H71.76a1.62,1.62,0,0,0-1.615,1.615V44.024a1.62,1.62,0,0,0,1.615,1.615H95.571a1.618,1.618,0,0,0,1.613-1.615V40.35a.584.584,0,0,0-1.168,0v3.674a.446.446,0,0,1-.444.446H71.76a.449.449,0,0,1-.446-.446V30.065a.451.451,0,0,1,.446-.446H95.571a.447.447,0,0,1,.444.446v5.611a.584.584,0,1,0,1.168,0Z" transform="translate(-22.928 -17.587)"/>
      <circle id="Elipse_7914" data-name="Elipse 7914" cx="0.584" cy="0.584" r="0.584" transform="translate(69.024 61.587)"/>
      <path id="Trazado_657411" data-name="Trazado 657411" d="M114.7,195.863a1.8,1.8,0,0,0-1.694,1.21h-4.926a.584.584,0,0,0-.584.584v4.111a.584.584,0,0,0,.584.584h4.926a1.8,1.8,0,0,0,1.694,1.21h.584a1.8,1.8,0,0,0,1.793-1.793v-4.113a1.8,1.8,0,0,0-1.793-1.793Zm-6.035,2.379h4.242v2.942h-4.242Zm7.245-.585v4.113a.626.626,0,0,1-.625.625H114.7a.626.626,0,0,1-.625-.625h0v-4.111h0a.626.626,0,0,1,.625-.625h.584A.626.626,0,0,1,115.911,197.656Z" transform="translate(-51.551 -145.876)"/>
      <path id="Trazado_657412" data-name="Trazado 657412" d="M158.69,114.061a2.049,2.049,0,1,0,2.049,2.049A2.051,2.051,0,0,0,158.69,114.061Zm0,2.93a.881.881,0,1,1,.881-.881A.882.882,0,0,1,158.69,116.991Z" transform="translate(-89.21 -83.191)"/>
      <path id="Trazado_657413" data-name="Trazado 657413" d="M158.69,138.683a2.049,2.049,0,1,0,2.049,2.049A2.051,2.051,0,0,0,158.69,138.683Zm0,2.93a.881.881,0,1,1,.881-.881A.882.882,0,0,1,158.69,141.613Z" transform="translate(-89.21 -102.058)"/>
    </g>
  </g>
</svg>
