<svg xmlns="http://www.w3.org/2000/svg" width="66.71" height="66.71" viewBox="0 0 66.71 66.71">
  <g id="documentacion" transform="translate(-1 -1)">
    <g id="Grupo_949343" data-name="Grupo 949343" transform="translate(2.076 2.076)">
      <g id="Grupo_949329" data-name="Grupo 949329" transform="translate(8.608 0)">
        <path id="Trazado_656640" data-name="Trazado 656640" d="M20.76,7.38V19.216H10V7.38a5.38,5.38,0,1,1,10.76,0Z" transform="translate(-10 -2)" fill="#e6e9ed"/>
      </g>
      <g id="Grupo_949330" data-name="Grupo 949330" transform="translate(13.988 0)">
        <path id="Trazado_656641" data-name="Trazado 656641" d="M54.811,7.38v5.38H30.064a1.079,1.079,0,0,0-1.076,1.076v16.14H26.836a2.158,2.158,0,0,0-2.152,2.152v21.52h-4.3V7.38A5.382,5.382,0,0,0,15,2H49.431A5.382,5.382,0,0,1,54.811,7.38Z" transform="translate(-15 -2)" fill="#f0d0b4"/>
      </g>
      <g id="Grupo_949331" data-name="Grupo 949331" transform="translate(27.975 10.76)">
        <path id="Trazado_656642" data-name="Trazado 656642" d="M28,29.216V13.076A1.079,1.079,0,0,1,29.076,12H59.2a1.079,1.079,0,0,1,1.076,1.076V33.519H47.368l-1.56-3.11a2.152,2.152,0,0,0-1.926-1.194Z" transform="translate(-28 -12)" fill="#ffeaa7"/>
      </g>
      <g id="Grupo_949332" data-name="Grupo 949332" transform="translate(45.191 15.064)">
        <path id="Trazado_656643" data-name="Trazado 656643" d="M44,16H54.76v8.608H44Z" transform="translate(-44 -16)" fill="#5cd6b3"/>
      </g>
      <g id="Grupo_949333" data-name="Grupo 949333" transform="translate(2.152 23.671)">
        <path id="Trazado_656644" data-name="Trazado 656644" d="M21.216,43.583v8.393h-5.38v-1.13A3.133,3.133,0,0,0,13.9,47.94c-.011,0-.032-.011-.043-.011a3.128,3.128,0,0,0-3.432.667l-.807.807L6.572,46.359l.807-.807a3.128,3.128,0,0,0,.667-3.432c0-.011-.011-.032-.011-.043A3.132,3.132,0,0,0,5.13,40.14H4v-4.3H5.13A3.132,3.132,0,0,0,8.035,33.9c0-.011.011-.032.011-.043a3.128,3.128,0,0,0-.667-3.432l-.807-.807,3.045-3.045.807.807a3.128,3.128,0,0,0,3.432.667c.011,0,.032-.011.043-.011a3.133,3.133,0,0,0,1.937-2.905V24h5.38v8.393a6.456,6.456,0,1,0,0,11.19Z" transform="translate(-4 -24)" fill="#ffc729"/>
      </g>
      <g id="Grupo_949334" data-name="Grupo 949334" transform="translate(9.684 31.203)">
        <path id="Trazado_656645" data-name="Trazado 656645" d="M19.608,37.456a2.152,2.152,0,1,0-2.152,2.152A2.158,2.158,0,0,0,19.608,37.456Zm1.076-5.6v11.19a6.456,6.456,0,1,1,0-11.19Z" transform="translate(-11 -31)" fill="#fcd770"/>
      </g>
      <g id="Grupo_949335" data-name="Grupo 949335" transform="translate(23.671 40.887)">
        <path id="Trazado_656646" data-name="Trazado 656646" d="M42.259,61.444,48.834,58.7a1.609,1.609,0,0,0,0-2.97L36.912,50.76H24V40H64.887V59.368a2.158,2.158,0,0,1-2.152,2.152H42.292Z" transform="translate(-24 -40)" fill="#e6e9ed"/>
      </g>
      <g id="Grupo_949336" data-name="Grupo 949336" transform="translate(23.671 27.975)">
        <path id="Trazado_656647" data-name="Trazado 656647" d="M64.887,34.456v6.456H24V30.152A2.158,2.158,0,0,1,26.152,28H44.185a2.152,2.152,0,0,1,1.926,1.194l1.56,3.11H62.735A2.158,2.158,0,0,1,64.887,34.456Z" transform="translate(-24 -28)" fill="#ff826e"/>
      </g>
      <g id="Grupo_949337" data-name="Grupo 949337" transform="translate(27.975 32.279)">
        <path id="Trazado_656648" data-name="Trazado 656648" d="M36.608,32H28v4.3H40.912V32Z" transform="translate(-28 -32)" fill="#ffeaa7"/>
      </g>
      <g id="Grupo_949338" data-name="Grupo 949338" transform="translate(0 51.647)">
        <path id="Trazado_656649" data-name="Trazado 656649" d="M10.608,50V62.912H8.456A6.461,6.461,0,0,1,2,56.456,6.466,6.466,0,0,1,8.456,50Z" transform="translate(-2 -50)" fill="#aab2bd"/>
      </g>
      <g id="Grupo_949339" data-name="Grupo 949339" transform="translate(36.583 51.647)">
        <path id="Trazado_656650" data-name="Trazado 656650" d="M47.922,57.941l-6.574,2.744L36,62.912V50l11.922,4.971a1.609,1.609,0,0,1,0,2.97Z" transform="translate(-36 -50)" fill="#aab2bd"/>
      </g>
      <g id="Grupo_949340" data-name="Grupo 949340" transform="translate(8.608 51.647)">
        <path id="Trazado_656651" data-name="Trazado 656651" d="M14.3,56.456v6.456H10V50h4.3Z" transform="translate(-10 -50)" fill="#ffeaa7"/>
      </g>
      <g id="Grupo_949341" data-name="Grupo 949341" transform="translate(12.912 58.103)">
        <path id="Trazado_656652" data-name="Trazado 656652" d="M14,56H37.671v6.456H14Z" transform="translate(-14 -56)" fill="#ff826e"/>
      </g>
      <g id="Grupo_949342" data-name="Grupo 949342" transform="translate(12.912 51.647)">
        <path id="Trazado_656653" data-name="Trazado 656653" d="M15.076,50h22.6v6.456H14V50Z" transform="translate(-14 -50)" fill="#5cd6b3"/>
      </g>
    </g>
    <g id="Grupo_949344" data-name="Grupo 949344" transform="translate(1 1)">
      <path id="Trazado_656654" data-name="Trazado 656654" d="M53,55h2.152v2.152H53Z" transform="translate(2.951 3.103)"/>
      <path id="Trazado_656655" data-name="Trazado 656655" d="M57,55h2.152v2.152H57Z" transform="translate(3.255 3.103)"/>
      <path id="Trazado_656656" data-name="Trazado 656656" d="M64.483,33.279H63.407V13.912a2.154,2.154,0,0,0-2.152-2.152h-4.3v-4.3A6.462,6.462,0,0,0,50.495,1H16.064A6.462,6.462,0,0,0,9.608,7.456V20.368h10.76v4.3h-5.38v2.211a2.109,2.109,0,0,1-3.577,1.482L9.845,26.8,5.278,31.364l1.567,1.567a2.082,2.082,0,0,1,.423,2.3,2.056,2.056,0,0,1-1.9,1.273H3.152v6.456H5.363a2.109,2.109,0,0,1,1.482,3.578L5.278,48.106l4.54,4.541H8.532a7.532,7.532,0,0,0,0,15.064H38.874l5.165-2.152H64.483a3.232,3.232,0,0,0,3.228-3.228V36.507A3.232,3.232,0,0,0,64.483,33.279Zm1.076,3.228v5.38H26.823V32.2A1.078,1.078,0,0,1,27.9,31.127H45.937a1.069,1.069,0,0,1,.962.6l1.855,3.709H64.483A1.077,1.077,0,0,1,65.558,36.507Zm-15.4,23.174a.538.538,0,0,1,0,.994l-2.9,1.207V58.475Zm-5.047,3.1-5.38,2.241V55.337l5.38,2.241ZM13.912,54.8v10.76H11.76V54.8Zm2.152,6.456h21.52v4.3H16.064ZM37.583,59.1H16.064V54.8h21.52ZM20.368,37.346a3.228,3.228,0,1,0,0,4.777V44.66a5.38,5.38,0,1,1,0-9.849Zm-1.076,2.389a1.076,1.076,0,1,1-1.076-1.076A1.077,1.077,0,0,1,19.292,39.735Zm41.963-6.456H50.084l-1.26-2.52a3.21,3.21,0,0,0-2.887-1.784H31.127V13.912H61.255ZM54.8,7.456v4.3H31.127a2.154,2.154,0,0,0-2.152,2.152V28.975H27.9A3.232,3.232,0,0,0,24.671,32.2V52.647H22.519V7.456a6.423,6.423,0,0,0-1.657-4.3H50.495A4.308,4.308,0,0,1,54.8,7.456ZM11.76,18.216V7.456a4.3,4.3,0,0,1,8.608,0v10.76Zm-2.5,25.2a4.2,4.2,0,0,0-3.893-2.6H5.3V38.659h.059a4.261,4.261,0,0,0,3-7.25l-.045-.045L9.845,29.84l.045.045a4.26,4.26,0,0,0,7.25-3v-.059h3.228v5.7a7.532,7.532,0,1,0,0,14.414v5.7H17.14v-.059a4.261,4.261,0,0,0-7.251-3l-.044.045L8.321,48.106l.045-.045a4.223,4.223,0,0,0,.89-4.646Zm2.155,7.691a2.108,2.108,0,0,1,3.577,1.482v.059H9.87ZM3.152,60.179a5.386,5.386,0,0,1,5.38-5.38H9.608v10.76H8.532a5.386,5.386,0,0,1-5.38-5.38Zm61.331,3.228H49.2l1.788-.745a2.691,2.691,0,0,0,0-4.967L38.874,52.647H26.823V44.039H65.558V62.331A1.077,1.077,0,0,1,64.483,63.407Z" transform="translate(-1 -1)"/>
      <path id="Trazado_656657" data-name="Trazado 656657" d="M27,37.456H42.064V31H27ZM33.456,35.3V33.152h2.152V35.3Zm6.456,0H37.76V33.152h2.152Zm-10.76-2.152H31.3V35.3H29.152Z" transform="translate(0.975 1.279)"/>
      <path id="Trazado_656658" data-name="Trazado 656658" d="M55.912,15H43V25.76H55.912ZM53.76,23.608H45.152V17.152H53.76Z" transform="translate(2.191 0.064)"/>
      <path id="Trazado_656659" data-name="Trazado 656659" d="M31,15h6.456v2.152H31Z" transform="translate(1.279 0.064)"/>
      <path id="Trazado_656660" data-name="Trazado 656660" d="M31,19H41.76v2.152H31Z" transform="translate(1.279 0.368)"/>
      <path id="Trazado_656661" data-name="Trazado 656661" d="M39,15h2.152v2.152H39Z" transform="translate(1.887 0.064)"/>
      <path id="Trazado_656662" data-name="Trazado 656662" d="M31,23H41.76v2.152H31Z" transform="translate(1.279 0.671)"/>
    </g>
  </g>
</svg>
