<svg xmlns="http://www.w3.org/2000/svg" xmlns:xlink="http://www.w3.org/1999/xlink" width="610.443" height="627.411" viewBox="0 0 610.443 627.411">
  <defs>
    <clipPath id="clip-path">
      <rect id="Rectángulo_351482" data-name="Rectángulo 351482" width="610.443" height="610.284" fill="none"/>
    </clipPath>
  </defs>
  <g id="Grupo_973557" data-name="Grupo 973557" transform="translate(-494.557 -878.55)">
    <g id="Grupo_951419" data-name="Grupo 951419" transform="translate(0 -53.45)">
      <g id="Grupo_951412" data-name="Grupo 951412" transform="translate(0 -12.589)">
        <g id="Grupo_951406" data-name="Grupo 951406">
          <g id="Grupo_951405" data-name="Grupo 951405" transform="translate(494.557 944.589)">
            <g id="Grupo_951404" data-name="Grupo 951404" clip-path="url(#clip-path)">
              <path id="Trazado_659024" data-name="Trazado 659024" d="M10.274,205.7l96.437,31.336c29.03-82.6,103.552-135.561,191.631-135.561V0C165.451,0,53.1,80.437,10.274,205.7" transform="translate(6.883)" fill="#d9f8f2"/>
              <path id="Trazado_659025" data-name="Trazado 659025" d="M181.652,381.7c-69.631-53.13-96.986-140.4-69.762-224.186.017-.06.04-.117.06-.174L15.564,126.025C-25.5,252.416,16.282,384.119,122.18,463.558Z" transform="translate(0 84.424)" fill="#dbbed7"/>
              <path id="Trazado_659026" data-name="Trazado 659026" d="M370.068,283.817c-72.076,49.937-163.622,49.027-234.958-2.8-.032-.022-.06-.045-.09-.068L75.576,362.761c107.513,78.114,245.684,79.076,353.958,2.907Z" transform="translate(50.628 188.205)" fill="#dee9f0"/>
              <path id="Trazado_659027" data-name="Trazado 659027" d="M425.975,128.888,329.55,160.219c25.242,83.964-3.874,170.739-75.162,222.591l59.443,81.815C421.343,386.515,464.956,255.4,425.975,128.888" transform="translate(170.414 86.342)" fill="#fdf3d0"/>
              <path id="Trazado_659028" data-name="Trazado 659028" d="M185.78.029V101.552c87.551,2.009,160.985,56.471,188.266,140.2l96.387-31.319C429.365,84.043,318.148,2.05,185.78.029" transform="translate(124.454 0.019)" fill="#f5d0f0"/>
              <path id="Trazado_659029" data-name="Trazado 659029" d="M258.113,179.432V64.266c-87.242,0-160.831,53.465-187.788,136.437l109.554,35.6a82.267,82.267,0,0,1,78.235-56.867" transform="translate(47.111 43.052)" fill="#00cca7"/>
              <path id="Trazado_659030" data-name="Trazado 659030" d="M179.919,206.944a82.187,82.187,0,0,1,4.008-25.377l-109.554-35.6c-26.959,82.974,1.149,169.48,71.729,220.757l67.746-93.244a82.114,82.114,0,0,1-33.929-66.539" transform="translate(43.062 97.784)" fill="#3c0061"/>
              <path id="Trazado_659031" data-name="Trazado 659031" d="M277.652,222.329a82.169,82.169,0,0,1-96.625,0l-67.748,93.244c70.58,51.284,161.541,51.284,232.119,0Z" transform="translate(75.885 148.938)" fill="#5c7688"/>
              <path id="Trazado_659032" data-name="Trazado 659032" d="M351.19,145.969l-109.555,35.6a82.243,82.243,0,0,1-29.921,91.916l67.746,93.244c70.578-51.278,98.686-137.782,71.73-220.756" transform="translate(141.826 97.784)" fill="#ffd947"/>
              <path id="Trazado_659033" data-name="Trazado 659033" d="M261.015,236.3,370.57,200.7C343.613,117.731,270.022,64.266,182.78,64.266V179.434A82.264,82.264,0,0,1,261.015,236.3" transform="translate(122.444 43.052)" fill="#800070"/>
            </g>
          </g>
          <path id="Trazado_659974" data-name="Trazado 659974" d="M11.652,12.667a4.673,4.673,0,0,1-.721,2.36,4.35,4.35,0,0,1-1.85,1.586,6.3,6.3,0,0,1-2.72.563,5.025,5.025,0,0,1-3.973-1.644,6.786,6.786,0,0,1-1.45-4.641v-.633a7.746,7.746,0,0,1,.655-3.292,4.961,4.961,0,0,1,1.885-2.18,5.26,5.26,0,0,1,2.848-.769A5.516,5.516,0,0,1,10.07,5.245a4.844,4.844,0,0,1,1.608,3.379H8.6a2.292,2.292,0,0,0-.589-1.679,2.422,2.422,0,0,0-1.687-.51A1.843,1.843,0,0,0,4.639,7.3a5.536,5.536,0,0,0-.562,2.751v.905A6.125,6.125,0,0,0,4.59,13.88a1.882,1.882,0,0,0,1.771.879,2.369,2.369,0,0,0,1.626-.5,2.126,2.126,0,0,0,.6-1.591Zm.949-.51a5.613,5.613,0,0,1,.554-2.536,3.96,3.96,0,0,1,1.591-1.709,4.791,4.791,0,0,1,2.435-.6,4.373,4.373,0,0,1,3.366,1.323,5.076,5.076,0,0,1,1.23,3.6v.105a4.925,4.925,0,0,1-1.235,3.529A4.384,4.384,0,0,1,17.2,17.176a4.434,4.434,0,0,1-3.261-1.217,4.761,4.761,0,0,1-1.327-3.3Zm2.962.185a3.538,3.538,0,0,0,.413,1.934,1.376,1.376,0,0,0,1.222.615q1.582,0,1.617-2.435v-.3q0-2.558-1.635-2.558-1.485,0-1.608,2.206ZM25.8,7.49l.1,1.116a3.225,3.225,0,0,1,2.716-1.292,2.713,2.713,0,0,1,2.219.888,4.226,4.226,0,0,1,.76,2.672V17H28.624V11a1.6,1.6,0,0,0-.29-1.059A1.342,1.342,0,0,0,27.279,9.6a1.413,1.413,0,0,0-1.292.686V17H23.025V7.49ZM36.684,5.126V7.49h1.564V9.547H36.684V13.9a1.111,1.111,0,0,0,.193.747,1.037,1.037,0,0,0,.765.211,4.345,4.345,0,0,0,.738-.053v2.118a5.466,5.466,0,0,1-1.67.255,3.1,3.1,0,0,1-2.259-.721,2.954,2.954,0,0,1-.729-2.188V9.547H32.509V7.49h1.213V5.126Zm7.33,12.05a4.889,4.889,0,0,1-3.542-1.305,4.507,4.507,0,0,1-1.354-3.4v-.246a5.84,5.84,0,0,1,.541-2.575,3.955,3.955,0,0,1,1.578-1.727A4.763,4.763,0,0,1,43.7,7.314a4.117,4.117,0,0,1,3.164,1.244,4.887,4.887,0,0,1,1.16,3.467v1.151H42.133a2.135,2.135,0,0,0,.694,1.257,2.066,2.066,0,0,0,1.389.457,2.662,2.662,0,0,0,2.2-.984l1.354,1.6A3.784,3.784,0,0,1,46.2,16.723,5.3,5.3,0,0,1,44.014,17.176ZM43.68,9.6q-1.3,0-1.547,1.723h2.988v-.229a1.467,1.467,0,0,0-.36-1.1A1.434,1.434,0,0,0,43.68,9.6Zm9.387.51,1.38-2.619h3.076l-2.5,4.632L57.646,17H54.552l-1.494-2.812L51.59,17H48.479l2.637-4.878-2.5-4.632H51.73Zm8.859-4.983V7.49H63.49V9.547H61.926V13.9a1.111,1.111,0,0,0,.193.747,1.037,1.037,0,0,0,.765.211,4.345,4.345,0,0,0,.738-.053v2.118a5.466,5.466,0,0,1-1.67.255,3.1,3.1,0,0,1-2.259-.721,2.954,2.954,0,0,1-.729-2.188V9.547H57.751V7.49h1.213V5.126Zm2.092,7.031a5.613,5.613,0,0,1,.554-2.536,3.96,3.96,0,0,1,1.591-1.709,4.791,4.791,0,0,1,2.435-.6,4.373,4.373,0,0,1,3.366,1.323,5.076,5.076,0,0,1,1.23,3.6v.105a4.925,4.925,0,0,1-1.235,3.529,4.384,4.384,0,0,1-3.344,1.305,4.434,4.434,0,0,1-3.261-1.217,4.761,4.761,0,0,1-1.327-3.3Zm2.962.185a3.538,3.538,0,0,0,.413,1.934,1.376,1.376,0,0,0,1.222.615q1.582,0,1.617-2.435v-.3Q70.231,9.6,68.6,9.6q-1.485,0-1.608,2.206Z" transform="translate(650 1012)" fill="#12263f"/>
          <path id="Trazado_659973" data-name="Trazado 659973" d="M3.232,17V4.2H7.354a6.064,6.064,0,0,1,3.05.769,5.406,5.406,0,0,1,2.114,2.171,6.554,6.554,0,0,1,.769,3.142v.589a6.592,6.592,0,0,1-.743,3.151,5.429,5.429,0,0,1-2.092,2.18,5.93,5.93,0,0,1-3.01.8ZM6.317,6.585v8.042H7.39a2.4,2.4,0,0,0,2.039-.945,4.63,4.63,0,0,0,.712-2.808V10.32a4.592,4.592,0,0,0-.712-2.795,2.442,2.442,0,0,0-2.074-.94ZM19.334,17.176a4.889,4.889,0,0,1-3.542-1.305,4.507,4.507,0,0,1-1.354-3.4v-.246a5.84,5.84,0,0,1,.541-2.575,3.955,3.955,0,0,1,1.578-1.727,4.763,4.763,0,0,1,2.461-.611,4.117,4.117,0,0,1,3.164,1.244,4.887,4.887,0,0,1,1.16,3.467v1.151H17.453a2.135,2.135,0,0,0,.694,1.257,2.066,2.066,0,0,0,1.389.457,2.662,2.662,0,0,0,2.2-.984l1.354,1.6a3.784,3.784,0,0,1-1.569,1.217A5.3,5.3,0,0,1,19.334,17.176ZM19,9.6q-1.3,0-1.547,1.723h2.988v-.229a1.467,1.467,0,0,0-.36-1.1A1.434,1.434,0,0,0,19,9.6Zm10.512,4.729a.684.684,0,0,0-.4-.606,6.016,6.016,0,0,0-1.5-.475,6.853,6.853,0,0,1-1.828-.646,3.062,3.062,0,0,1-1.1-.971,2.319,2.319,0,0,1-.378-1.31A2.628,2.628,0,0,1,25.39,8.163a4.453,4.453,0,0,1,2.83-.848,4.934,4.934,0,0,1,3.023.853,2.666,2.666,0,0,1,1.143,2.241H29.415q0-1.143-1.2-1.143a1.194,1.194,0,0,0-.782.259.8.8,0,0,0-.316.646.737.737,0,0,0,.387.642,3.654,3.654,0,0,0,1.235.4,10.671,10.671,0,0,1,1.49.378,2.706,2.706,0,0,1,2.145,2.646,2.491,2.491,0,0,1-1.156,2.118,5.068,5.068,0,0,1-2.993.817,5.172,5.172,0,0,1-2.18-.439,3.645,3.645,0,0,1-1.494-1.2,2.707,2.707,0,0,1-.536-1.591h2.769a1.145,1.145,0,0,0,.439.962,1.808,1.808,0,0,0,1.081.3,1.422,1.422,0,0,0,.91-.246A.787.787,0,0,0,29.512,14.328Zm8.262.563a1.317,1.317,0,0,0,.967-.338,1.241,1.241,0,0,0,.334-.945h2.777a3.288,3.288,0,0,1-1.121,2.566,4.168,4.168,0,0,1-2.887,1,4.22,4.22,0,0,1-3.27-1.3,5.125,5.125,0,0,1-1.2-3.6v-.123A5.792,5.792,0,0,1,33.911,9.6a3.872,3.872,0,0,1,1.534-1.7,4.573,4.573,0,0,1,2.373-.593,4.116,4.116,0,0,1,2.944,1.028,3.647,3.647,0,0,1,1.09,2.786H39.074A1.626,1.626,0,0,0,38.714,10a1.244,1.244,0,0,0-.967-.4Q36.6,9.6,36.4,11.067a10.357,10.357,0,0,0-.062,1.283,4.068,4.068,0,0,0,.343,1.986A1.187,1.187,0,0,0,37.773,14.891Zm11.083-4.72-.976-.07a1.752,1.752,0,0,0-1.793.879V17H43.126V7.49H45.9L46,8.712a2.294,2.294,0,0,1,2.083-1.4,2.888,2.888,0,0,1,.826.105ZM53.049,17H50.078V7.49h2.971ZM49.9,5.038A1.322,1.322,0,0,1,50.359,4a1.943,1.943,0,0,1,2.373,0,1.322,1.322,0,0,1,.457,1.037,1.322,1.322,0,0,1-.457,1.037,1.943,1.943,0,0,1-2.373,0A1.322,1.322,0,0,1,49.9,5.038Zm13.8,7.277a5.735,5.735,0,0,1-1,3.538,3.2,3.2,0,0,1-2.694,1.323,2.742,2.742,0,0,1-2.153-.958v4.438H54.895V7.49h2.769l.088.879a2.742,2.742,0,0,1,2.241-1.055,3.224,3.224,0,0,1,2.733,1.3,5.805,5.805,0,0,1,.976,3.564Zm-2.962-.185q0-2.531-1.477-2.531a1.394,1.394,0,0,0-1.406.756V14.1a1.439,1.439,0,0,0,1.424.791q1.415,0,1.459-2.443Zm8.288,2.76a1.317,1.317,0,0,0,.967-.338,1.241,1.241,0,0,0,.334-.945h2.777a3.288,3.288,0,0,1-1.121,2.566,4.168,4.168,0,0,1-2.887,1,4.22,4.22,0,0,1-3.27-1.3,5.125,5.125,0,0,1-1.2-3.6v-.123A5.792,5.792,0,0,1,65.165,9.6a3.872,3.872,0,0,1,1.534-1.7,4.573,4.573,0,0,1,2.373-.593,4.116,4.116,0,0,1,2.944,1.028,3.647,3.647,0,0,1,1.09,2.786H70.328A1.626,1.626,0,0,0,69.968,10,1.244,1.244,0,0,0,69,9.6q-1.151,0-1.345,1.468a10.357,10.357,0,0,0-.062,1.283,4.068,4.068,0,0,0,.343,1.986A1.187,1.187,0,0,0,69.027,14.891ZM77.482,17H74.512V7.49h2.971ZM74.336,5.038A1.322,1.322,0,0,1,74.793,4a1.943,1.943,0,0,1,2.373,0,1.322,1.322,0,0,1,.457,1.037,1.322,1.322,0,0,1-.457,1.037,1.943,1.943,0,0,1-2.373,0A1.322,1.322,0,0,1,74.336,5.038Zm4.6,7.119a5.613,5.613,0,0,1,.554-2.536,3.96,3.96,0,0,1,1.591-1.709,4.791,4.791,0,0,1,2.435-.6,4.373,4.373,0,0,1,3.366,1.323,5.076,5.076,0,0,1,1.23,3.6v.105a4.925,4.925,0,0,1-1.235,3.529,4.384,4.384,0,0,1-3.344,1.305,4.434,4.434,0,0,1-3.261-1.217,4.761,4.761,0,0,1-1.327-3.3Zm2.962.185a3.538,3.538,0,0,0,.413,1.934,1.376,1.376,0,0,0,1.222.615q1.582,0,1.617-2.435v-.3q0-2.558-1.635-2.558-1.485,0-1.608,2.206ZM83.916,3.5h3.129L84.6,6.26l-2.417,0Zm8.218,3.99.1,1.116a3.225,3.225,0,0,1,2.716-1.292,2.713,2.713,0,0,1,2.219.888,4.226,4.226,0,0,1,.76,2.672V17H94.955V11a1.6,1.6,0,0,0-.29-1.059A1.342,1.342,0,0,0,93.61,9.6a1.413,1.413,0,0,0-1.292.686V17H89.356V7.49Z" transform="translate(870 1012)" fill="#12263f"/>
          <path id="Trazado_659977" data-name="Trazado 659977" d="M10.059,14.609H5.832L5.093,17H1.8L6.491,4.2h2.9L14.12,17H10.806ZM6.57,12.228H9.321L7.941,7.789Zm16.752.088a5.735,5.735,0,0,1-1,3.538,3.2,3.2,0,0,1-2.694,1.323,2.742,2.742,0,0,1-2.153-.958v4.438H14.515V7.49h2.769l.088.879a2.742,2.742,0,0,1,2.241-1.055,3.224,3.224,0,0,1,2.733,1.3,5.805,5.805,0,0,1,.976,3.564Zm-2.962-.185q0-2.531-1.477-2.531a1.394,1.394,0,0,0-1.406.756V14.1a1.439,1.439,0,0,0,1.424.791q1.415,0,1.459-2.443ZM27.751,17H24.781V3.5h2.971ZM32.7,17H29.729V7.49H32.7ZM29.553,5.038A1.322,1.322,0,0,1,30.01,4a1.943,1.943,0,0,1,2.373,0,1.322,1.322,0,0,1,.457,1.037,1.322,1.322,0,0,1-.457,1.037,1.943,1.943,0,0,1-2.373,0A1.322,1.322,0,0,1,29.553,5.038Zm8.991,9.853a1.317,1.317,0,0,0,.967-.338,1.241,1.241,0,0,0,.334-.945h2.777A3.288,3.288,0,0,1,41.5,16.174a4.168,4.168,0,0,1-2.887,1,4.22,4.22,0,0,1-3.27-1.3,5.125,5.125,0,0,1-1.2-3.6v-.123A5.792,5.792,0,0,1,34.682,9.6a3.872,3.872,0,0,1,1.534-1.7,4.573,4.573,0,0,1,2.373-.593,4.116,4.116,0,0,1,2.944,1.028,3.647,3.647,0,0,1,1.09,2.786H39.845A1.626,1.626,0,0,0,39.485,10a1.244,1.244,0,0,0-.967-.4q-1.151,0-1.345,1.468a10.357,10.357,0,0,0-.062,1.283,4.068,4.068,0,0,0,.343,1.986A1.187,1.187,0,0,0,38.544,14.891ZM49.232,17a3.344,3.344,0,0,1-.281-.853,2.754,2.754,0,0,1-2.285,1.028,3.374,3.374,0,0,1-2.285-.813,2.588,2.588,0,0,1-.94-2.043,2.66,2.66,0,0,1,1.143-2.338A5.821,5.821,0,0,1,47.9,11.19h.914v-.5q0-1.316-1.134-1.316a.927.927,0,0,0-1.055,1.042H43.668a2.655,2.655,0,0,1,1.173-2.239,4.931,4.931,0,0,1,2.993-.86,4.323,4.323,0,0,1,2.874.888,3.086,3.086,0,0,1,1.081,2.435v4.21a4.311,4.311,0,0,0,.4,2V17Zm-1.854-1.934a1.652,1.652,0,0,0,.918-.237,1.487,1.487,0,0,0,.523-.536V12.772h-.861q-1.547,0-1.547,1.389a.848.848,0,0,0,.272.655A.986.986,0,0,0,47.377,15.066Zm10.072-.176a1.317,1.317,0,0,0,.967-.338,1.241,1.241,0,0,0,.334-.945h2.777a3.288,3.288,0,0,1-1.121,2.566,4.168,4.168,0,0,1-2.887,1,4.22,4.22,0,0,1-3.27-1.3,5.125,5.125,0,0,1-1.2-3.6v-.123A5.792,5.792,0,0,1,53.587,9.6a3.872,3.872,0,0,1,1.534-1.7,4.573,4.573,0,0,1,2.373-.593,4.116,4.116,0,0,1,2.944,1.028,3.647,3.647,0,0,1,1.09,2.786H58.75A1.626,1.626,0,0,0,58.39,10a1.244,1.244,0,0,0-.967-.4q-1.151,0-1.345,1.468a10.357,10.357,0,0,0-.062,1.283,4.068,4.068,0,0,0,.343,1.986A1.187,1.187,0,0,0,57.45,14.891ZM65.9,17H62.934V7.49H65.9ZM62.758,5.038A1.322,1.322,0,0,1,63.215,4a1.943,1.943,0,0,1,2.373,0,1.322,1.322,0,0,1,.457,1.037,1.322,1.322,0,0,1-.457,1.037,1.943,1.943,0,0,1-2.373,0A1.322,1.322,0,0,1,62.758,5.038Zm4.6,7.119a5.613,5.613,0,0,1,.554-2.536A3.96,3.96,0,0,1,69.5,7.912a4.791,4.791,0,0,1,2.435-.6A4.373,4.373,0,0,1,75.3,8.637a5.076,5.076,0,0,1,1.23,3.6v.105A4.925,4.925,0,0,1,75.3,15.871a4.384,4.384,0,0,1-3.344,1.305,4.434,4.434,0,0,1-3.261-1.217,4.761,4.761,0,0,1-1.327-3.3Zm2.962.185a3.538,3.538,0,0,0,.413,1.934,1.376,1.376,0,0,0,1.222.615q1.582,0,1.617-2.435v-.3q0-2.558-1.635-2.558-1.485,0-1.608,2.206ZM80.556,7.49l.1,1.116a3.225,3.225,0,0,1,2.716-1.292,2.713,2.713,0,0,1,2.219.888,4.226,4.226,0,0,1,.76,2.672V17H83.377V11a1.6,1.6,0,0,0-.29-1.059A1.342,1.342,0,0,0,82.033,9.6a1.413,1.413,0,0,0-1.292.686V17H77.779V7.49Zm12.032,9.686a4.889,4.889,0,0,1-3.542-1.305,4.507,4.507,0,0,1-1.354-3.4v-.246a5.84,5.84,0,0,1,.541-2.575,3.955,3.955,0,0,1,1.578-1.727,4.763,4.763,0,0,1,2.461-.611,4.117,4.117,0,0,1,3.164,1.244,4.887,4.887,0,0,1,1.16,3.467v1.151H90.708a2.135,2.135,0,0,0,.694,1.257,2.066,2.066,0,0,0,1.389.457,2.662,2.662,0,0,0,2.2-.984l1.354,1.6a3.784,3.784,0,0,1-1.569,1.217A5.3,5.3,0,0,1,92.588,17.176ZM92.254,9.6q-1.3,0-1.547,1.723H93.7v-.229a1.467,1.467,0,0,0-.36-1.1A1.434,1.434,0,0,0,92.254,9.6Zm10.512,4.729a.684.684,0,0,0-.4-.606,6.016,6.016,0,0,0-1.5-.475A6.853,6.853,0,0,1,99.04,12.6a3.062,3.062,0,0,1-1.1-.971,2.319,2.319,0,0,1-.378-1.31,2.628,2.628,0,0,1,1.081-2.158,4.453,4.453,0,0,1,2.83-.848,4.934,4.934,0,0,1,3.023.853,2.666,2.666,0,0,1,1.143,2.241h-2.971q0-1.143-1.2-1.143a1.194,1.194,0,0,0-.782.259.8.8,0,0,0-.316.646.737.737,0,0,0,.387.642,3.654,3.654,0,0,0,1.235.4,10.671,10.671,0,0,1,1.49.378,2.706,2.706,0,0,1,2.145,2.646,2.491,2.491,0,0,1-1.156,2.118,5.068,5.068,0,0,1-2.993.817,5.172,5.172,0,0,1-2.18-.439,3.645,3.645,0,0,1-1.494-1.2,2.707,2.707,0,0,1-.536-1.591h2.769a1.145,1.145,0,0,0,.439.962,1.808,1.808,0,0,0,1.081.3,1.422,1.422,0,0,0,.91-.246A.787.787,0,0,0,102.766,14.328Z" transform="translate(941 1395)" fill="#12263f"/>
          <path id="Trazado_659975" data-name="Trazado 659975" d="M8.87,12.658V17H5.785V4.2h5.106a5.948,5.948,0,0,1,2.6.541,4.074,4.074,0,0,1,1.749,1.538,4.2,4.2,0,0,1,.62,2.263,3.7,3.7,0,0,1-1.34,2.993,5.561,5.561,0,0,1-3.678,1.121Zm0-2.382h2.021a1.906,1.906,0,0,0,1.367-.448,1.665,1.665,0,0,0,.47-1.266,2.059,2.059,0,0,0-.483-1.433,1.712,1.712,0,0,0-1.318-.545H8.87Zm14.247-.105-.976-.07a1.752,1.752,0,0,0-1.793.879V17H17.386V7.49h2.777l.1,1.222a2.294,2.294,0,0,1,2.083-1.4,2.888,2.888,0,0,1,.826.105Zm.378,1.986a5.613,5.613,0,0,1,.554-2.536,3.96,3.96,0,0,1,1.591-1.709,4.791,4.791,0,0,1,2.435-.6A4.373,4.373,0,0,1,31.44,8.637a5.076,5.076,0,0,1,1.23,3.6v.105a4.925,4.925,0,0,1-1.235,3.529,4.384,4.384,0,0,1-3.344,1.305,4.434,4.434,0,0,1-3.261-1.217,4.761,4.761,0,0,1-1.327-3.3Zm2.962.185a3.538,3.538,0,0,0,.413,1.934,1.376,1.376,0,0,0,1.222.615q1.582,0,1.617-2.435v-.3q0-2.558-1.635-2.558-1.485,0-1.608,2.206ZM42.8,12.315a5.735,5.735,0,0,1-1,3.538,3.2,3.2,0,0,1-2.694,1.323,2.742,2.742,0,0,1-2.153-.958v4.438H34V7.49h2.769l.088.879A2.742,2.742,0,0,1,39.1,7.314a3.224,3.224,0,0,1,2.733,1.3,5.805,5.805,0,0,1,.976,3.564Zm-2.962-.185q0-2.531-1.477-2.531a1.394,1.394,0,0,0-1.406.756V14.1a1.439,1.439,0,0,0,1.424.791q1.415,0,1.459-2.443Zm9.932,3.841a3.054,3.054,0,0,1-2.54,1.2,3,3,0,0,1-2.369-.91,3.826,3.826,0,0,1-.8-2.615V7.49h2.962v6.179a1.065,1.065,0,0,0,1.187,1.222,1.548,1.548,0,0,0,1.45-.729V7.49h2.979V17H49.862Zm9.088,1.2a4.889,4.889,0,0,1-3.542-1.305,4.507,4.507,0,0,1-1.354-3.4v-.246a5.84,5.84,0,0,1,.541-2.575,3.955,3.955,0,0,1,1.578-1.727,4.763,4.763,0,0,1,2.461-.611,4.117,4.117,0,0,1,3.164,1.244,4.887,4.887,0,0,1,1.16,3.467v1.151H56.981a2.135,2.135,0,0,0,.694,1.257,2.066,2.066,0,0,0,1.389.457,2.662,2.662,0,0,0,2.2-.984l1.354,1.6a3.784,3.784,0,0,1-1.569,1.217A5.3,5.3,0,0,1,58.862,17.176ZM58.528,9.6q-1.3,0-1.547,1.723h2.988v-.229a1.467,1.467,0,0,0-.36-1.1A1.434,1.434,0,0,0,58.528,9.6ZM69.04,14.328a.684.684,0,0,0-.4-.606,6.016,6.016,0,0,0-1.5-.475,6.853,6.853,0,0,1-1.828-.646,3.062,3.062,0,0,1-1.1-.971,2.319,2.319,0,0,1-.378-1.31,2.628,2.628,0,0,1,1.081-2.158,4.453,4.453,0,0,1,2.83-.848,4.934,4.934,0,0,1,3.023.853,2.666,2.666,0,0,1,1.143,2.241H68.943q0-1.143-1.2-1.143a1.194,1.194,0,0,0-.782.259.8.8,0,0,0-.316.646.737.737,0,0,0,.387.642,3.654,3.654,0,0,0,1.235.4,10.671,10.671,0,0,1,1.49.378A2.706,2.706,0,0,1,71.9,14.24a2.491,2.491,0,0,1-1.156,2.118,5.068,5.068,0,0,1-2.993.817,5.172,5.172,0,0,1-2.18-.439,3.645,3.645,0,0,1-1.494-1.2,2.707,2.707,0,0,1-.536-1.591h2.769a1.145,1.145,0,0,0,.439.962,1.808,1.808,0,0,0,1.081.3,1.422,1.422,0,0,0,.91-.246A.787.787,0,0,0,69.04,14.328Zm7.69-9.2V7.49h1.564V9.547H76.73V13.9a1.111,1.111,0,0,0,.193.747,1.037,1.037,0,0,0,.765.211,4.345,4.345,0,0,0,.738-.053v2.118a5.466,5.466,0,0,1-1.67.255,3.1,3.1,0,0,1-2.259-.721,2.954,2.954,0,0,1-.729-2.188V9.547H72.555V7.49h1.213V5.126ZM84.816,17a3.344,3.344,0,0,1-.281-.853,2.754,2.754,0,0,1-2.285,1.028,3.374,3.374,0,0,1-2.285-.813,2.588,2.588,0,0,1-.94-2.043,2.66,2.66,0,0,1,1.143-2.338,5.821,5.821,0,0,1,3.322-.791H84.4v-.5q0-1.316-1.134-1.316a.927.927,0,0,0-1.055,1.042H79.252a2.655,2.655,0,0,1,1.173-2.239,4.931,4.931,0,0,1,2.993-.86,4.323,4.323,0,0,1,2.874.888,3.086,3.086,0,0,1,1.081,2.435v4.21a4.311,4.311,0,0,0,.4,2V17Zm-1.854-1.934a1.652,1.652,0,0,0,.918-.237,1.487,1.487,0,0,0,.523-.536V12.772h-.861q-1.547,0-1.547,1.389a.848.848,0,0,0,.272.655A.986.986,0,0,0,82.961,15.066ZM14.455,37.175a5.809,5.809,0,0,1,.976-3.56,3.211,3.211,0,0,1,2.725-1.3,2.731,2.731,0,0,1,2.145,1V28.5h2.971V42H20.607l-.149-1.02a2.8,2.8,0,0,1-2.32,1.2,3.205,3.205,0,0,1-2.689-1.3A5.993,5.993,0,0,1,14.455,37.175Zm2.962.185q0,2.531,1.477,2.531a1.458,1.458,0,0,0,1.406-.826V35.443a1.419,1.419,0,0,0-1.389-.844q-1.371,0-1.485,2.215Zm12.138,4.816a4.889,4.889,0,0,1-3.542-1.305,4.507,4.507,0,0,1-1.354-3.4v-.246a5.84,5.84,0,0,1,.541-2.575,3.955,3.955,0,0,1,1.578-1.727,4.763,4.763,0,0,1,2.461-.611A4.117,4.117,0,0,1,32.4,33.558a4.887,4.887,0,0,1,1.16,3.467v1.151H27.674a2.135,2.135,0,0,0,.694,1.257,2.066,2.066,0,0,0,1.389.457,2.662,2.662,0,0,0,2.2-.984l1.354,1.6a3.784,3.784,0,0,1-1.569,1.217A5.3,5.3,0,0,1,29.555,42.176ZM29.221,34.6q-1.3,0-1.547,1.723h2.988v-.229a1.467,1.467,0,0,0-.36-1.1A1.434,1.434,0,0,0,29.221,34.6Zm13.808,3.876,1.5-5.985h3.12L44.549,42H41.525l-3.1-9.51h3.129ZM53.76,42a3.344,3.344,0,0,1-.281-.853,2.754,2.754,0,0,1-2.285,1.028,3.374,3.374,0,0,1-2.285-.813,2.588,2.588,0,0,1-.94-2.043,2.66,2.66,0,0,1,1.143-2.338,5.821,5.821,0,0,1,3.322-.791h.914v-.5q0-1.316-1.134-1.316a.927.927,0,0,0-1.055,1.042H48.2a2.655,2.655,0,0,1,1.173-2.239,4.931,4.931,0,0,1,2.993-.86,4.323,4.323,0,0,1,2.874.888,3.086,3.086,0,0,1,1.081,2.435v4.21a4.311,4.311,0,0,0,.4,2V42Zm-1.854-1.934a1.652,1.652,0,0,0,.918-.237,1.487,1.487,0,0,0,.523-.536V37.772h-.861q-1.547,0-1.547,1.389a.848.848,0,0,0,.272.655A.986.986,0,0,0,51.905,40.066ZM61.081,42H58.11V28.5h2.971Zm1.45-4.843a5.613,5.613,0,0,1,.554-2.536,3.96,3.96,0,0,1,1.591-1.709,4.791,4.791,0,0,1,2.435-.6,4.373,4.373,0,0,1,3.366,1.323,5.076,5.076,0,0,1,1.23,3.6v.105a4.925,4.925,0,0,1-1.235,3.529,4.384,4.384,0,0,1-3.344,1.305,4.434,4.434,0,0,1-3.261-1.217,4.761,4.761,0,0,1-1.327-3.3Zm2.962.185a3.538,3.538,0,0,0,.413,1.934,1.376,1.376,0,0,0,1.222.615q1.582,0,1.617-2.435v-.3q0-2.558-1.635-2.558-1.485,0-1.608,2.206Zm13.271-2.171-.976-.07A1.752,1.752,0,0,0,76,35.979V42H73.034V32.49h2.777l.1,1.222a2.294,2.294,0,0,1,2.083-1.4,2.888,2.888,0,0,1,.826.105Z" transform="translate(561 1395)" fill="#12263f"/>
          <path id="Trazado_659976" data-name="Trazado 659976" d="M11.751,17V4.2h4.6a6.509,6.509,0,0,1,3.757.905,3.012,3.012,0,0,1,1.288,2.628,3.045,3.045,0,0,1-.457,1.7,2.663,2.663,0,0,1-1.345,1.037,2.7,2.7,0,0,1,1.538.984,2.862,2.862,0,0,1,.536,1.758,3.388,3.388,0,0,1-1.191,2.826A5.667,5.667,0,0,1,16.945,17Zm3.085-5.44v3.067h2.021a1.923,1.923,0,0,0,1.283-.382,1.338,1.338,0,0,0,.448-1.077A1.419,1.419,0,0,0,17,11.56Zm0-2.021h1.608a2.285,2.285,0,0,0,1.441-.37A1.314,1.314,0,0,0,18.316,8.1a1.379,1.379,0,0,0-.466-1.168,2.493,2.493,0,0,0-1.5-.357H14.836Zm12.99,7.638a4.889,4.889,0,0,1-3.542-1.305,4.507,4.507,0,0,1-1.354-3.4v-.246a5.84,5.84,0,0,1,.541-2.575,3.955,3.955,0,0,1,1.578-1.727,4.763,4.763,0,0,1,2.461-.611,4.117,4.117,0,0,1,3.164,1.244,4.887,4.887,0,0,1,1.16,3.467v1.151H25.945a2.135,2.135,0,0,0,.694,1.257,2.066,2.066,0,0,0,1.389.457,2.662,2.662,0,0,0,2.2-.984l1.354,1.6a3.784,3.784,0,0,1-1.569,1.217A5.3,5.3,0,0,1,27.826,17.176ZM27.492,9.6q-1.3,0-1.547,1.723h2.988v-.229a1.467,1.467,0,0,0-.36-1.1A1.434,1.434,0,0,0,27.492,9.6ZM35.745,7.49l.1,1.116a3.225,3.225,0,0,1,2.716-1.292,2.713,2.713,0,0,1,2.219.888,4.226,4.226,0,0,1,.76,2.672V17H38.566V11a1.6,1.6,0,0,0-.29-1.059A1.342,1.342,0,0,0,37.222,9.6a1.413,1.413,0,0,0-1.292.686V17H32.968V7.49Zm12.032,9.686a4.889,4.889,0,0,1-3.542-1.305,4.507,4.507,0,0,1-1.354-3.4v-.246a5.84,5.84,0,0,1,.541-2.575A3.955,3.955,0,0,1,45,7.925a4.763,4.763,0,0,1,2.461-.611,4.117,4.117,0,0,1,3.164,1.244,4.887,4.887,0,0,1,1.16,3.467v1.151H45.9a2.135,2.135,0,0,0,.694,1.257,2.066,2.066,0,0,0,1.389.457,2.662,2.662,0,0,0,2.2-.984l1.354,1.6a3.784,3.784,0,0,1-1.569,1.217A5.3,5.3,0,0,1,47.777,17.176ZM47.443,9.6q-1.3,0-1.547,1.723h2.988v-.229a1.467,1.467,0,0,0-.36-1.1A1.434,1.434,0,0,0,47.443,9.6ZM53.666,17V9.547h-1.38V7.49h1.38V7.174a3.631,3.631,0,0,1,1.248-2.909,4.987,4.987,0,0,1,3.243-.949,11.509,11.509,0,0,1,3.094.51l-.4,2.338-.492-.132a7.832,7.832,0,0,0-2.021-.255q-1.7,0-1.7,1.547V7.49H58.5V9.547H56.637V17Zm8.947,0H59.634V7.49h2.979Zm5.827-2.109a1.317,1.317,0,0,0,.967-.338,1.241,1.241,0,0,0,.334-.945h2.777A3.288,3.288,0,0,1,71.4,16.174a4.168,4.168,0,0,1-2.887,1,4.22,4.22,0,0,1-3.27-1.3,5.125,5.125,0,0,1-1.2-3.6v-.123A5.792,5.792,0,0,1,64.578,9.6a3.872,3.872,0,0,1,1.534-1.7,4.573,4.573,0,0,1,2.373-.593,4.116,4.116,0,0,1,2.944,1.028,3.647,3.647,0,0,1,1.09,2.786H69.741A1.626,1.626,0,0,0,69.381,10a1.244,1.244,0,0,0-.967-.4q-1.151,0-1.345,1.468a10.357,10.357,0,0,0-.062,1.283,4.068,4.068,0,0,0,.343,1.986A1.187,1.187,0,0,0,68.44,14.891ZM76.9,17H73.925V7.49H76.9ZM73.749,5.038A1.322,1.322,0,0,1,74.206,4a1.943,1.943,0,0,1,2.373,0,1.322,1.322,0,0,1,.457,1.037,1.322,1.322,0,0,1-.457,1.037,1.943,1.943,0,0,1-2.373,0A1.322,1.322,0,0,1,73.749,5.038Zm4.6,7.119A5.613,5.613,0,0,1,78.9,9.622,3.96,3.96,0,0,1,80.49,7.912a4.791,4.791,0,0,1,2.435-.6,4.373,4.373,0,0,1,3.366,1.323,5.076,5.076,0,0,1,1.23,3.6v.105a4.925,4.925,0,0,1-1.235,3.529,4.384,4.384,0,0,1-3.344,1.305,4.434,4.434,0,0,1-3.261-1.217,4.761,4.761,0,0,1-1.327-3.3Zm2.962.185a3.538,3.538,0,0,0,.413,1.934,1.376,1.376,0,0,0,1.222.615q1.582,0,1.617-2.435v-.3q0-2.558-1.635-2.558-1.485,0-1.608,2.206Zm12.5,1.986a.684.684,0,0,0-.4-.606,6.016,6.016,0,0,0-1.5-.475,6.853,6.853,0,0,1-1.828-.646,3.062,3.062,0,0,1-1.1-.971,2.319,2.319,0,0,1-.378-1.31,2.628,2.628,0,0,1,1.081-2.158,4.453,4.453,0,0,1,2.83-.848,4.934,4.934,0,0,1,3.023.853,2.666,2.666,0,0,1,1.143,2.241H93.709q0-1.143-1.2-1.143a1.194,1.194,0,0,0-.782.259.8.8,0,0,0-.316.646.737.737,0,0,0,.387.642,3.654,3.654,0,0,0,1.235.4,10.671,10.671,0,0,1,1.49.378,2.706,2.706,0,0,1,2.145,2.646,2.491,2.491,0,0,1-1.156,2.118,5.068,5.068,0,0,1-2.993.817,5.172,5.172,0,0,1-2.18-.439,3.645,3.645,0,0,1-1.494-1.2A2.707,2.707,0,0,1,88.3,13.95h2.769a1.145,1.145,0,0,0,.439.962,1.808,1.808,0,0,0,1.081.3,1.422,1.422,0,0,0,.91-.246A.787.787,0,0,0,93.806,14.328Z" transform="translate(746 1494)" fill="#12263f"/>
          <g id="configuraciones-de-la-aplicacion" transform="translate(857.538 1249.731)">
            <path id="Trazado_659034" data-name="Trazado 659034" d="M134.14,148.637h-6.782a1.481,1.481,0,0,1-1.481-1.481V144.55a13.206,13.206,0,0,1-2-.829l-1.851,1.851a1.484,1.484,0,0,1-2.088,0l-4.8-4.8a1.481,1.481,0,0,1,0-2.088l1.851-1.851a13.2,13.2,0,0,1-.829-2h-2.606a1.481,1.481,0,0,1-1.481-1.481v-6.782a1.481,1.481,0,0,1,1.481-1.481h2.606a14.607,14.607,0,0,1,.829-2l-1.851-1.881a1.481,1.481,0,0,1-.009-2.094l.009-.009,4.8-4.783a1.481,1.481,0,0,1,2.088,0l1.851,1.836a14.821,14.821,0,0,1,2-.814v-2.577a1.481,1.481,0,0,1,1.481-1.481h6.782a1.481,1.481,0,0,1,1.481,1.481v2.606a19.6,19.6,0,0,1,2,.829l1.836-1.836a1.481,1.481,0,0,1,2.088,0l4.8,4.783a1.481,1.481,0,0,1,.009,2.094l-.009.009-1.836,1.836a19.591,19.591,0,0,1,.829,2h2.606a1.481,1.481,0,0,1,1.481,1.481v6.782a1.481,1.481,0,0,1-1.481,1.481H145.32a14.823,14.823,0,0,1-.814,2l1.836,1.851a1.481,1.481,0,0,1,0,2.088l-4.8,4.8a1.481,1.481,0,0,1-2.088,0l-1.851-1.851a13.693,13.693,0,0,1-1.984.829v2.606A1.481,1.481,0,0,1,134.14,148.637Zm-5.3-2.962h3.821v-2.251a1.481,1.481,0,0,1,1.111-1.481,12.273,12.273,0,0,0,3.347-1.377,1.481,1.481,0,0,1,1.807.222l1.585,1.585,2.7-2.7-1.585-1.585a1.481,1.481,0,0,1-.222-1.807,11.847,11.847,0,0,0,1.377-3.228,1.481,1.481,0,0,1,1.481-1.125h2.251v-3.88h-2.281a1.481,1.481,0,0,1-1.481-1.111,12.3,12.3,0,0,0-1.392-3.347,1.481,1.481,0,0,1,.222-1.807l1.585-1.585-2.651-2.7-1.585,1.585a1.481,1.481,0,0,1-1.807.222,12.3,12.3,0,0,0-3.347-1.392,1.481,1.481,0,0,1-1.111-1.481v-2.192h-3.821v2.236a1.481,1.481,0,0,1-1.125,1.481,12.512,12.512,0,0,0-3.347,1.392,1.481,1.481,0,0,1-1.807-.222l-1.57-1.629-2.71,2.7,1.585,1.585a1.481,1.481,0,0,1,.222,1.807,12.273,12.273,0,0,0-1.377,3.347,1.481,1.481,0,0,1-1.481,1.111h-2.192v3.821h2.31A1.481,1.481,0,0,1,118.828,133a12.474,12.474,0,0,0,1.377,3.347,1.481,1.481,0,0,1-.222,1.807l-1.585,1.585,2.7,2.7,1.585-1.585a1.481,1.481,0,0,1,1.807-.222,12.682,12.682,0,0,0,3.228,1.318,1.481,1.481,0,0,1,1.125,1.481Z" transform="translate(-55.021 -90.689)"/>
            <path id="Trazado_659035" data-name="Trazado 659035" d="M171.837,180.379a9.344,9.344,0,0,1,0-18.689,1.481,1.481,0,0,1,0,2.962,6.4,6.4,0,1,0,4.28,1.659,1.481,1.481,0,0,1,1.984-2.192,9.329,9.329,0,0,1-6.264,16.29Z" transform="translate(-96.11 -131.76)"/>
            <path id="Trazado_659036" data-name="Trazado 659036" d="M98.3,78.911H46.036a1.481,1.481,0,0,1-1.481-1.481V1.491A1.481,1.481,0,0,1,46.036.01H86.019a1.481,1.481,0,0,1,1.022.415L106.5,19.113a1.481,1.481,0,0,1,.459,1.081V70.247A8.678,8.678,0,0,1,98.3,78.911ZM47.517,75.949H98.3a5.716,5.716,0,0,0,5.7-5.7V20.816L85.382,3.046H47.517Z" transform="translate(0 -0.008)"/>
            <path id="Trazado_659037" data-name="Trazado 659037" d="M281.494,21.638H268.255a7.745,7.745,0,0,1-7.7-7.7V1.483a1.475,1.475,0,0,1,2.5-1.066l19.459,18.689a1.462,1.462,0,0,1-1.022,2.532ZM263.517,4.963v8.974a4.768,4.768,0,0,0,4.739,4.739h9.552Z" transform="translate(-176.017)"/>
            <path id="Trazado_659038" data-name="Trazado 659038" d="M167.374,336.412H144.436a1.481,1.481,0,0,1,0-2.962h22.939a1.481,1.481,0,1,1,0,2.962Z" transform="translate(-80.185 -271.725)"/>
            <path id="Trazado_659039" data-name="Trazado 659039" d="M193.034,367.372h-7.878a1.481,1.481,0,0,1,0-2.962h7.878a1.481,1.481,0,1,1,0,2.962Z" transform="translate(-113.368 -296.955)"/>
          </g>
          <g id="documento" transform="translate(847.216 1092.73)">
            <path id="Trazado_659040" data-name="Trazado 659040" d="M64.317,7.644A1.643,1.643,0,0,0,62.674,6H22.91c-.045,0-.084.022-.129.026a1.6,1.6,0,0,0-.4.079,1.584,1.584,0,0,0-.157.056,1.621,1.621,0,0,0-.492.327L7.262,20.961a1.621,1.621,0,0,0-.326.495c-.018.039-.028.079-.043.12a1.618,1.618,0,0,0-.093.468c0,.028-.016.053-.016.081V83.26A1.643,1.643,0,0,0,8.428,84.9H62.674a1.643,1.643,0,0,0,1.644-1.644V67.865l7.437,11.269a6.191,6.191,0,1,0,10.334-6.821L74.64,61.028a19.2,19.2,0,0,0-10.413-30.4,1.594,1.594,0,0,0,.09-.445Zm-43.064,3.98V20.48H12.4ZM61.03,81.616H10.071V23.767H22.9a1.643,1.643,0,0,0,1.644-1.644V9.288H61.03V30.076a19.238,19.238,0,0,0-5.452,38.019,19.408,19.408,0,0,0,3.9.4c.519,0,1.035-.026,1.55-.068Zm18.315-7.492a2.914,2.914,0,0,1-.826,4.033,2.845,2.845,0,0,1-2.178.417A2.9,2.9,0,0,1,74.5,77.323l-7-10.6A18.472,18.472,0,0,0,72.335,63.5ZM72.759,40.453a15.94,15.94,0,1,1-13.351-7.174,16.051,16.051,0,0,1,3.235.331A15.855,15.855,0,0,1,72.759,40.453Z" fill="#fff"/>
            <path id="Trazado_659041" data-name="Trazado 659041" d="M12.717,25.152H28.771a1.644,1.644,0,0,0,0-3.288H12.717a1.644,1.644,0,1,0,0,3.288Z" transform="translate(2.762 10.214)" fill="#fff"/>
            <path id="Trazado_659042" data-name="Trazado 659042" d="M12.717,30.032H28.771a1.644,1.644,0,0,0,0-3.288H12.717a1.644,1.644,0,1,0,0,3.288Z" transform="translate(2.762 13.355)" fill="#fff"/>
            <path id="Trazado_659043" data-name="Trazado 659043" d="M12.717,34.913H28.771a1.644,1.644,0,0,0,0-3.288H12.717a1.644,1.644,0,1,0,0,3.288Z" transform="translate(2.762 16.498)" fill="#fff"/>
            <path id="Trazado_659044" data-name="Trazado 659044" d="M12.717,39.794H28.771a1.644,1.644,0,0,0,0-3.288H12.717a1.644,1.644,0,0,0,0,3.288Z" transform="translate(2.762 19.64)" fill="#fff"/>
            <path id="Trazado_659045" data-name="Trazado 659045" d="M39.076,41.387H12.717a1.644,1.644,0,1,0,0,3.288H39.076a1.644,1.644,0,1,0,0-3.288Z" transform="translate(2.762 22.783)" fill="#fff"/>
            <path id="Trazado_659046" data-name="Trazado 659046" d="M39.076,46.268H12.717a1.644,1.644,0,1,0,0,3.288H39.076a1.644,1.644,0,1,0,0-3.288Z" transform="translate(2.762 25.925)" fill="#fff"/>
            <path id="Trazado_659047" data-name="Trazado 659047" d="M36.106,31.306H34.928a1.644,1.644,0,1,0,0,3.288h1.177a1.644,1.644,0,0,0,0-3.288Z" transform="translate(17.062 16.292)" fill="#fff"/>
            <path id="Trazado_659048" data-name="Trazado 659048" d="M40.281,31.306H39.1a1.644,1.644,0,1,0,0,3.288h1.178a1.644,1.644,0,1,0,0-3.288Z" transform="translate(19.749 16.292)" fill="#fff"/>
            <path id="Trazado_659049" data-name="Trazado 659049" d="M43.277,34.593h1.178a1.644,1.644,0,0,0,0-3.288H43.277a1.644,1.644,0,1,0,0,3.288Z" transform="translate(22.437 16.292)" fill="#fff"/>
          </g>
          <g id="Tumbs_up_like" data-name="Tumbs up like" transform="translate(768.633 1343.836)">
            <path id="Trazado_659050" data-name="Trazado 659050" d="M75.752,39.969a6.687,6.687,0,0,0-5.534-10.432H49.637a36.681,36.681,0,0,0,3.862-16.4c0-9.413-12.372-13.375-14.027-5.952l-1.455,6.587c-1.388,6.236-5.417,12.054-11.7,14.144L22.3,29.253a6.687,6.687,0,0,0-5.584-3.059H1.672A1.672,1.672,0,0,0,0,27.865V71.333a1.672,1.672,0,0,0,1.672,1.672H16.719a6.687,6.687,0,0,0,5.567-2.993c9.964,3.962,15.364,2.993,46.26,2.993A6.687,6.687,0,0,0,74.08,62.573a6.687,6.687,0,0,0,2.825-10.6,6.687,6.687,0,0,0-1.154-12ZM16.719,69.661H3.344V29.537H16.719a3.344,3.344,0,0,1,3.344,3.344V66.318A3.344,3.344,0,0,1,16.719,69.661ZM71.89,59.63H63.531a1.672,1.672,0,1,0,0,3.344h5.016a3.344,3.344,0,0,1,0,6.687c-32.15,0-35.828.886-45.14-2.809V32.88c0-.652-.6-.267,3.979-1.789,7.49-2.508,12.271-9.312,13.893-16.585L42.749,7.92c.719-3.059,7.406-.334,7.406,5.216a33.621,33.621,0,0,1-4.8,17.254,1.672,1.672,0,0,0,1.455,2.491H70.218a3.344,3.344,0,1,1,0,6.687H63.531a1.672,1.672,0,0,0,0,3.344H73.562a3.344,3.344,0,0,1,0,6.687H63.531a1.672,1.672,0,1,0,0,3.344H71.89a3.344,3.344,0,1,1,0,6.687Z" transform="translate(0 0)" fill="#fff"/>
            <path id="Trazado_659051" data-name="Trazado 659051" d="M8.488,39.488a1.679,1.679,0,1,0,2.374,0,1.679,1.679,0,0,0-2.374,0Z" transform="translate(5.372 23.971)" fill="#fff"/>
          </g>
          <g id="proposicion" transform="translate(627.404 1248.219)">
            <path id="Trazado_659052" data-name="Trazado 659052" d="M4.062,72.389c2.876.016,7.311.042,9.558.042a.909.909,0,0,0,.172,0,6.792,6.792,0,0,1,2.08.329L43.3,81.6a6.827,6.827,0,0,0,6.217-1.062L80.178,57.248a4.518,4.518,0,0,0,.8-6.339q-.089-.115-.186-.224l-.046-.053a4.476,4.476,0,0,0-5.773-.754l-5.335,3.377V38.623l1.229-.389a4.165,4.165,0,0,0,2.4-5.835s-3.789-7.1-3.8-7.089a1.352,1.352,0,0,0-.819-.683l-15.6-4.445,6.457-8.537.036-.052A3.028,3.028,0,0,0,59.5,8.1L55.546,1.357a1.248,1.248,0,0,0-.1-.136A3.153,3.153,0,0,0,52.962,0h-15.8a3.153,3.153,0,0,0-2.485,1.214,1.228,1.228,0,0,0-.1.136L30.615,8.09a3.053,3.053,0,0,0,0,3.55l6.459,8.537-15.6,4.454a1.424,1.424,0,0,0-.83.683l-3.8,7.115a4.16,4.16,0,0,0,2.41,5.8l1.229.385V50.078L16.2,52.415a6.837,6.837,0,0,1-3.269.838H4.1A4.1,4.1,0,0,0,0,57.35V68.293a4.1,4.1,0,0,0,4.062,4.1Zm62.845-17.4-3.7,2.342a5,5,0,0,0-4.248-4.535L46.425,50.806V37.3l3.012,4.537a4.1,4.1,0,0,0,4.654,1.675l12.816-4.035v15.5ZM70.895,34.85a1.355,1.355,0,0,1-.852.782L53.273,40.911a1.366,1.366,0,0,1-1.554-.571l-4.5-6.77,20.366-6,3.258,6.1A1.4,1.4,0,0,1,70.895,34.85Zm-27.2-10.438L33.488,10.925H43.695Zm2.731-13.488h10.2l-10.2,13.491Zm6.827-8.081,3.141,5.35H47.977l4.551-5.462h.434A.409.409,0,0,1,53.253,2.844ZM45.06,7.426,41.149,2.732h7.821ZM36.867,2.844a.41.41,0,0,1,.291-.112h.434l4.551,5.462H33.727Zm1.968,19.675,3.635,4.805a3.133,3.133,0,0,0,2.59,1.352,3.1,3.1,0,0,0,2.551-1.3l3.673-4.856L63.37,25.967,45.06,31.361,26.751,25.966ZM19.228,34.849a1.374,1.374,0,0,1,.03-1.159l3.272-6.12,20.366,6L38.39,40.35a1.365,1.365,0,0,1-1.547.561L20.072,35.639a1.378,1.378,0,0,1-.841-.791h0Zm16.8,8.668a4.052,4.052,0,0,0,1.214.187,4.1,4.1,0,0,0,3.433-1.854L43.695,37.3V50.373L28.007,47.886a8.159,8.159,0,0,0-4.794.737V39.482ZM2.731,57.35A1.365,1.365,0,0,1,4.1,55.985h8.835a9.591,9.591,0,0,0,4.578-1.167l6.721-3.669a5.468,5.468,0,0,1,3.356-.564L58.539,55.49a2.309,2.309,0,0,1-.351,4.591H31.406a1.365,1.365,0,1,0,0,2.731h6.368l8.075,6.135a3.392,3.392,0,0,0,3.852.162L76.449,52.178a1.763,1.763,0,0,1,2.249.262.5.5,0,0,0,.034.04,1.789,1.789,0,0,1-.123,2.527q-.045.041-.093.079l-30.65,23.28A4.1,4.1,0,0,1,44.137,79L16.7,70.161a9.5,9.5,0,0,0-2.913-.46h-.015c-2.148-.007-6.755-.025-9.695-.042a1.365,1.365,0,0,1-1.348-1.365Zm51.812,5.462L48.24,66.8a.66.66,0,0,1-.742-.031l-5.211-3.96Z" fill="#fff"/>
          </g>
          <g id="contexto" transform="translate(686.992 1098.73)">
            <path id="Trazado_659053" data-name="Trazado 659053" d="M177.351,301.2a1.33,1.33,0,0,0,.318-.039l5.26-1.315a1.315,1.315,0,1,0-.637-2.552l-3.135.783,2.1-8.392a1.315,1.315,0,0,0-2.551-.64l-2.63,10.52a1.315,1.315,0,0,0,1.27,1.635Zm0,0" transform="translate(-147.098 -240.705)"/>
            <path id="Trazado_659054" data-name="Trazado 659054" d="M94.578,279.879c4.915,0,6.472-6,6.536-6.255a1.316,1.316,0,0,0-2.552-.642c-.01.044-1.123,4.267-3.984,4.267s-3.974-4.224-3.984-4.267a1.316,1.316,0,0,0-2.552.642C88.106,273.879,89.663,279.879,94.578,279.879Zm0,0" transform="translate(-73.53 -227.279)"/>
            <path id="Trazado_659055" data-name="Trazado 659055" d="M238.578,279.879c4.915,0,6.472-6,6.536-6.255a1.316,1.316,0,0,0-2.552-.642c-.01.044-1.123,4.267-3.984,4.267s-3.974-4.224-3.984-4.267a1.316,1.316,0,0,0-2.552.642C232.106,273.879,233.663,279.879,238.578,279.879Zm0,0" transform="translate(-193.86 -227.279)"/>
            <path id="Trazado_659056" data-name="Trazado 659056" d="M153.323,98.63h13.15a1.315,1.315,0,1,0,0-2.63h-13.15a1.315,1.315,0,1,0,0,2.63Zm0,0" transform="translate(-127.015 -80.22)"/>
            <path id="Trazado_659057" data-name="Trazado 659057" d="M153.323,130.63h13.15a1.315,1.315,0,1,0,0-2.63h-13.15a1.315,1.315,0,1,0,0,2.63Zm0,0" transform="translate(-127.015 -106.96)"/>
            <path id="Trazado_659058" data-name="Trazado 659058" d="M153.323,66.63h2.63a1.315,1.315,0,0,0,0-2.63h-2.63a1.315,1.315,0,1,0,0,2.63Zm0,0" transform="translate(-127.015 -53.48)"/>
            <path id="Trazado_659059" data-name="Trazado 659059" d="M5.4,53.784a27.6,27.6,0,0,0,54.978,0c3.053-.679,5.381-3.895,5.381-7.758,0-3.813-2.263-7-5.26-7.731V30.245c0-2.823-4.875-4.8-14.465-5.877V9.205c0-.028-.015-.053-.016-.08a1.3,1.3,0,0,0-.068-.342c-.015-.042-.025-.082-.044-.123a1.306,1.306,0,0,0-.263-.385L37.753.385a1.282,1.282,0,0,0-.384-.263,1.127,1.127,0,0,0-.132-.046A1.272,1.272,0,0,0,36.9.01c-.019,0-.045-.01-.074-.01H23.678a3.945,3.945,0,0,0-3.945,3.945V24.368c-9.59,1.08-14.465,3.054-14.465,5.877v8.049c-3,.734-5.26,3.917-5.26,7.731C.008,49.889,2.335,53.105,5.4,53.784ZM60.5,41.089a5.372,5.372,0,0,1,2.63,4.936,5.372,5.372,0,0,1-2.63,4.936ZM38.143,4.49l3.4,3.4h-3.4Zm-15.78-.544A1.315,1.315,0,0,1,23.678,2.63H35.513V9.205a1.315,1.315,0,0,0,1.315,1.315H43.4v17.1a1.315,1.315,0,0,1-1.315,1.315H23.678a1.315,1.315,0,0,1-1.315-1.315ZM7.9,30.294c.309-.686,3.593-2.31,11.835-3.28v.6a3.945,3.945,0,0,0,3.945,3.945h18.41a3.945,3.945,0,0,0,3.945-3.945v-.6c8.3.976,11.572,2.608,11.844,3.168-.581,1.438-9.429,4.008-24.994,4.008-15.517,0-24.362-2.555-24.985-3.87Zm0,3.057c6.718,3.418,24.077,3.469,24.985,3.469s18.267-.051,24.985-3.469V51.285a24.985,24.985,0,1,1-49.97,0Zm-2.63,7.738v9.873a5.372,5.372,0,0,1-2.63-4.936A5.372,5.372,0,0,1,5.268,41.089Zm0,0"/>
          </g>
        </g>
        <g id="Grupo_951407" data-name="Grupo 951407" transform="translate(-71 -599)">
          <g id="Grupo_162490" data-name="Grupo 162490" transform="translate(987.324 -9236)">
            <path id="Trazado_113582" data-name="Trazado 113582" d="M17,0A17,17,0,1,1,0,17,17,17,0,0,1,17,0Z" transform="translate(154.676 11172)" fill="#ffd947"/>
            <text id="_" data-name="+" transform="translate(171.676 11198)" fill="#12263f" font-size="26" font-family="Roboto-Black, Roboto" font-weight="800"><tspan x="-6.944" y="0">+</tspan></text>
          </g>
        </g>
        <g id="Grupo_951410" data-name="Grupo 951410" transform="translate(-647 -599)">
          <g id="Grupo_162490-2" data-name="Grupo 162490" transform="translate(987.324 -9236)">
            <path id="Trazado_113582-2" data-name="Trazado 113582" d="M17,0A17,17,0,1,1,0,17,17,17,0,0,1,17,0Z" transform="translate(154.676 11172)" fill="#ffd947"/>
            <text id="_2" data-name="+" transform="translate(171.676 11198)" fill="#12263f" font-size="26" font-family="Roboto-Black, Roboto" font-weight="800"><tspan x="-6.944" y="0">+</tspan></text>
          </g>
        </g>
        <g id="Grupo_951408" data-name="Grupo 951408" transform="translate(-156 -932)">
          <g id="Grupo_162490-3" data-name="Grupo 162490" transform="translate(987.324 -9236)">
            <path id="Trazado_113582-3" data-name="Trazado 113582" d="M17,0A17,17,0,1,1,0,17,17,17,0,0,1,17,0Z" transform="translate(154.676 11172)" fill="#ffd947"/>
            <text id="_3" data-name="+" transform="translate(171.676 11198)" fill="#12263f" font-size="26" font-family="Roboto-Black, Roboto" font-weight="800"><tspan x="-6.944" y="0">+</tspan></text>
          </g>
        </g>
        <g id="Grupo_951409" data-name="Grupo 951409" transform="translate(-559 -932)">
          <g id="Grupo_162490-4" data-name="Grupo 162490" transform="translate(987.324 -9236)">
            <path id="Trazado_113582-4" data-name="Trazado 113582" d="M17,0A17,17,0,1,1,0,17,17,17,0,0,1,17,0Z" transform="translate(154.676 11172)" fill="#ffd947"/>
            <text id="_4" data-name="+" transform="translate(171.676 11198)" fill="#12263f" font-size="26" font-family="Roboto-Black, Roboto" font-weight="800"><tspan x="-6.944" y="0">+</tspan></text>
          </g>
        </g>
        <g id="Grupo_951411" data-name="Grupo 951411" transform="translate(-359 -398)">
          <g id="Grupo_162490-5" data-name="Grupo 162490" transform="translate(987.324 -9236)">
            <path id="Trazado_113582-5" data-name="Trazado 113582" d="M17,0A17,17,0,1,1,0,17,17,17,0,0,1,17,0Z" transform="translate(154.676 11172)" fill="#ffd947"/>
            <text id="_5" data-name="+" transform="translate(171.676 11198)" fill="#12263f" font-size="26" font-family="Roboto-Black, Roboto" font-weight="800"><tspan x="-6.944" y="0">+</tspan></text>
          </g>
        </g>
      </g>
    </g>
  </g>
</svg>
