<svg xmlns="http://www.w3.org/2000/svg" width="38.968" height="53.102" viewBox="0 0 38.968 53.102">
  <g id="reporte" transform="translate(-68.137 0)">
    <g id="Grupo_950254" data-name="Grupo 950254" transform="translate(68.915 0.778)">
      <path id="Trazado_657314" data-name="Trazado 657314" d="M109.938,59.046H78.748a3.111,3.111,0,0,1-3.111-3.111V10.611A3.111,3.111,0,0,1,78.748,7.5h21.52l12.781,12.781V55.934A3.112,3.112,0,0,1,109.938,59.046Z" transform="translate(-75.637 -7.5)" fill="#f7f6f7"/>
      <path id="Trazado_657315" data-name="Trazado 657315" d="M379.474,130.732v35.654a3.111,3.111,0,0,1-3.111,3.111h3.111a3.111,3.111,0,0,0,3.111-3.111V130.732Z" transform="translate(-345.173 -117.951)" fill="#edebed"/>
      <path id="Trazado_657316" data-name="Trazado 657316" d="M145.621,58.36H123a1.037,1.037,0,0,1-1.037-1.037V53.537A1.037,1.037,0,0,1,123,52.5h22.616a1.037,1.037,0,0,1,1.037,1.037v3.786A1.037,1.037,0,0,1,145.621,58.36Z" transform="translate(-117.162 -47.833)" fill="#d3ced4"/>
      <path id="Trazado_657317" data-name="Trazado 657317" d="M325.912,50.281h-9.669a3.111,3.111,0,0,1-3.111-3.111V37.5Z" transform="translate(-288.5 -34.389)" fill="#edebed"/>
      <path id="Trazado_657318" data-name="Trazado 657318" d="M325.912,20.281h-9.669a3.111,3.111,0,0,1-3.111-3.111V7.5Z" transform="translate(-288.5 -7.5)" fill="#c4bcc6"/>
      <path id="Trazado_657319" data-name="Trazado 657319" d="M128.294,166.8h-5.6a.726.726,0,0,1-.726-.726v-5.6a.726.726,0,0,1,.726-.726h5.6a.726.726,0,0,1,.726.726v5.6A.726.726,0,0,1,128.294,166.8Z" transform="translate(-117.162 -143.96)" fill="#b3e59f"/>
      <path id="Trazado_657320" data-name="Trazado 657320" d="M156.078,159.75h-3.111a.726.726,0,0,1,.726.726v5.6a.726.726,0,0,1-.726.726h3.111a.726.726,0,0,0,.726-.726v-5.6A.726.726,0,0,0,156.078,159.75Z" transform="translate(-144.947 -143.96)" fill="#95d6a4"/>
      <path id="Trazado_657321" data-name="Trazado 657321" d="M128.294,279.8h-5.6a.726.726,0,0,1-.726-.726v-5.6a.726.726,0,0,1,.726-.726h5.6a.726.726,0,0,1,.726.726v5.6A.726.726,0,0,1,128.294,279.8Z" transform="translate(-117.162 -245.24)" fill="#ff8086"/>
      <path id="Trazado_657322" data-name="Trazado 657322" d="M156.078,272.75h-3.111a.726.726,0,0,1,.726.726v5.6a.726.726,0,0,1-.726.726h3.111a.726.726,0,0,0,.726-.726v-5.6A.726.726,0,0,0,156.078,272.75Z" transform="translate(-144.947 -245.24)" fill="#e5646e"/>
      <path id="Trazado_657323" data-name="Trazado 657323" d="M128.294,392.8h-5.6a.726.726,0,0,1-.726-.726v-5.6a.726.726,0,0,1,.726-.726h5.6a.726.726,0,0,1,.726.726v5.6A.726.726,0,0,1,128.294,392.8Z" transform="translate(-117.162 -346.52)" fill="#ffe07d"/>
      <path id="Trazado_657324" data-name="Trazado 657324" d="M156.078,385.75h-3.111a.726.726,0,0,1,.726.726v5.6a.726.726,0,0,1-.726.726h3.111a.726.726,0,0,0,.726-.726v-5.6A.726.726,0,0,0,156.078,385.75Z" transform="translate(-144.947 -346.52)" fill="#ffd064"/>
    </g>
    <path id="Trazado_657325" data-name="Trazado 657325" d="M101.111,30.622H85.44a.778.778,0,0,0,0,1.556h15.672a.778.778,0,0,0,0-1.556Zm0,11.72H85.44a.778.778,0,0,0,0,1.556h15.672a.778.778,0,0,0,0-1.556Zm0-3.111H85.44a.778.778,0,0,0,0,1.556h15.672a.778.778,0,0,0,0-1.556Zm0-11.72H85.44a.778.778,0,0,0,0,1.556h15.672a.778.778,0,0,0,0-1.556Zm5.216,2.8a.778.778,0,0,0,.778-.778V13.559a.789.789,0,0,0-.228-.55L94.1.228A.779.779,0,0,0,93.546,0H72.026a3.894,3.894,0,0,0-3.889,3.889V49.212A3.894,3.894,0,0,0,72.026,53.1h31.19a3.894,3.894,0,0,0,3.889-3.889V33.159a.778.778,0,1,0-1.556,0V49.212a2.336,2.336,0,0,1-2.334,2.334H72.026a2.336,2.336,0,0,1-2.334-2.334V3.889a2.336,2.336,0,0,1,2.334-2.334H92.768V4.667H74.757a1.817,1.817,0,0,0-1.815,1.815v3.786a1.817,1.817,0,0,0,1.815,1.815H90.071a.778.778,0,0,0,0-1.556H74.757a.26.26,0,0,1-.259-.259V6.482a.26.26,0,0,1,.259-.259H92.768v4.224a3.894,3.894,0,0,0,3.889,3.889h8.892V29.529A.778.778,0,0,0,106.327,30.307ZM96.658,12.781a2.336,2.336,0,0,1-2.334-2.334V2.656l10.125,10.125H96.658ZM80.046,39.23h-5.6a1.506,1.506,0,0,0-1.5,1.5v5.6a1.506,1.506,0,0,0,1.5,1.5h5.6a1.506,1.506,0,0,0,1.5-1.5v-5.6A1.506,1.506,0,0,0,80.046,39.23Zm-.052,7.053H74.5v-5.5h5.5ZM81.55,17.294a1.506,1.506,0,0,0-1.5-1.5h-5.6a1.506,1.506,0,0,0-1.5,1.5v5.6a1.506,1.506,0,0,0,1.5,1.5h5.6a1.506,1.506,0,0,0,1.5-1.5Zm-1.556,5.549H74.5v-5.5h5.5Zm21.117-7.053H85.44a.778.778,0,1,0,0,1.556h15.672a.778.778,0,1,0,0-1.556Zm0,3.111H85.44a.778.778,0,0,0,0,1.556h15.672a.778.778,0,1,0,0-1.556ZM81.55,29.014a1.506,1.506,0,0,0-1.5-1.5h-5.6a1.506,1.506,0,0,0-1.5,1.5v5.6a1.506,1.506,0,0,0,1.5,1.5h5.6a1.506,1.506,0,0,0,1.5-1.5Zm-1.556,5.549H74.5v-5.5h5.5Z" transform="translate(0)"/>
  </g>
</svg>
