<svg xmlns="http://www.w3.org/2000/svg" width="68.063" height="68.064" viewBox="0 0 68.063 68.064">
  <g id="placa-pcb-2" transform="translate(-5.25 -5.25)">
    <g id="Grupo_950196" data-name="Grupo 950196" transform="translate(6.264 6.264)">
      <path id="Trazado_657212" data-name="Trazado 657212" d="M73.036,37.174V7H7V37.174h8.082v5.687H7V73.036H73.036V42.862H64.954V37.174Z" transform="translate(-7 -7)" fill="#64e1dc"/>
      <g id="Grupo_950194" data-name="Grupo 950194" transform="translate(5.793 5.793)">
        <circle id="Elipse_7898" data-name="Elipse 7898" cx="2.289" cy="2.289" r="2.289" fill="#fb7717"/>
        <circle id="Elipse_7899" data-name="Elipse 7899" cx="2.289" cy="2.289" r="2.289" transform="translate(49.872 49.872)" fill="#fb7717"/>
        <circle id="Elipse_7900" data-name="Elipse 7900" cx="2.289" cy="2.289" r="2.289" transform="translate(49.872)" fill="#fb7717"/>
        <circle id="Elipse_7901" data-name="Elipse 7901" cx="2.289" cy="2.289" r="2.289" transform="translate(0 49.872)" fill="#fb7717"/>
      </g>
      <g id="Grupo_950195" data-name="Grupo 950195" transform="translate(29.354 10.371)">
        <path id="Trazado_657213" data-name="Trazado 657213" d="M57.674,24.9H65V43.36H57.674Z" transform="translate(-57.674 -24.904)" fill="#4d5e80"/>
        <path id="Trazado_657214" data-name="Trazado 657214" d="M0,0H7.328V18.456H0Z" transform="translate(7.329 45.294) rotate(180)" fill="#4d5e80"/>
      </g>
    </g>
    <g id="Grupo_950197" data-name="Grupo 950197" transform="translate(5.25 5.25)">
      <path id="Trazado_657215" data-name="Trazado 657215" d="M15.25,18.554a3.3,3.3,0,1,0,3.3-3.3,3.3,3.3,0,0,0-3.3,3.3Zm4.576,0a1.271,1.271,0,1,1-.372-.9,1.274,1.274,0,0,1,.372.9Z" transform="translate(-9.457 -9.458)"/>
      <path id="Trazado_657216" data-name="Trazado 657216" d="M107.954,104.65a3.3,3.3,0,1,0-3.3,3.3,3.3,3.3,0,0,0,3.3-3.3Zm-4.576,0a1.271,1.271,0,1,1,.372.9,1.274,1.274,0,0,1-.372-.9Z" transform="translate(-45.683 -45.682)"/>
      <path id="Trazado_657217" data-name="Trazado 657217" d="M107.954,18.554a3.3,3.3,0,1,0-3.3,3.3,3.3,3.3,0,0,0,3.3-3.3Zm-4.576,0a1.271,1.271,0,1,1,.372.9,1.274,1.274,0,0,1-.372-.9Z" transform="translate(-45.683 -9.458)"/>
      <path id="Trazado_657218" data-name="Trazado 657218" d="M15.25,104.65a3.3,3.3,0,1,0,3.3-3.3A3.3,3.3,0,0,0,15.25,104.65Zm4.576,0a1.271,1.271,0,1,1-.372-.9,1.274,1.274,0,0,1,.372.9Z" transform="translate(-9.457 -45.682)"/>
      <path id="Trazado_657219" data-name="Trazado 657219" d="M65.2,29.794a1.014,1.014,0,1,0,0-2.027H62.811v-3.6A1.014,1.014,0,0,0,61.8,23.15H54.47a1.014,1.014,0,0,0-1.014,1.014v3.6H51.071a1.014,1.014,0,1,0,0,2.027h2.385v2.586H51.071a1.014,1.014,0,1,0,0,2.027h2.385v2.586H51.071a1.014,1.014,0,0,0,0,2.027h2.385v3.6a1.014,1.014,0,0,0,1.014,1.014H61.8a1.014,1.014,0,0,0,1.014-1.014v-3.6H65.2a1.014,1.014,0,1,0,0-2.027H62.811V34.407H65.2a1.014,1.014,0,1,0,0-2.027H62.811V29.794ZM60.784,41.611h-5.3V25.18h5.3Z" transform="translate(-24.102 -12.781)"/>
      <path id="Trazado_657220" data-name="Trazado 657220" d="M82.552,49.076h.876a1.014,1.014,0,1,0,0-2.027h-.875a1.014,1.014,0,1,0,0,2.027Z" transform="translate(-37.348 -22.836)"/>
      <path id="Trazado_657221" data-name="Trazado 657221" d="M42.464,49.076h.875a1.014,1.014,0,1,0,0-2.027h-.875a1.014,1.014,0,1,0,0,2.027Z" transform="translate(-20.481 -22.836)"/>
      <path id="Trazado_657222" data-name="Trazado 657222" d="M42.464,33.146h.875a1.014,1.014,0,1,0,0-2.027h-.875a1.014,1.014,0,1,0,0,2.027Z" transform="translate(-20.481 -16.134)"/>
      <path id="Trazado_657223" data-name="Trazado 657223" d="M42.464,41.111h.875a1.014,1.014,0,1,0,0-2.027h-.875a1.014,1.014,0,0,0,0,2.027Z" transform="translate(-20.481 -19.485)"/>
      <path id="Trazado_657224" data-name="Trazado 657224" d="M83.856,119.25H81.25a1.014,1.014,0,1,0,0,2.027h2.607a1.014,1.014,0,1,0,0-2.027Z" transform="translate(-36.799 -53.214)"/>
      <path id="Trazado_657225" data-name="Trazado 657225" d="M44.35,71.286h-19.8V58.329h3.561a1.014,1.014,0,1,0,0-2.027H23.533a1.014,1.014,0,0,0-1.014,1.014V71.286H7.277V49.1h6.648l4.317,4.316a1.014,1.014,0,0,0,.717.3h9.152a1.014,1.014,0,1,0,0-2.027H19.379l-4.317-4.317a1.013,1.013,0,0,0-.717-.3H7.277V43.139h7.067a1.013,1.013,0,0,0,1.014-1.014V36.438a1.013,1.013,0,0,0-1.014-1.014H7.277V7.277h14.3a1.014,1.014,0,1,0,0-2.027H6.264A1.014,1.014,0,0,0,5.25,6.264V36.438a1.014,1.014,0,0,0,1.014,1.014h7.067v3.66H6.264A1.014,1.014,0,0,0,5.25,42.125V72.3a1.014,1.014,0,0,0,1.014,1.014H44.35a1.014,1.014,0,1,0,0-2.027Z" transform="translate(-5.25 -5.25)"/>
      <path id="Trazado_657226" data-name="Trazado 657226" d="M87.365,5.25H42.07a1.014,1.014,0,0,0,0,2.027H69.08V20.235H65.519a1.014,1.014,0,0,0,0,2.027H70.1a1.014,1.014,0,0,0,1.014-1.014V7.277H86.351V29.463H79.7l-4.317-4.316a1.014,1.014,0,0,0-.717-.3H65.517a1.014,1.014,0,0,0,0,2.027h8.732L78.566,31.2a1.015,1.015,0,0,0,.717.3H86.35v3.934H79.283a1.013,1.013,0,0,0-1.014,1.014v5.687a1.013,1.013,0,0,0,1.014,1.014H86.35V71.286H72.966a1.014,1.014,0,1,0,0,2.027h14.4A1.014,1.014,0,0,0,88.378,72.3V42.125a1.014,1.014,0,0,0-1.014-1.014H80.3v-3.66h7.067a1.014,1.014,0,0,0,1.014-1.014V6.264A1.014,1.014,0,0,0,87.365,5.25Z" transform="translate(-20.315 -5.25)"/>
      <path id="Trazado_657227" data-name="Trazado 657227" d="M65.2,76.127a1.014,1.014,0,1,0,0-2.027H62.811V70.5A1.014,1.014,0,0,0,61.8,69.485H54.47A1.014,1.014,0,0,0,53.456,70.5v3.6H51.071a1.014,1.014,0,1,0,0,2.027h2.385v2.586H51.071a1.014,1.014,0,1,0,0,2.027h2.385v2.586H51.071a1.014,1.014,0,0,0,0,2.027h2.385v3.6a1.013,1.013,0,0,0,1.014,1.014H61.8a1.013,1.013,0,0,0,1.014-1.014v-3.6H65.2a1.014,1.014,0,1,0,0-2.027H62.811V80.741H65.2a1.014,1.014,0,1,0,0-2.027H62.811V76.127ZM60.784,87.944h-5.3V71.512h5.3Z" transform="translate(-24.102 -32.276)"/>
      <path id="Trazado_657228" data-name="Trazado 657228" d="M42.464,79.478h.875a1.014,1.014,0,1,0,0-2.027h-.875a1.014,1.014,0,1,0,0,2.027Z" transform="translate(-20.481 -35.628)"/>
      <path id="Trazado_657229" data-name="Trazado 657229" d="M82.552,79.478h.876a1.014,1.014,0,1,0,0-2.027h-.875a1.014,1.014,0,1,0,0,2.027Z" transform="translate(-37.348 -35.628)"/>
      <path id="Trazado_657230" data-name="Trazado 657230" d="M82.552,95.408h.876a1.014,1.014,0,0,0,0-2.027h-.875a1.014,1.014,0,0,0,0,2.027Z" transform="translate(-37.348 -42.33)"/>
      <path id="Trazado_657231" data-name="Trazado 657231" d="M82.552,87.443h.876a1.014,1.014,0,0,0,0-2.027h-.875a1.014,1.014,0,0,0,0,2.027Z" transform="translate(-37.348 -38.979)"/>
    </g>
  </g>
</svg>
