<svg xmlns="http://www.w3.org/2000/svg" width="53.968" height="53.102" viewBox="0 0 53.968 53.102">
  <g id="ganancia-financiera" transform="translate(-3.035 -4)">
    <path id="Trazado_659060" data-name="Trazado 659060" d="M41.5,53.042,31.248,55.837,21,53.042l1.36-1.36a11.247,11.247,0,0,0,3.3-7.956L31.248,40l5.59,3.726a11.263,11.263,0,0,0,.857,4.3,15.729,15.729,0,0,0,3.8,5.012Z" transform="translate(-1.229 -2.462)" fill="#757483"/>
    <rect id="Rectángulo_351485" data-name="Rectángulo 351485" width="52.17" height="37.264" rx="4" transform="translate(3.934 4)" fill="#e9e9f5"/>
    <path id="Trazado_659061" data-name="Trazado 659061" d="M56.17,38v1.863a3.725,3.725,0,0,1-3.726,3.726H7.726A3.725,3.725,0,0,1,4,39.863V38Z" transform="translate(-0.066 -2.325)" fill="#c4683d"/>
    <path id="Trazado_659062" data-name="Trazado 659062" d="M6.795,35.682H4V7.734A3.716,3.716,0,0,1,6.9,4.11a3.487,3.487,0,0,0-.1.829Z" transform="translate(-0.066 -0.008)" fill="#d7d7e2"/>
    <path id="Trazado_659063" data-name="Trazado 659063" d="M55.238,41.726H10.521A3.725,3.725,0,0,1,6.795,38H4v1.863A3.725,3.725,0,0,0,7.726,43.59H52.444a3.709,3.709,0,0,0,3.234-1.907,3.676,3.676,0,0,1-.439.044Z" transform="translate(-0.066 -2.325)" fill="#b75a35"/>
    <path id="Trazado_659064" data-name="Trazado 659064" d="M28.453,44H25.658a11.247,11.247,0,0,1-3.3,7.955L21,53.316h2.795l1.36-1.36A11.247,11.247,0,0,0,28.453,44Z" transform="translate(-1.229 -2.736)" fill="#696977"/>
    <path id="Trazado_659065" data-name="Trazado 659065" d="M47.538,56.795V59.59H14V56.795A2.791,2.791,0,0,1,16.795,54H44.743a2.791,2.791,0,0,1,2.795,2.795Z" transform="translate(-0.75 -3.42)" fill="#c4683d"/>
    <path id="Trazado_659066" data-name="Trazado 659066" d="M16.795,57.736a.932.932,0,0,1-.932-.932V54.941a2.773,2.773,0,0,1,.13-.8A2.781,2.781,0,0,0,14,56.8v1.863H47.538v-.932Z" transform="translate(-0.75 -3.429)" fill="#b75a35"/>
    <g id="Grupo_951422" data-name="Grupo 951422" transform="translate(3.035 55.238)">
      <path id="Trazado_659067" data-name="Trazado 659067" d="M5.8,59H3.934a.932.932,0,0,0,0,1.863H5.8A.932.932,0,0,0,5.8,59Z" transform="translate(-3.035 -59)" fill="#696977"/>
      <path id="Trazado_659068" data-name="Trazado 659068" d="M59.8,59H57.934a.932.932,0,0,0,0,1.863H59.8A.932.932,0,0,0,59.8,59Z" transform="translate(-6.728 -59)" fill="#696977"/>
      <path id="Trazado_659069" data-name="Trazado 659069" d="M50.925,60.863H9.934a.932.932,0,0,1,0-1.863h40.99a.932.932,0,0,1,0,1.863Z" transform="translate(-3.445 -59)" fill="#696977"/>
    </g>
    <path id="Trazado_659070" data-name="Trazado 659070" d="M21.316,31.863a1.877,1.877,0,0,1-1.863,1.863h-5.59a1.863,1.863,0,1,1,0-3.726h5.59a1.869,1.869,0,0,1,1.863,1.863Z" transform="translate(-0.613 -1.778)" fill="#ffa515"/>
    <path id="Trazado_659071" data-name="Trazado 659071" d="M51.316,31.726a1.891,1.891,0,0,1-1.863,1.863h-5.59A1.869,1.869,0,0,1,42,31.726a1.89,1.89,0,0,1,1.863-1.863L46.658,28l2.795,1.863a1.869,1.869,0,0,1,1.863,1.863Z" transform="translate(-2.665 -1.641)" fill="#ffa515"/>
    <path id="Trazado_659072" data-name="Trazado 659072" d="M51.316,27.726a1.886,1.886,0,0,1-1.863,1.863h-5.59A1.869,1.869,0,0,1,42,27.726a1.893,1.893,0,0,1,1.863-1.863L46.658,24l2.795,1.863a1.869,1.869,0,0,1,1.863,1.863Z" transform="translate(-2.665 -1.368)" fill="#fcd532"/>
    <path id="Trazado_659073" data-name="Trazado 659073" d="M51.316,23.726a1.89,1.89,0,0,1-1.863,1.863h-5.59A1.869,1.869,0,0,1,42,23.726a1.917,1.917,0,0,1,1.863-1.863L46.658,20l2.795,1.863a1.869,1.869,0,0,1,1.863,1.863Z" transform="translate(-2.665 -1.094)" fill="#ffa515"/>
    <path id="Trazado_659074" data-name="Trazado 659074" d="M36.316,31.726a1.909,1.909,0,0,1-1.863,1.863h-5.59A1.869,1.869,0,0,1,27,31.726a1.888,1.888,0,0,1,1.863-1.863L31.658,28l2.795,1.863a1.869,1.869,0,0,1,1.863,1.863Z" transform="translate(-1.639 -1.641)" fill="#fcd532"/>
    <path id="Trazado_659075" data-name="Trazado 659075" d="M36.316,27.726a1.891,1.891,0,0,1-1.863,1.863h-5.59A1.869,1.869,0,0,1,27,27.726a1.91,1.91,0,0,1,1.863-1.863L31.658,24l2.795,1.863a1.869,1.869,0,0,1,1.863,1.863Z" transform="translate(-1.639 -1.368)" fill="#ffa515"/>
    <path id="Trazado_659076" data-name="Trazado 659076" d="M51.316,19.726a1.892,1.892,0,0,1-1.863,1.863h-5.59a1.863,1.863,0,0,1,0-3.726L46.658,16l2.795,1.863a1.869,1.869,0,0,1,1.863,1.863Z" transform="translate(-2.665 -0.821)" fill="#fcd532"/>
    <path id="Trazado_659077" data-name="Trazado 659077" d="M36.251,27.4H30.726a1.892,1.892,0,0,0-1.863,1.863,1.564,1.564,0,0,0,.065.466h-.065a1.863,1.863,0,1,1,0-3.726h5.59a1.859,1.859,0,0,1,1.8,1.4Z" transform="translate(-1.639 -1.505)" fill="#f79b14"/>
    <path id="Trazado_659078" data-name="Trazado 659078" d="M51.251,31.4H45.726a1.892,1.892,0,0,0-1.863,1.863,1.564,1.564,0,0,0,.065.466h-.065A1.869,1.869,0,0,1,42,31.863,1.892,1.892,0,0,1,43.863,30h5.59A1.859,1.859,0,0,1,51.251,31.4Z" transform="translate(-2.665 -1.778)" fill="#f79b14"/>
    <path id="Trazado_659079" data-name="Trazado 659079" d="M51.251,27.4H45.726a1.891,1.891,0,0,0-1.863,1.863,1.564,1.564,0,0,0,.065.466h-.065a1.863,1.863,0,1,1,0-3.726h5.59A1.859,1.859,0,0,1,51.251,27.4Z" transform="translate(-2.665 -1.505)" fill="#efca2e"/>
    <path id="Trazado_659080" data-name="Trazado 659080" d="M36.251,31.4H30.726a1.887,1.887,0,0,0-1.863,1.863,1.564,1.564,0,0,0,.065.466h-.065A1.869,1.869,0,0,1,27,31.863,1.909,1.909,0,0,1,28.863,30h5.59a1.859,1.859,0,0,1,1.8,1.4Z" transform="translate(-1.639 -1.778)" fill="#efca2e"/>
    <path id="Trazado_659081" data-name="Trazado 659081" d="M21.321,31.4H15.8a1.877,1.877,0,0,0-1.863,1.863,1.565,1.565,0,0,0,.065.466h-.065a1.863,1.863,0,0,1,0-3.726h5.59A1.859,1.859,0,0,1,21.321,31.4Z" transform="translate(-0.618 -1.778)" fill="#f79b14"/>
    <path id="Trazado_659082" data-name="Trazado 659082" d="M13.973,24.8a.878.878,0,0,0,1.25.339l24.55-14.668-.121.255a.932.932,0,0,0,1.682.8L42.777,8.5a.945.945,0,0,0-.8-1.331L38.627,7a.932.932,0,0,0-.092,1.861l.281.014L14.267,23.543a.884.884,0,0,0-.295,1.261Z" transform="translate(-0.738 -0.205)" fill="#696977"/>
    <path id="Trazado_659083" data-name="Trazado 659083" d="M13.795,16.318a.933.933,0,0,1-.932-.931.932.932,0,0,0-1.863,0,2.79,2.79,0,0,0,1.863,2.623v1.1a.932.932,0,0,0,1.863,0v-1.1a2.788,2.788,0,0,0-.932-5.418.932.932,0,1,1,.932-.932.932.932,0,0,0,1.863,0,2.79,2.79,0,0,0-1.863-2.623v-1.1a.932.932,0,0,0-1.863,0v1.1a2.788,2.788,0,0,0,.932,5.418.932.932,0,1,1,0,1.863Z" transform="translate(-0.545 -0.207)" fill="#f79b14"/>
    <path id="Trazado_659084" data-name="Trazado 659084" d="M51.316,15.863a1.892,1.892,0,0,1-1.863,1.863h-5.59A1.869,1.869,0,0,1,42,15.863,1.894,1.894,0,0,1,43.863,14h5.59a1.869,1.869,0,0,1,1.863,1.863Z" transform="translate(-2.665 -0.684)" fill="#ffa515"/>
    <path id="Trazado_659085" data-name="Trazado 659085" d="M51.251,15.4H45.726a1.893,1.893,0,0,0-1.863,1.863,1.564,1.564,0,0,0,.065.466h-.065A1.869,1.869,0,0,1,42,15.863,1.889,1.889,0,0,1,43.863,14h5.59a1.859,1.859,0,0,1,1.8,1.4Z" transform="translate(-2.665 -0.684)" fill="#f79b14"/>
    <path id="Trazado_659086" data-name="Trazado 659086" d="M51.251,23.4H45.726a1.915,1.915,0,0,0-1.863,1.863,1.564,1.564,0,0,0,.065.466h-.065A1.869,1.869,0,0,1,42,23.863,1.9,1.9,0,0,1,43.863,22h5.59a1.859,1.859,0,0,1,1.8,1.4Z" transform="translate(-2.665 -1.231)" fill="#f79b14"/>
    <path id="Trazado_659087" data-name="Trazado 659087" d="M51.251,19.4H45.726a1.877,1.877,0,0,0-1.863,1.863,1.564,1.564,0,0,0,.065.466h-.065a1.863,1.863,0,0,1,0-3.726h5.59a1.859,1.859,0,0,1,1.8,1.4Z" transform="translate(-2.665 -0.958)" fill="#efca2e"/>
    <path id="Trazado_659088" data-name="Trazado 659088" d="M36.316,23.863a1.906,1.906,0,0,1-1.863,1.863h-5.59A1.869,1.869,0,0,1,27,23.863,1.891,1.891,0,0,1,28.863,22h5.59a1.869,1.869,0,0,1,1.863,1.863Z" transform="translate(-1.639 -1.231)" fill="#fcd532"/>
    <path id="Trazado_659089" data-name="Trazado 659089" d="M36.251,23.4H30.726a1.909,1.909,0,0,0-1.863,1.863,1.564,1.564,0,0,0,.065.466h-.065A1.869,1.869,0,0,1,27,23.863,1.921,1.921,0,0,1,28.863,22h5.59A1.859,1.859,0,0,1,36.251,23.4Z" transform="translate(-1.639 -1.231)" fill="#efca2e"/>
  </g>
</svg>
