<svg xmlns="http://www.w3.org/2000/svg" width="68.063" height="53.102" viewBox="0 0 68.063 53.102">
  <g id="Layer_1" transform="translate(-5.17 -32.17)">
    <g id="Grupo_950214" data-name="Grupo 950214" transform="translate(5.17 32.17)">
      <g id="Grupo_950212" data-name="Grupo 950212" transform="translate(0.693 0.691)">
        <g id="Grupo_950201" data-name="Grupo 950201" transform="translate(0 2.032)">
          <path id="Trazado_657238" data-name="Trazado 657238" d="M74.348,43.385V90.3a1.385,1.385,0,0,1-1.385,1.385H9.055A1.385,1.385,0,0,1,7.67,90.3V43.385A1.385,1.385,0,0,1,9.055,42h3.6V64.107H27.849V42h16.48v1.848a1.385,1.385,0,0,0,1.385,1.385h7.58a1.385,1.385,0,0,0,1.385-1.385V42h3.81v1.848a1.385,1.385,0,0,0,1.385,1.385h7.45a1.385,1.385,0,0,0,1.385-1.385V42h4.253A1.385,1.385,0,0,1,74.348,43.385Z" transform="translate(-7.67 -42)" fill="#13bf6d"/>
        </g>
        <g id="Grupo_950202" data-name="Grupo 950202" transform="translate(6.626 40.237)">
          <path id="Trazado_657239" data-name="Trazado 657239" d="M31.584,179.89H43.5v4.95H31.584Z" transform="translate(-31.584 -179.89)" fill="#afafaf"/>
        </g>
        <g id="Grupo_950207" data-name="Grupo 950207" transform="translate(36.657 10.251)">
          <g id="Grupo_950203" data-name="Grupo 950203">
            <path id="Trazado_657240" data-name="Trazado 657240" d="M139.977,71.665h24.382V96.047H139.977Z" transform="translate(-139.977 -71.665)" fill="#efefef"/>
          </g>
          <g id="Grupo_950206" data-name="Grupo 950206" transform="translate(5.31 5.31)">
            <g id="Grupo_950204" data-name="Grupo 950204">
              <path id="Trazado_657241" data-name="Trazado 657241" d="M159.143,92.217v10.99a1.385,1.385,0,0,0,1.385,1.385h10.99a1.385,1.385,0,0,0,1.385-1.385V92.217a1.385,1.385,0,0,0-1.385-1.385h-10.99A1.385,1.385,0,0,0,159.143,92.217Z" transform="translate(-159.143 -90.832)" fill="#72c1e8"/>
            </g>
            <g id="Grupo_950205" data-name="Grupo 950205" transform="translate(2.863 2.863)">
              <path id="Trazado_657242" data-name="Trazado 657242" d="M169.477,101.165h8.035V109.2h-8.035Z" transform="translate(-169.477 -101.165)" fill="#f0c020"/>
            </g>
          </g>
        </g>
        <g id="Grupo_950208" data-name="Grupo 950208" transform="translate(4.987 0.001)">
          <path id="Trazado_657243" data-name="Trazado 657243" d="M25.67,34.67H40.861V58.808H25.67Z" transform="translate(-25.67 -34.67)" fill="#f0c020"/>
        </g>
        <g id="Grupo_950209" data-name="Grupo 950209" transform="translate(50.82)">
          <path id="Trazado_657244" data-name="Trazado 657244" d="M201.312,34.665v3.879a1.385,1.385,0,0,1-1.385,1.385h-7.449a1.385,1.385,0,0,1-1.385-1.385V34.665Z" transform="translate(-191.092 -34.665)" fill="#afafaf"/>
        </g>
        <g id="Grupo_950210" data-name="Grupo 950210" transform="translate(36.657)">
          <path id="Trazado_657245" data-name="Trazado 657245" d="M150.329,34.665v3.879a1.385,1.385,0,0,1-1.385,1.385h-7.582a1.385,1.385,0,0,1-1.385-1.385V34.665Z" transform="translate(-139.977 -34.665)" fill="#afafaf"/>
        </g>
        <g id="Grupo_950211" data-name="Grupo 950211" transform="translate(23.965 39.433)">
          <circle id="Elipse_7902" data-name="Elipse 7902" cx="3.278" cy="3.278" r="3.278" fill="#afafaf"/>
        </g>
      </g>
      <g id="Grupo_950213" data-name="Grupo 950213" transform="translate(20.179 7.711)">
        <path id="Trazado_657246" data-name="Trazado 657246" d="M122.192,102.114H82.849a.693.693,0,1,1,0-1.385H121.5V60.693a.693.693,0,1,1,1.385,0v40.728A.693.693,0,0,1,122.192,102.114Zm-42.114,0H78.693a.693.693,0,1,1,0-1.385h1.385a.693.693,0,1,1,0,1.385Z" transform="translate(-78 -60)" fill="#76ffba"/>
      </g>
      <path id="Trazado_657247" data-name="Trazado 657247" d="M39.193,179.5a.693.693,0,0,0,.693-.693v-1.934h1.8a.694.694,0,0,0,.693-.693v-4.951a.691.691,0,0,0-.693-.693h-1.8V168.6a.693.693,0,0,0-1.385,0v1.934H36.422V168.6a.693.693,0,0,0-1.385,0v1.934H32.959V168.6a.693.693,0,0,0-1.385,0v1.934h-1.8a.7.7,0,0,0-.693.693v4.951a.7.7,0,0,0,.693.693h1.8v1.934a.693.693,0,0,0,1.385,0v-1.934h2.078v1.934a.693.693,0,1,0,1.385,0v-1.934H38.5v1.934A.7.7,0,0,0,39.193,179.5Zm-8.727-7.578H40.994v3.566H30.465Z" transform="translate(-22.455 -130.301)"/>
      <path id="Trazado_657248" data-name="Trazado 657248" d="M175.707,98.67h-8.035a.689.689,0,0,0-.693.693v8.032a.689.689,0,0,0,.693.693h8.035a.692.692,0,0,0,.693-.693V99.363A.691.691,0,0,0,175.707,98.67Zm-.693,8.035h-6.65v-6.652h6.65Z" transform="translate(-122.148 -80.245)"/>
      <path id="Trazado_657249" data-name="Trazado 657249" d="M167.906,87.525a.693.693,0,0,0,0-1.385h-1.288v-.9a2.082,2.082,0,0,0-2.078-2.078h-.9V81.873a.693.693,0,1,0-1.385,0v1.288h-2.516V81.873a.693.693,0,0,0-1.385,0v1.288h-2.518V81.873a.693.693,0,1,0-1.385,0v1.288h-.9a2.082,2.082,0,0,0-2.078,2.078v.9h-1.288a.693.693,0,1,0,0,1.385h1.288V90.04h-1.288a.693.693,0,1,0,0,1.385h1.288v2.519h-1.288a.693.693,0,1,0,0,1.385h1.288v.9a2.082,2.082,0,0,0,2.078,2.078h.9V99.6a.693.693,0,0,0,1.385,0V98.308h2.518V99.6a.693.693,0,0,0,1.385,0V98.308h2.516V99.6a.693.693,0,1,0,1.385,0V98.308h.9a2.082,2.082,0,0,0,2.078-2.078v-.9h1.288a.693.693,0,1,0,0-1.385h-1.288V91.426h1.288a.693.693,0,1,0,0-1.385h-1.288V87.525Zm-2.674,8.705a.7.7,0,0,1-.693.693H153.549a.7.7,0,0,1-.693-.693V85.239a.7.7,0,0,1,.693-.693H164.54a.693.693,0,0,1,.693.693Z" transform="translate(-109.504 -67.601)"/>
      <path id="Trazado_657250" data-name="Trazado 657250" d="M163.247,69.855a.7.7,0,0,0-.693-.7H138.173a.694.694,0,0,0-.693.7V94.234a.7.7,0,0,0,.693.7h24.382a.7.7,0,0,0,.693-.7V82.6a.693.693,0,0,0-1.385-.006v10.95h-23v-23h23v6.511a.693.693,0,1,0,1.385,0Z" transform="translate(-100.822 -58.911)"/>
      <path id="Trazado_657251" data-name="Trazado 657251" d="M226.173,105.16a.693.693,0,1,0,.693.7A.7.7,0,0,0,226.173,105.16Z" transform="translate(-164.44 -84.937)"/>
      <path id="Trazado_657252" data-name="Trazado 657252" d="M138.173,178.775h24.382a.693.693,0,1,0,0-1.385H138.173a.693.693,0,1,0,0,1.385Z" transform="translate(-100.822 -137.155)"/>
      <path id="Trazado_657253" data-name="Trazado 657253" d="M138.173,192.885h24.382a.693.693,0,1,0,0-1.385H138.173a.693.693,0,1,0,0,1.385Z" transform="translate(-100.822 -147.355)"/>
      <circle id="Elipse_7903" data-name="Elipse 7903" cx="0.693" cy="0.693" r="0.693" transform="translate(15.114 12.831)"/>
      <path id="Trazado_657254" data-name="Trazado 657254" d="M102.683,71.046a.693.693,0,0,0,.693-.693V69.86a.693.693,0,0,0-1.385,0v.493A.693.693,0,0,0,102.683,71.046Z" transform="translate(-75.165 -58.919)"/>
      <path id="Trazado_657255" data-name="Trazado 657255" d="M101.99,91.906a.693.693,0,0,0,1.385,0v-.493a.693.693,0,1,0-1.385,0Z" transform="translate(-75.165 -74.498)"/>
      <path id="Trazado_657256" data-name="Trazado 657256" d="M101.99,113.463a.693.693,0,0,0,1.385,0v-.49a.693.693,0,0,0-1.385,0Z" transform="translate(-75.165 -90.084)"/>
      <path id="Trazado_657257" data-name="Trazado 657257" d="M101.99,135.016a.693.693,0,0,0,1.385,0v-.493a.693.693,0,1,0-1.385,0Z" transform="translate(-75.165 -105.664)"/>
      <path id="Trazado_657258" data-name="Trazado 657258" d="M101.99,156.573a.693.693,0,1,0,1.385,0v-.49a.693.693,0,1,0-1.385,0Z" transform="translate(-75.165 -121.25)"/>
      <path id="Trazado_657259" data-name="Trazado 657259" d="M114.183,82.106a.693.693,0,0,0,.693-.693v-.49a.693.693,0,0,0-1.385,0v.49A.693.693,0,0,0,114.183,82.106Z" transform="translate(-83.478 -66.914)"/>
      <path id="Trazado_657260" data-name="Trazado 657260" d="M113.49,102.973a.693.693,0,1,0,1.385,0v-.493a.693.693,0,0,0-1.385,0Z" transform="translate(-83.478 -82.501)"/>
      <path id="Trazado_657261" data-name="Trazado 657261" d="M113.49,124.526a.693.693,0,0,0,1.385,0v-.493a.693.693,0,0,0-1.385,0Z" transform="translate(-83.478 -98.08)"/>
      <path id="Trazado_657262" data-name="Trazado 657262" d="M113.49,146.083a.693.693,0,0,0,1.385,0v-.49a.693.693,0,0,0-1.385,0Z" transform="translate(-83.478 -113.667)"/>
      <path id="Trazado_657263" data-name="Trazado 657263" d="M91.67,178.46a3.97,3.97,0,1,0,3.97-3.97A3.976,3.976,0,0,0,91.67,178.46Zm3.97-2.585a2.586,2.586,0,1,1-2.585,2.585A2.595,2.595,0,0,1,95.64,175.875Z" transform="translate(-67.704 -135.058)"/>
      <path id="Trazado_657264" data-name="Trazado 657264" d="M39.747,149.523a.7.7,0,0,0-.693-.693H23.863a.693.693,0,1,0,0,1.385H39.054A.693.693,0,0,0,39.747,149.523Z" transform="translate(-18.183 -116.508)"/>
      <circle id="Elipse_7904" data-name="Elipse 7904" cx="0.693" cy="0.693" r="0.693" transform="translate(55.867 51.717)"/>
      <path id="Trazado_657265" data-name="Trazado 657265" d="M5.17,83.194a2.081,2.081,0,0,0,2.078,2.078H58.959a.693.693,0,0,0,0-1.385H7.248a.693.693,0,0,1-.693-.693V36.279a.693.693,0,0,1,.693-.693h2.909V57a.691.691,0,0,0,.693.693h1.84v2.045a.693.693,0,0,0,1.385,0V57.693h3.677v2.045a.693.693,0,0,0,1.385,0V57.693h3.679v2.045a.693.693,0,0,0,1.385,0V57.693h1.84A.691.691,0,0,0,26.734,57V35.586H41.828v1.155a2.081,2.081,0,0,0,2.078,2.078h7.58a2.082,2.082,0,0,0,2.078-2.078V35.586h2.424v1.155a2.082,2.082,0,0,0,2.078,2.078h7.45A2.082,2.082,0,0,0,67.6,36.742V35.586h3.56a.693.693,0,0,1,.693.693V83.194a.693.693,0,0,1-.693.693H64.5a.693.693,0,1,0,0,1.385h6.655a2.081,2.081,0,0,0,2.078-2.078V36.279A2.082,2.082,0,0,0,71.155,34.2H67.6V32.863a.691.691,0,0,0-.693-.693H56.682a.691.691,0,0,0-.693.693V34.2H53.565V32.863a.691.691,0,0,0-.693-.693H42.521a.691.691,0,0,0-.693.693V34.2H26.734V32.863a.692.692,0,0,0-.693-.693H10.85a.689.689,0,0,0-.693.693V34.2H7.248A2.082,2.082,0,0,0,5.17,36.279Zm52.2-49.641H66.21v3.189a.7.7,0,0,1-.693.693h-7.45a.7.7,0,0,1-.693-.693Zm-14.161,0h8.966v3.183a.7.7,0,0,1-.693.7h-7.58a.7.7,0,0,1-.693-.7ZM20.976,43.615a.693.693,0,0,0,.693-.693v-9.37h3.679V56.308H21.669V48.464a.693.693,0,0,0-1.385,0v7.846H16.6V33.553h3.679v9.37A.693.693,0,0,0,20.976,43.615ZM11.542,33.553h3.677V56.308H11.542Z" transform="translate(-5.17 -32.17)"/>
    </g>
  </g>
</svg>
