<svg xmlns="http://www.w3.org/2000/svg" xmlns:xlink="http://www.w3.org/1999/xlink" width="88" height="88" viewBox="0 0 88 88">
  <defs>
    <filter id="Elipse_7199" x="0" y="0" width="88" height="88" filterUnits="userSpaceOnUse">
      <feOffset dy="3" input="SourceAlpha"/>
      <feGaussianBlur stdDeviation="3" result="blur"/>
      <feFlood flood-opacity="0.161"/>
      <feComposite operator="in" in2="blur"/>
      <feComposite in="SourceGraphic"/>
    </filter>
  </defs>
  <g id="Grupo_952665" data-name="Grupo 952665" transform="translate(-721.679 -2998.117)">
    <g transform="matrix(1, 0, 0, 1, 721.68, 2998.12)" filter="url(#Elipse_7199)">
      <circle id="Elipse_7199-2" data-name="Elipse 7199" cx="35" cy="35" r="35" transform="translate(9 6)" fill="#00cca7"/>
    </g>
    <g id="cortocircuito-2" transform="translate(720.679 2994.117)">
      <path id="Trazado_657326" data-name="Trazado 657326" d="M133.46,117.229l-7.9-3.21a30.526,30.526,0,0,1,3.02-6.8L127.342,106l-4.573,4.376-6.1-1.517-1.772,6.076-6.039,1.735,1.5,6.148L106,127.342l4.376,4.573-1.517,6.1,6.076,1.772,1.735,6.039.217.031a22.1,22.1,0,0,0,4.336-8.4l7.9,3.21a30.531,30.531,0,0,1-2.977,6.724l.184.319,1.011.975,4.573-4.376,6.1,1.517,1.772-6.076,6.039-1.735-1.5-6.148,4.363-4.522-4.376-4.573,1.517-6.1-6.076-1.772-1.735-6.039-.272.036A22.1,22.1,0,0,0,133.46,117.229Z" transform="translate(-82.342 -82.342)" fill="#fff69b" fill-rule="evenodd"/>
      <g id="Grupo_950256" data-name="Grupo 950256" transform="translate(10 10)">
        <path id="Trazado_657327" data-name="Trazado 657327" d="M10,351.971h7.5a30.644,30.644,0,0,0,29.277-21.677l-7.9-3.21a22.1,22.1,0,0,1-21.377,16.4H10" transform="translate(-10 -281.971)" fill="none" stroke="#020288" stroke-linecap="round" stroke-linejoin="round" stroke-miterlimit="22.926" stroke-width="3" fill-rule="evenodd"/>
        <line id="Línea_196" data-name="Línea 196" y1="6.649" x2="1.044" transform="translate(30.846 38.855)" fill="none" stroke="#020288" stroke-linecap="round" stroke-linejoin="round" stroke-miterlimit="22.926" stroke-width="3"/>
        <line id="Línea_197" data-name="Línea 197" y1="5.262" x2="3.391" transform="translate(35.407 41.817)" fill="none" stroke="#020288" stroke-linecap="round" stroke-linejoin="round" stroke-miterlimit="22.926" stroke-width="3"/>
        <g id="Grupo_950255" data-name="Grupo 950255" transform="translate(31.201)">
          <path id="Trazado_657328" data-name="Trazado 657328" d="M280.257,10h-7.505a30.644,30.644,0,0,0-29.277,21.677l7.9,3.21a22.1,22.1,0,0,1,21.377-16.4h7.505" transform="translate(-241.458 -10)" fill="none" stroke="#020288" stroke-linecap="round" stroke-linejoin="round" stroke-miterlimit="22.926" stroke-width="3" fill-rule="evenodd"/>
          <line id="Línea_198" data-name="Línea 198" x1="1.044" y2="6.649" transform="translate(6.909 24.495)" fill="none" stroke="#020288" stroke-linecap="round" stroke-linejoin="round" stroke-miterlimit="22.926" stroke-width="3"/>
          <line id="Línea_199" data-name="Línea 199" x1="3.391" y2="5.262" transform="translate(0 22.921)" fill="none" stroke="#020288" stroke-linecap="round" stroke-linejoin="round" stroke-miterlimit="22.926" stroke-width="3"/>
        </g>
        <line id="Línea_200" data-name="Línea 200" x1="1.883" y1="3.261" transform="translate(18.499 6.419)" fill="none" stroke="#020288" stroke-linecap="round" stroke-linejoin="round" stroke-miterlimit="22.926" stroke-width="3"/>
        <line id="Línea_201" data-name="Línea 201" x2="1.883" y2="3.261" transform="translate(49.618 60.32)" fill="none" stroke="#020288" stroke-linecap="round" stroke-linejoin="round" stroke-miterlimit="22.926" stroke-width="3"/>
        <line id="Línea_202" data-name="Línea 202" x1="3.261" y1="1.883" transform="translate(6.42 18.499)" fill="none" stroke="#020288" stroke-linecap="round" stroke-linejoin="round" stroke-miterlimit="22.926" stroke-width="3"/>
        <line id="Línea_203" data-name="Línea 203" x2="3.261" y2="1.883" transform="translate(60.32 49.618)" fill="none" stroke="#020288" stroke-linecap="round" stroke-linejoin="round" stroke-miterlimit="22.926" stroke-width="3"/>
        <line id="Línea_204" data-name="Línea 204" x1="3.765" transform="translate(1.998 35)" fill="none" stroke="#020288" stroke-linecap="round" stroke-linejoin="round" stroke-miterlimit="22.926" stroke-width="3"/>
        <line id="Línea_205" data-name="Línea 205" x2="3.765" transform="translate(64.236 35)" fill="none" stroke="#020288" stroke-linecap="round" stroke-linejoin="round" stroke-miterlimit="22.926" stroke-width="3"/>
      </g>
    </g>
  </g>
</svg>
